<svg xmlns="http://www.w3.org/2000/svg" xmlns:xlink="http://www.w3.org/1999/xlink" version="1.1" class="marks" width="311" height="242" viewBox="0 0 311 242"><rect width="298" height="247" fill="white"/><g fill="none" stroke-miterlimit="10" transform="translate(47,5)"><g class="mark-group role-frame root" role="graphics-object" aria-roledescription="group mark container"><g transform="translate(0,0)"><path class="background" aria-hidden="true" d="M0.5,0.5h200v200h-200Z" stroke="#ddd"/><g><g class="mark-group role-axis" aria-hidden="true"><g transform="translate(0.5,200.5)"><path class="background" aria-hidden="true" d="M0,0h0v0h0Z" pointer-events="none"/><g><g class="mark-rule role-axis-grid" pointer-events="none"><line transform="translate(0,-200)" x2="0" y2="200" stroke="#ddd" stroke-width="1" opacity="1"/><line transform="translate(50,-200)" x2="0" y2="200" stroke="#ddd" stroke-width="1" opacity="1"/><line transform="translate(100,-200)" x2="0" y2="200" stroke="#ddd" stroke-width="1" opacity="1"/><line transform="translate(150,-200)" x2="0" y2="200" stroke="#ddd" stroke-width="1" opacity="1"/><line transform="translate(200,-200)" x2="0" y2="200" stroke="#ddd" stroke-width="1" opacity="1"/></g></g><path class="foreground" aria-hidden="true" d="" pointer-events="none" display="none"/></g></g><g class="mark-group role-axis" aria-hidden="true"><g transform="translate(0.5,0.5)"><path class="background" aria-hidden="true" d="M0,0h0v0h0Z" pointer-events="none"/><g><g class="mark-rule role-axis-grid" pointer-events="none"><line transform="translate(0,200)" x2="200" y2="0" stroke="#ddd" stroke-width="1" opacity="1"/><line transform="translate(0,156)" x2="200" y2="0" stroke="#ddd" stroke-width="1" opacity="1"/><line transform="translate(0,111)" x2="200" y2="0" stroke="#ddd" stroke-width="1" opacity="1"/><line transform="translate(0,67)" x2="200" y2="0" stroke="#ddd" stroke-width="1" opacity="1"/><line transform="translate(0,22)" x2="200" y2="0" stroke="#ddd" stroke-width="1" opacity="1"/></g></g><path class="foreground" aria-hidden="true" d="" pointer-events="none" display="none"/></g></g><g class="mark-group role-axis" role="graphics-symbol" aria-roledescription="axis" aria-label="X-axis titled 'D' for a linear scale with values from 0 to 200"><g transform="translate(0.5,200.5)"><path class="background" aria-hidden="true" d="M0,0h0v0h0Z" pointer-events="none"/><g><g class="mark-rule role-axis-tick" pointer-events="none"><line transform="translate(0,0)" x2="0" y2="5" stroke="#888" stroke-width="1" opacity="1"/><line transform="translate(50,0)" x2="0" y2="5" stroke="#888" stroke-width="1" opacity="1"/><line transform="translate(100,0)" x2="0" y2="5" stroke="#888" stroke-width="1" opacity="1"/><line transform="translate(150,0)" x2="0" y2="5" stroke="#888" stroke-width="1" opacity="1"/><line transform="translate(200,0)" x2="0" y2="5" stroke="#888" stroke-width="1" opacity="1"/></g><g class="mark-text role-axis-label" pointer-events="none"><text text-anchor="start" transform="translate(0,15)" font-family="sans-serif" font-size="10px" fill="#000" opacity="1">1</text><text text-anchor="middle" transform="translate(50,15)" font-family="sans-serif" font-size="10px" fill="#000" opacity="1">50</text><text text-anchor="middle" transform="translate(100,15)" font-family="sans-serif" font-size="10px" fill="#000" opacity="1">100</text><text text-anchor="middle" transform="translate(150,15)" font-family="sans-serif" font-size="10px" fill="#000" opacity="1">150</text><text text-anchor="end" transform="translate(200,15)" font-family="sans-serif" font-size="10px" fill="#000" opacity="1">200</text></g><g class="mark-rule role-axis-domain" pointer-events="none"><line transform="translate(0,0)" x2="200" y2="0" stroke="#888" stroke-width="1" opacity="1"/></g><g class="mark-text role-axis-title" pointer-events="none"><text text-anchor="middle" transform="translate(100,30)" font-family="sans-serif" font-size="11px" font-weight="bold" fill="#000" opacity="1">D</text></g></g><path class="foreground" aria-hidden="true" d="" pointer-events="none" display="none"/></g></g><g class="mark-group role-axis" role="graphics-symbol" aria-roledescription="axis" aria-label="Y-axis titled 'A' for a linear scale with values from 0 to 450"><g transform="translate(0.5,0.5)"><path class="background" aria-hidden="true" d="M0,0h0v0h0Z" pointer-events="none"/><g><g class="mark-rule role-axis-tick" pointer-events="none"><line transform="translate(0,200)" x2="-5" y2="0" stroke="#888" stroke-width="1" opacity="1"/><line transform="translate(0,156)" x2="-5" y2="0" stroke="#888" stroke-width="1" opacity="1"/><line transform="translate(0,111)" x2="-5" y2="0" stroke="#888" stroke-width="1" opacity="1"/><line transform="translate(0,67)" x2="-5" y2="0" stroke="#888" stroke-width="1" opacity="1"/><line transform="translate(0,22)" x2="-5" y2="0" stroke="#888" stroke-width="1" opacity="1"/></g><g class="mark-text role-axis-label" pointer-events="none"><text text-anchor="end" transform="translate(-7,203)" font-family="sans-serif" font-size="10px" fill="#000" opacity="1">1</text><text text-anchor="end" transform="translate(-7,158.55555555555557)" font-family="sans-serif" font-size="10px" fill="#000" opacity="1">100</text><text text-anchor="end" transform="translate(-7,114.11111111111111)" font-family="sans-serif" font-size="10px" fill="#000" opacity="1">200</text><text text-anchor="end" transform="translate(-7,69.66666666666667)" font-family="sans-serif" font-size="10px" fill="#000" opacity="1">300</text><text text-anchor="end" transform="translate(-7,25.222222222222232)" font-family="sans-serif" font-size="10px" fill="#000" opacity="1">400</text></g><g class="mark-rule role-axis-domain" pointer-events="none"><line transform="translate(0,200)" x2="0" y2="-200" stroke="#888" stroke-width="1" opacity="1"/></g><g class="mark-text role-axis-title" pointer-events="none"><text text-anchor="middle" transform="translate(-30.100000381469727,100) rotate(-90) translate(0,-2)" font-family="sans-serif" font-size="11px" font-weight="bold" fill="#000" opacity="1">A</text></g></g><path class="foreground" aria-hidden="true" d="" pointer-events="none" display="none"/></g></g><g class="mark-group role-scope pathgroup" role="graphics-object" aria-roledescription="group mark container"><g transform="translate(0,0)"><path class="background" aria-hidden="true" d="M0,0h200v200h-200Z"/><g><g class="mark-line role-mark marks" role="graphics-object" aria-roledescription="line mark container"><path aria-label="D: 1; A: 6; p: 0.99" role="graphics-symbol" aria-roledescription="line mark" d="M1,197.33333333333334L2,195.55555555555554L3,194.22222222222223L4,193.33333333333334L5,192.88888888888889L6,192L7.000000000000001,191.11111111111111L8,190.66666666666669L9,189.77777777777777L10,189.33333333333334L11,188.88888888888889L12,188L13,187.55555555555557L14.000000000000002,186.66666666666666L15,186.22222222222223L16,185.77777777777777L17,185.33333333333331L18,184.44444444444446L19,184L20,183.55555555555557L21,183.11111111111111L22,182.22222222222223L23,181.77777777777777L24,181.33333333333331L25,180.88888888888889L26,180.44444444444446L27,179.55555555555554L28.000000000000004,179.11111111111111L28.999999999999996,178.66666666666666L30,178.22222222222223L31,177.77777777777777L32,176.88888888888889L33,176.44444444444446L34,176L35,175.55555555555554L36,175.11111111111111L37,174.66666666666666L38,174.22222222222223L39,173.77777777777777L40,172.88888888888889L41,172.44444444444446L42,172L43,171.55555555555554L44,171.11111111111111L45,170.66666666666666L46,170.22222222222223L47,169.77777777777777L48,168.88888888888889L49,168.44444444444443L50,168L51,167.55555555555554L52,167.11111111111111L53,166.66666666666669L54,166.22222222222223L55.00000000000001,165.77777777777777L56.00000000000001,165.33333333333334L56.99999999999999,164.88888888888889L57.99999999999999,164.44444444444443L59,164L60,163.55555555555554L61,162.66666666666666L62,162.22222222222223L63,161.77777777777777L64,161.33333333333331L65,160.88888888888889L66,160.44444444444443L67,160L68,159.55555555555557L69,159.11111111111111L70,158.66666666666666L71,158.22222222222223L72,157.77777777777777L73,157.33333333333331L74,156.8888888888889L75,156.44444444444446L76,156L77,155.11111111111111L78,154.66666666666666L79,154.22222222222223L80,153.7777777777778L81,153.33333333333331L82,152.88888888888889L83,152.44444444444446L84,152L85,151.55555555555554L86,151.11111111111111L87,150.66666666666666L88,150.2222222222222L89,149.7777777777778L90,149.33333333333331L91,148.88888888888889L92,148.44444444444446L93,148L94,147.55555555555554L95,147.11111111111111L96,146.66666666666669L97,146.2222222222222L98,145.77777777777777L99,145.33333333333334L100,144.88888888888889L101,144.44444444444443L102,144L103,143.55555555555557L104,143.1111111111111L105,142.66666666666669L106,142.22222222222223L107,141.77777777777777L108,141.33333333333334L109.00000000000001,140.88888888888889L110.00000000000001,140.44444444444446L111.00000000000001,140L112.00000000000001,139.55555555555557L112.99999999999999,139.1111111111111L113.99999999999999,138.22222222222223L114.99999999999999,137.77777777777777L115.99999999999999,137.33333333333334L117,136.88888888888889L118,136.44444444444446L119,136L120,135.55555555555557L121,135.11111111111111L122,134.66666666666666L123,134.22222222222223L124,133.77777777777777L125,133.33333333333334L126,132.88888888888889L127,132.44444444444446L128,131.99999999999997L129,131.55555555555557L130,131.11111111111111L131,130.66666666666666L132,130.22222222222223L133,129.77777777777777L134,129.33333333333334L135,128.88888888888889L136,128.44444444444446L137,128L138,127.55555555555556L139,127.11111111111111L140,126.66666666666666L141,126.22222222222223L142,125.77777777777777L143,125.33333333333334L144,124.8888888888889L145,124.44444444444444L146,124L147,123.55555555555556L148,123.11111111111113L149,122.66666666666666L150,122.22222222222223L151,121.77777777777776L152,121.33333333333334L153,120.88888888888889L154,120.44444444444444L155,120.44444444444444L156,120L157,119.55555555555554L158,119.11111111111113L159,118.66666666666666L160,118.22222222222223L161,117.77777777777779L162,117.33333333333333L163,116.88888888888889L164,116.44444444444444L165,116.00000000000001L166,115.55555555555554L167,115.11111111111111L168,114.66666666666666L169,114.22222222222223L170,113.77777777777777L171,113.33333333333333L172,112.8888888888889L173,112.44444444444443L174,112.00000000000001L175,111.55555555555554L176,111.11111111111111L177,110.66666666666667L178,110.22222222222223L179,109.77777777777777L180,109.33333333333333L181,108.8888888888889L182,108.44444444444443L183,108L184,107.55555555555556L185,107.11111111111111L186,106.66666666666667L187,106.22222222222221L188,105.7777777777778L189,105.33333333333333L190,104.8888888888889L191,104.44444444444443L192,104L193,103.55555555555556L194,103.11111111111111L195,102.66666666666666L196,102.22222222222221L197,101.77777777777779L198,101.33333333333331L199,100.8888888888889L200,100.44444444444444" stroke="#b279a2" stroke-width="2"/></g></g><path class="foreground" aria-hidden="true" d="" display="none"/></g><g transform="translate(0,0)"><path class="background" aria-hidden="true" d="M0,0h200v200h-200Z"/><g><g class="mark-line role-mark marks" role="graphics-object" aria-roledescription="line mark container"><path aria-label="D: 1; A: 5; p: 0.95" role="graphics-symbol" aria-roledescription="line mark" d="M1,197.77777777777777L2,196.44444444444446L3,195.55555555555554L4,195.11111111111111L5,194.22222222222223L6,193.77777777777777L7.000000000000001,192.88888888888889L8,192.44444444444443L9,192L10,191.55555555555554L11,190.66666666666669L12,190.22222222222223L13,189.77777777777777L14.000000000000002,189.33333333333334L15,188.88888888888889L16,188L17,187.55555555555557L18,187.11111111111111L19,186.66666666666666L20,186.22222222222223L21,185.77777777777777L22,184.88888888888889L23,184.44444444444446L24,184L25,183.55555555555557L26,183.11111111111111L27,182.66666666666666L28.000000000000004,182.22222222222223L28.999999999999996,181.77777777777777L30,181.33333333333331L31,180.88888888888889L32,180.44444444444446L33,180L34,179.55555555555554L35,178.66666666666666L36,178.22222222222223L37,177.77777777777777L38,177.33333333333334L39,176.88888888888889L40,176.44444444444446L41,176L42,175.55555555555554L43,175.11111111111111L44,174.66666666666666L45,174.22222222222223L46,173.77777777777777L47,173.33333333333334L48,172.88888888888889L49,172.44444444444446L50,172L51,171.55555555555554L52,171.11111111111111L53,170.66666666666666L54,170.22222222222223L55.00000000000001,169.77777777777777L56.00000000000001,169.33333333333334L56.99999999999999,168.88888888888889L57.99999999999999,168.44444444444443L59,168L60,167.55555555555554L61,167.11111111111111L62,166.66666666666669L63,166.22222222222223L64,165.77777777777777L65,165.33333333333334L66,164.88888888888889L67,164.44444444444443L68,164L69,163.55555555555554L70,163.11111111111111L71,162.66666666666666L72,162.22222222222223L73,161.77777777777777L74,161.33333333333331L75,160.88888888888889L76,160.44444444444443L77,160L78,159.55555555555557L79,159.11111111111111L80,158.66666666666666L81,158.22222222222223L82,157.77777777777777L83,157.33333333333331L84,156.8888888888889L85,156.44444444444446L86,156L87,155.55555555555557L88,155.11111111111111L89,154.66666666666666L90,154.22222222222223L91,153.7777777777778L92,153.33333333333331L93,152.88888888888889L94,152.44444444444446L95,152L96,151.55555555555554L97,151.11111111111111L98,150.66666666666666L99,150.2222222222222L100,149.7777777777778L101,149.33333333333331L102,148.88888888888889L103,148.44444444444446L104,148L105,147.55555555555554L106,147.11111111111111L107,146.66666666666669L108,146.2222222222222L109.00000000000001,145.77777777777777L110.00000000000001,145.33333333333334L111.00000000000001,145.33333333333334L112.00000000000001,144.88888888888889L112.99999999999999,144.44444444444443L113.99999999999999,144L114.99999999999999,143.55555555555557L115.99999999999999,143.1111111111111L117,142.66666666666669L118,142.22222222222223L119,141.77777777777777L120,141.33333333333334L121,140.88888888888889L122,140.44444444444446L123,140L124,139.55555555555557L125,139.1111111111111L126,138.66666666666669L127,138.22222222222223L128,137.77777777777777L129,137.33333333333334L130,136.88888888888889L131,136.44444444444446L132,136L133,135.55555555555557L134,135.11111111111111L135,134.66666666666666L136,134.22222222222223L137,133.77777777777777L138,133.77777777777777L139,133.33333333333334L140,132.88888888888889L141,132.44444444444446L142,131.99999999999997L143,131.55555555555557L144,131.11111111111111L145,130.66666666666666L146,130.22222222222223L147,129.77777777777777L148,129.33333333333334L149,128.88888888888889L150,128.44444444444446L151,128L152,127.55555555555556L153,127.11111111111111L154,126.66666666666666L155,126.22222222222223L156,125.77777777777777L157,125.33333333333334L158,125.33333333333334L159,124.8888888888889L160,124.44444444444444L161,124L162,123.55555555555556L163,123.11111111111113L164,122.66666666666666L165,122.22222222222223L166,121.77777777777776L167,121.33333333333334L168,120.88888888888889L169,120.44444444444444L170,120L171,119.55555555555554L172,119.11111111111113L173,118.66666666666666L174,118.22222222222223L175,117.77777777777779L176,117.33333333333333L177,117.33333333333333L178,116.88888888888889L179,116.44444444444444L180,116.00000000000001L181,115.55555555555554L182,115.11111111111111L183,114.66666666666666L184,114.22222222222223L185,113.77777777777777L186,113.33333333333333L187,112.8888888888889L188,112.44444444444443L189,112.00000000000001L190,111.55555555555554L191,111.11111111111111L192,110.66666666666667L193,110.66666666666667L194,110.22222222222223L195,109.77777777777777L196,109.33333333333333L197,108.8888888888889L198,108.44444444444443L199,108L200,107.55555555555556" stroke="#eeca3b" stroke-width="2"/></g></g><path class="foreground" aria-hidden="true" d="" display="none"/></g><g transform="translate(0,0)"><path class="background" aria-hidden="true" d="M0,0h200v200h-200Z"/><g><g class="mark-line role-mark marks" role="graphics-object" aria-roledescription="line mark container"><path aria-label="D: 1; A: 3; p: 0.75" role="graphics-symbol" aria-roledescription="line mark" d="M1,198.66666666666666L2,197.77777777777777L3,197.33333333333334L4,196.44444444444446L5,196L6,195.55555555555554L7.000000000000001,195.11111111111111L8,194.66666666666669L9,194.22222222222223L10,193.77777777777777L11,193.33333333333334L12,192.88888888888889L13,192.44444444444443L14.000000000000002,192L15,191.55555555555554L16,191.11111111111111L17,190.66666666666669L18,190.22222222222223L19,189.77777777777777L20,189.33333333333334L21,188.88888888888889L22,188.44444444444443L23,188L24,187.55555555555557L25,187.11111111111111L26,186.66666666666666L27,186.66666666666666L28.000000000000004,186.22222222222223L28.999999999999996,185.77777777777777L30,185.33333333333331L31,184.88888888888889L32,184.44444444444446L33,184L34,183.55555555555557L35,183.11111111111111L36,182.66666666666666L37,182.22222222222223L38,181.77777777777777L39,181.33333333333331L40,180.88888888888889L41,180.44444444444446L42,180L43,180L44,179.55555555555554L45,179.11111111111111L46,178.66666666666666L47,178.22222222222223L48,177.77777777777777L49,177.33333333333334L50,176.88888888888889L51,176.44444444444446L52,176L53,175.55555555555554L54,175.11111111111111L55.00000000000001,174.66666666666666L56.00000000000001,174.22222222222223L56.99999999999999,174.22222222222223L57.99999999999999,173.77777777777777L59,173.33333333333334L60,172.88888888888889L61,172.44444444444446L62,172L63,171.55555555555554L64,171.11111111111111L65,170.66666666666666L66,170.22222222222223L67,169.77777777777777L68,169.77777777777777L69,169.33333333333334L70,168.88888888888889L71,168.44444444444443L72,168L73,167.55555555555554L74,167.11111111111111L75,166.66666666666669L76,166.22222222222223L77,165.77777777777777L78,165.33333333333334L79,164.88888888888889L80,164.88888888888889L81,164.44444444444443L82,164L83,163.55555555555554L84,163.11111111111111L85,162.66666666666666L86,162.22222222222223L87,161.77777777777777L88,161.33333333333331L89,160.88888888888889L90,160.88888888888889L91,160.44444444444443L92,160L93,159.55555555555557L94,159.11111111111111L95,158.66666666666666L96,158.22222222222223L97,157.77777777777777L98,157.33333333333331L99,156.8888888888889L100,156.44444444444446L101,156.44444444444446L102,156L103,155.55555555555557L104,155.11111111111111L105,154.66666666666666L106,154.22222222222223L107,153.7777777777778L108,153.33333333333331L109.00000000000001,152.88888888888889L110.00000000000001,152.44444444444446L111.00000000000001,152.44444444444446L112.00000000000001,152L112.99999999999999,151.55555555555554L113.99999999999999,151.11111111111111L114.99999999999999,150.66666666666666L115.99999999999999,150.2222222222222L117,149.7777777777778L118,149.33333333333331L119,148.88888888888889L120,148.44444444444446L121,148.44444444444446L122,148L123,147.55555555555554L124,147.11111111111111L125,146.66666666666669L126,146.2222222222222L127,145.77777777777777L128,145.33333333333334L129,144.88888888888889L130,144.88888888888889L131,144.44444444444443L132,144L133,143.55555555555557L134,143.1111111111111L135,142.66666666666669L136,142.22222222222223L137,141.77777777777777L138,141.33333333333334L139,140.88888888888889L140,140.88888888888889L141,140.44444444444446L142,140L143,139.55555555555557L144,139.1111111111111L145,138.66666666666669L146,138.22222222222223L147,137.77777777777777L148,137.33333333333334L149,137.33333333333334L150,136.88888888888889L151,136.44444444444446L152,136L153,135.55555555555557L154,135.11111111111111L155,134.66666666666666L156,134.22222222222223L157,133.77777777777777L158,133.33333333333334L159,133.33333333333334L160,132.88888888888889L161,132.44444444444446L162,131.99999999999997L163,131.55555555555557L164,131.11111111111111L165,130.66666666666666L166,130.22222222222223L167,129.77777777777777L168,129.77777777777777L169,129.33333333333334L170,128.88888888888889L171,128.44444444444446L172,128L173,127.55555555555556L174,127.11111111111111L175,126.66666666666666L176,126.22222222222223L177,126.22222222222223L178,125.77777777777777L179,125.33333333333334L180,124.8888888888889L181,124.44444444444444L182,124L183,123.55555555555556L184,123.11111111111113L185,122.66666666666666L186,122.66666666666666L187,122.22222222222223L188,121.77777777777776L189,121.33333333333334L190,120.88888888888889L191,120.44444444444444L192,120L193,119.55555555555554L194,119.11111111111113L195,118.66666666666666L196,118.66666666666666L197,118.22222222222223L198,117.77777777777779L199,117.33333333333333L200,116.88888888888889" stroke="#54a24b" stroke-width="2"/></g></g><path class="foreground" aria-hidden="true" d="" display="none"/></g><g transform="translate(0,0)"><path class="background" aria-hidden="true" d="M0,0h200v200h-200Z"/><g><g class="mark-line role-mark marks" role="graphics-object" aria-roledescription="line mark container"><path aria-label="D: 1; A: 3; p: 0.5" role="graphics-symbol" aria-roledescription="line mark" d="M1,198.66666666666666L2,198.22222222222223L3,197.77777777777777L4,197.33333333333334L5,197.33333333333334L6,196.88888888888889L7.000000000000001,196.44444444444446L8,196L9,195.55555555555554L10,195.11111111111111L11,194.66666666666669L12,194.66666666666669L13,194.22222222222223L14.000000000000002,193.77777777777777L15,193.33333333333334L16,192.88888888888889L17,192.44444444444443L18,192L19,192L20,191.55555555555554L21,191.11111111111111L22,190.66666666666669L23,190.22222222222223L24,189.77777777777777L25,189.33333333333334L26,189.33333333333334L27,188.88888888888889L28.000000000000004,188.44444444444443L28.999999999999996,188L30,187.55555555555557L31,187.11111111111111L32,186.66666666666666L33,186.66666666666666L34,186.22222222222223L35,185.77777777777777L36,185.33333333333331L37,184.88888888888889L38,184.44444444444446L39,184.44444444444446L40,184L41,183.55555555555557L42,183.11111111111111L43,182.66666666666666L44,182.22222222222223L45,181.77777777777777L46,181.77777777777777L47,181.33333333333331L48,180.88888888888889L49,180.44444444444446L50,180L51,179.55555555555554L52,179.11111111111111L53,179.11111111111111L54,178.66666666666666L55.00000000000001,178.22222222222223L56.00000000000001,177.77777777777777L56.99999999999999,177.33333333333334L57.99999999999999,176.88888888888889L59,176.44444444444446L60,176.44444444444446L61,176L62,175.55555555555554L63,175.11111111111111L64,174.66666666666666L65,174.22222222222223L66,173.77777777777777L67,173.77777777777777L68,173.33333333333334L69,172.88888888888889L70,172.44444444444446L71,172L72,171.55555555555554L73,171.11111111111111L74,171.11111111111111L75,170.66666666666666L76,170.22222222222223L77,169.77777777777777L78,169.33333333333334L79,168.88888888888889L80,168.88888888888889L81,168.44444444444443L82,168L83,167.55555555555554L84,167.11111111111111L85,166.66666666666669L86,166.22222222222223L87,166.22222222222223L88,165.77777777777777L89,165.33333333333334L90,164.88888888888889L91,164.44444444444443L92,164L93,163.55555555555554L94,163.55555555555554L95,163.11111111111111L96,162.66666666666666L97,162.22222222222223L98,161.77777777777777L99,161.33333333333331L100,160.88888888888889L101,160.88888888888889L102,160.44444444444443L103,160L104,159.55555555555557L105,159.11111111111111L106,158.66666666666666L107,158.22222222222223L108,158.22222222222223L109.00000000000001,157.77777777777777L110.00000000000001,157.33333333333331L111.00000000000001,156.8888888888889L112.00000000000001,156.44444444444446L112.99999999999999,156L113.99999999999999,155.55555555555557L114.99999999999999,155.55555555555557L115.99999999999999,155.11111111111111L117,154.66666666666666L118,154.22222222222223L119,153.7777777777778L120,153.33333333333331L121,153.33333333333331L122,152.88888888888889L123,152.44444444444446L124,152L125,151.55555555555554L126,151.11111111111111L127,150.66666666666666L128,150.66666666666666L129,150.2222222222222L130,149.7777777777778L131,149.33333333333331L132,148.88888888888889L133,148.44444444444446L134,148L135,148L136,147.55555555555554L137,147.11111111111111L138,146.66666666666669L139,146.2222222222222L140,145.77777777777777L141,145.33333333333334L142,145.33333333333334L143,144.88888888888889L144,144.44444444444443L145,144L146,143.55555555555557L147,143.1111111111111L148,143.1111111111111L149,142.66666666666669L150,142.22222222222223L151,141.77777777777777L152,141.33333333333334L153,140.88888888888889L154,140.44444444444446L155,140L156,140L157,139.55555555555557L158,139.1111111111111L159,138.66666666666669L160,138.22222222222223L161,137.77777777777777L162,137.77777777777777L163,137.33333333333334L164,136.88888888888889L165,136.44444444444446L166,136L167,135.55555555555557L168,135.11111111111111L169,135.11111111111111L170,134.66666666666666L171,134.22222222222223L172,133.77777777777777L173,133.33333333333334L174,132.88888888888889L175,132.44444444444446L176,132.44444444444446L177,131.99999999999997L178,131.55555555555557L179,131.11111111111111L180,130.66666666666666L181,130.22222222222223L182,129.77777777777777L183,129.77777777777777L184,129.33333333333334L185,128.88888888888889L186,128.44444444444446L187,128L188,127.55555555555556L189,127.55555555555556L190,127.11111111111111L191,126.66666666666666L192,126.22222222222223L193,125.77777777777777L194,125.33333333333334L195,124.8888888888889L196,124.8888888888889L197,124.44444444444444L198,124L199,123.55555555555556L200,123.11111111111113" stroke="#72b7b2" stroke-width="2"/></g></g><path class="foreground" aria-hidden="true" d="" display="none"/></g><g transform="translate(0,0)"><path class="background" aria-hidden="true" d="M0,0h200v200h-200Z"/><g><g class="mark-line role-mark marks" role="graphics-object" aria-roledescription="line mark container"><path aria-label="D: 1; A: 2; p: 0.25" role="graphics-symbol" aria-roledescription="line mark" d="M1,199.11111111111111L2,198.66666666666666L3,198.22222222222223L4,198.22222222222223L5,197.77777777777777L6,197.77777777777777L7.000000000000001,197.33333333333334L8,196.88888888888889L9,196.88888888888889L10,196.44444444444446L11,196L12,195.55555555555554L13,195.55555555555554L14.000000000000002,195.11111111111111L15,194.66666666666669L16,194.66666666666669L17,194.22222222222223L18,193.77777777777777L19,193.33333333333334L20,193.33333333333334L21,192.88888888888889L22,192.44444444444443L23,192L24,192L25,191.55555555555554L26,191.11111111111111L27,190.66666666666669L28.000000000000004,190.66666666666669L28.999999999999996,190.22222222222223L30,189.77777777777777L31,189.33333333333334L32,189.33333333333334L33,188.88888888888889L34,188.44444444444443L35,188L36,188L37,187.55555555555557L38,187.11111111111111L39,186.66666666666666L40,186.22222222222223L41,186.22222222222223L42,185.77777777777777L43,185.33333333333331L44,184.88888888888889L45,184.88888888888889L46,184.44444444444446L47,184L48,183.55555555555557L49,183.11111111111111L50,183.11111111111111L51,182.66666666666666L52,182.22222222222223L53,181.77777777777777L54,181.77777777777777L55.00000000000001,181.33333333333331L56.00000000000001,180.88888888888889L56.99999999999999,180.44444444444446L57.99999999999999,180L59,180L60,179.55555555555554L61,179.11111111111111L62,178.66666666666666L63,178.22222222222223L64,178.22222222222223L65,177.77777777777777L66,177.33333333333334L67,176.88888888888889L68,176.44444444444446L69,176.44444444444446L70,176L71,175.55555555555554L72,175.11111111111111L73,174.66666666666666L74,174.66666666666666L75,174.22222222222223L76,173.77777777777777L77,173.33333333333334L78,173.33333333333334L79,172.88888888888889L80,172.44444444444446L81,172L82,171.55555555555554L83,171.11111111111111L84,171.11111111111111L85,170.66666666666666L86,170.22222222222223L87,169.77777777777777L88,169.77777777777777L89,169.33333333333334L90,168.88888888888889L91,168.44444444444443L92,168L93,167.55555555555554L94,167.55555555555554L95,167.11111111111111L96,166.66666666666669L97,166.22222222222223L98,165.77777777777777L99,165.77777777777777L100,165.33333333333334L101,164.88888888888889L102,164.44444444444443L103,164L104,164L105,163.55555555555554L106,163.11111111111111L107,162.66666666666666L108,162.22222222222223L109.00000000000001,162.22222222222223L110.00000000000001,161.77777777777777L111.00000000000001,161.33333333333331L112.00000000000001,160.88888888888889L112.99999999999999,160.44444444444443L113.99999999999999,160.44444444444443L114.99999999999999,160L115.99999999999999,159.55555555555557L117,159.11111111111111L118,158.66666666666666L119,158.66666666666666L120,158.22222222222223L121,157.77777777777777L122,157.33333333333331L123,156.8888888888889L124,156.44444444444446L125,156.44444444444446L126,156L127,155.55555555555557L128,155.11111111111111L129,154.66666666666666L130,154.66666666666666L131,154.22222222222223L132,153.7777777777778L133,153.33333333333331L134,152.88888888888889L135,152.88888888888889L136,152.44444444444446L137,152L138,151.55555555555554L139,151.11111111111111L140,151.11111111111111L141,150.66666666666666L142,150.2222222222222L143,149.7777777777778L144,149.33333333333331L145,148.88888888888889L146,148.88888888888889L147,148.44444444444446L148,148L149,147.55555555555554L150,147.11111111111111L151,147.11111111111111L152,146.66666666666669L153,146.2222222222222L154,145.77777777777777L155,145.33333333333334L156,145.33333333333334L157,144.88888888888889L158,144.44444444444443L159,144L160,143.55555555555557L161,143.1111111111111L162,143.1111111111111L163,142.66666666666669L164,142.22222222222223L165,141.77777777777777L166,141.33333333333334L167,141.33333333333334L168,140.88888888888889L169,140.44444444444446L170,140L171,139.55555555555557L172,139.55555555555557L173,139.1111111111111L174,138.66666666666669L175,138.22222222222223L176,137.77777777777777L177,137.33333333333334L178,137.33333333333334L179,136.88888888888889L180,136.44444444444446L181,136L182,135.55555555555557L183,135.55555555555557L184,135.11111111111111L185,134.66666666666666L186,134.22222222222223L187,133.77777777777777L188,133.33333333333334L189,133.33333333333334L190,132.88888888888889L191,132.44444444444446L192,131.99999999999997L193,131.55555555555557L194,131.55555555555557L195,131.11111111111111L196,130.66666666666666L197,130.22222222222223L198,129.77777777777777L199,129.33333333333334L200,129.33333333333334" stroke="#e45756" stroke-width="2"/></g></g><path class="foreground" aria-hidden="true" d="" display="none"/></g><g transform="translate(0,0)"><path class="background" aria-hidden="true" d="M0,0h200v200h-200Z"/><g><g class="mark-line role-mark marks" role="graphics-object" aria-roledescription="line mark container"><path aria-label="D: 1; A: 2; p: 0.05" role="graphics-symbol" aria-roledescription="line mark" d="M1,199.11111111111111L2,199.11111111111111L3,198.66666666666666L4,198.66666666666666L5,198.22222222222223L6,198.22222222222223L7.000000000000001,198.22222222222223L8,198.22222222222223L9,197.77777777777777L10,197.77777777777777L11,197.33333333333334L12,197.33333333333334L13,196.88888888888889L14.000000000000002,196.88888888888889L15,196.44444444444446L16,196.44444444444446L17,196L18,196L19,195.55555555555554L20,195.11111111111111L21,195.11111111111111L22,194.66666666666669L23,194.66666666666669L24,194.22222222222223L25,193.77777777777777L26,193.77777777777777L27,193.33333333333334L28.000000000000004,193.33333333333334L28.999999999999996,192.88888888888889L30,192.44444444444443L31,192.44444444444443L32,192L33,191.55555555555554L34,191.55555555555554L35,191.11111111111111L36,190.66666666666669L37,190.66666666666669L38,190.22222222222223L39,189.77777777777777L40,189.77777777777777L41,189.33333333333334L42,189.33333333333334L43,188.88888888888889L44,188.44444444444443L45,188L46,188L47,187.55555555555557L48,187.11111111111111L49,187.11111111111111L50,186.66666666666666L51,186.22222222222223L52,186.22222222222223L53,185.77777777777777L54,185.33333333333331L55.00000000000001,185.33333333333331L56.00000000000001,184.88888888888889L56.99999999999999,184.44444444444446L57.99999999999999,184.44444444444446L59,184L60,183.55555555555557L61,183.55555555555557L62,183.11111111111111L63,182.66666666666666L64,182.22222222222223L65,182.22222222222223L66,181.77777777777777L67,181.33333333333331L68,181.33333333333331L69,180.88888888888889L70,180.44444444444446L71,180L72,180L73,179.55555555555554L74,179.11111111111111L75,179.11111111111111L76,178.66666666666666L77,178.22222222222223L78,177.77777777777777L79,177.77777777777777L80,177.33333333333334L81,176.88888888888889L82,176.88888888888889L83,176.44444444444446L84,176L85,175.55555555555554L86,175.55555555555554L87,175.11111111111111L88,174.66666666666666L89,174.66666666666666L90,174.22222222222223L91,173.77777777777777L92,173.33333333333334L93,173.33333333333334L94,172.88888888888889L95,172.44444444444446L96,172L97,172L98,171.55555555555554L99,171.11111111111111L100,170.66666666666666L101,170.66666666666666L102,170.22222222222223L103,169.77777777777777L104,169.77777777777777L105,169.33333333333334L106,168.88888888888889L107,168.44444444444443L108,168.44444444444443L109.00000000000001,168L110.00000000000001,167.55555555555554L111.00000000000001,167.11111111111111L112.00000000000001,167.11111111111111L112.99999999999999,166.66666666666669L113.99999999999999,166.22222222222223L114.99999999999999,165.77777777777777L115.99999999999999,165.77777777777777L117,165.33333333333334L118,164.88888888888889L119,164.44444444444443L120,164.44444444444443L121,164L122,163.55555555555554L123,163.11111111111111L124,163.11111111111111L125,162.66666666666666L126,162.22222222222223L127,161.77777777777777L128,161.77777777777777L129,161.33333333333331L130,160.88888888888889L131,160.44444444444443L132,160.44444444444443L133,160L134,159.55555555555557L135,159.55555555555557L136,159.11111111111111L137,158.66666666666666L138,158.22222222222223L139,157.77777777777777L140,157.77777777777777L141,157.33333333333331L142,156.8888888888889L143,156.44444444444446L144,156.44444444444446L145,156L146,155.55555555555557L147,155.11111111111111L148,155.11111111111111L149,154.66666666666666L150,154.22222222222223L151,153.7777777777778L152,153.7777777777778L153,153.33333333333331L154,152.88888888888889L155,152.44444444444446L156,152.44444444444446L157,152L158,151.55555555555554L159,151.11111111111111L160,151.11111111111111L161,150.66666666666666L162,150.2222222222222L163,149.7777777777778L164,149.7777777777778L165,149.33333333333331L166,148.88888888888889L167,148.44444444444446L168,148.44444444444446L169,148L170,147.55555555555554L171,147.11111111111111L172,146.66666666666669L173,146.66666666666669L174,146.2222222222222L175,145.77777777777777L176,145.33333333333334L177,145.33333333333334L178,144.88888888888889L179,144.44444444444443L180,144L181,144L182,143.55555555555557L183,143.1111111111111L184,142.66666666666669L185,142.66666666666669L186,142.22222222222223L187,141.77777777777777L188,141.33333333333334L189,140.88888888888889L190,140.88888888888889L191,140.44444444444446L192,140L193,139.55555555555557L194,139.55555555555557L195,139.1111111111111L196,138.66666666666669L197,138.22222222222223L198,138.22222222222223L199,137.77777777777777L200,137.33333333333334" stroke="#f58518" stroke-width="2"/></g></g><path class="foreground" aria-hidden="true" d="" display="none"/></g><g transform="translate(0,0)"><path class="background" aria-hidden="true" d="M0,0h200v200h-200Z"/><g><g class="mark-line role-mark marks" role="graphics-object" aria-roledescription="line mark container"><path aria-label="D: 1; A: 2; p: 0.01" role="graphics-symbol" aria-roledescription="line mark" d="M1,199.11111111111111L2,199.11111111111111L3,199.11111111111111L4,198.66666666666666L5,198.66666666666666L6,198.66666666666666L7.000000000000001,198.66666666666666L8,198.22222222222223L9,198.22222222222223L10,198.22222222222223L11,198.22222222222223L12,197.77777777777777L13,197.77777777777777L14.000000000000002,197.77777777777777L15,197.33333333333334L16,197.33333333333334L17,196.88888888888889L18,196.88888888888889L19,196.88888888888889L20,196.44444444444446L21,196.44444444444446L22,196L23,196L24,195.55555555555554L25,195.55555555555554L26,195.11111111111111L27,195.11111111111111L28.000000000000004,194.66666666666669L28.999999999999996,194.66666666666669L30,194.22222222222223L31,193.77777777777777L32,193.77777777777777L33,193.33333333333334L34,193.33333333333334L35,192.88888888888889L36,192.88888888888889L37,192.44444444444443L38,192.44444444444443L39,192L40,191.55555555555554L41,191.55555555555554L42,191.11111111111111L43,191.11111111111111L44,190.66666666666669L45,190.22222222222223L46,190.22222222222223L47,189.77777777777777L48,189.77777777777777L49,189.33333333333334L50,188.88888888888889L51,188.88888888888889L52,188.44444444444443L53,188.44444444444443L54,188L55.00000000000001,187.55555555555557L56.00000000000001,187.55555555555557L56.99999999999999,187.11111111111111L57.99999999999999,186.66666666666666L59,186.66666666666666L60,186.22222222222223L61,186.22222222222223L62,185.77777777777777L63,185.33333333333331L64,185.33333333333331L65,184.88888888888889L66,184.44444444444446L67,184.44444444444446L68,184L69,183.55555555555557L70,183.55555555555557L71,183.11111111111111L72,182.66666666666666L73,182.66666666666666L74,182.22222222222223L75,181.77777777777777L76,181.77777777777777L77,181.33333333333331L78,180.88888888888889L79,180.88888888888889L80,180.44444444444446L81,180L82,180L83,179.55555555555554L84,179.55555555555554L85,179.11111111111111L86,178.66666666666666L87,178.22222222222223L88,178.22222222222223L89,177.77777777777777L90,177.33333333333334L91,177.33333333333334L92,176.88888888888889L93,176.44444444444446L94,176.44444444444446L95,176L96,175.55555555555554L97,175.55555555555554L98,175.11111111111111L99,174.66666666666666L100,174.66666666666666L101,174.22222222222223L102,173.77777777777777L103,173.77777777777777L104,173.33333333333334L105,172.88888888888889L106,172.88888888888889L107,172.44444444444446L108,172L109.00000000000001,171.55555555555554L110.00000000000001,171.55555555555554L111.00000000000001,171.11111111111111L112.00000000000001,170.66666666666666L112.99999999999999,170.66666666666666L113.99999999999999,170.22222222222223L114.99999999999999,169.77777777777777L115.99999999999999,169.77777777777777L117,169.33333333333334L118,168.88888888888889L119,168.88888888888889L120,168.44444444444443L121,168L122,167.55555555555554L123,167.55555555555554L124,167.11111111111111L125,166.66666666666669L126,166.66666666666669L127,166.22222222222223L128,165.77777777777777L129,165.77777777777777L130,165.33333333333334L131,164.88888888888889L132,164.44444444444443L133,164.44444444444443L134,164L135,163.55555555555554L136,163.55555555555554L137,163.11111111111111L138,162.66666666666666L139,162.22222222222223L140,162.22222222222223L141,161.77777777777777L142,161.33333333333331L143,161.33333333333331L144,160.88888888888889L145,160.44444444444443L146,160L147,160L148,159.55555555555557L149,159.11111111111111L150,159.11111111111111L151,158.66666666666666L152,158.22222222222223L153,157.77777777777777L154,157.77777777777777L155,157.33333333333331L156,156.8888888888889L157,156.8888888888889L158,156.44444444444446L159,156L160,155.55555555555557L161,155.55555555555557L162,155.11111111111111L163,154.66666666666666L164,154.66666666666666L165,154.22222222222223L166,153.7777777777778L167,153.33333333333331L168,153.33333333333331L169,152.88888888888889L170,152.44444444444446L171,152L172,152L173,151.55555555555554L174,151.11111111111111L175,151.11111111111111L176,150.66666666666666L177,150.2222222222222L178,149.7777777777778L179,149.7777777777778L180,149.33333333333331L181,148.88888888888889L182,148.44444444444446L183,148.44444444444446L184,148L185,147.55555555555554L186,147.55555555555554L187,147.11111111111111L188,146.66666666666669L189,146.2222222222222L190,146.2222222222222L191,145.77777777777777L192,145.33333333333334L193,144.88888888888889L194,144.88888888888889L195,144.44444444444443L196,144L197,144L198,143.55555555555557L199,143.1111111111111L200,142.66666666666669" stroke="#4c78a8" stroke-width="2"/></g></g><path class="foreground" aria-hidden="true" d="" display="none"/></g></g><g class="mark-group role-legend" role="graphics-symbol" aria-roledescription="legend" aria-label="Symbol legend titled 'p' for stroke color with 7 values: 0.01, 0.05, 0.25, 0.5, 0.75, 0.95, 0.99"><g transform="translate(220,0)"><path class="background" aria-hidden="true" d="M0,0h39v105h-39Z" pointer-events="none"/><g><g class="mark-group role-legend-entry"><g transform="translate(0,16)"><path class="background" aria-hidden="true" d="M0,0h0v0h0Z" pointer-events="none"/><g><g class="mark-group role-scope" role="graphics-object" aria-roledescription="group mark container"><g transform="translate(0,0)"><path class="background" aria-hidden="true" d="M0,0h38.28333282470703v11h-38.28333282470703Z" pointer-events="none" opacity="1"/><g><g class="mark-symbol role-legend-symbol" pointer-events="none"><path transform="translate(6,6)" d="M-5,0L5,0" stroke="#4c78a8" stroke-width="1.5" opacity="1"/></g><g class="mark-text role-legend-label" pointer-events="none"><text text-anchor="start" transform="translate(16,9)" font-family="sans-serif" font-size="10px" fill="#000" opacity="1">0.01</text></g></g><path class="foreground" aria-hidden="true" d="" pointer-events="none" display="none"/></g><g transform="translate(0,13)"><path class="background" aria-hidden="true" d="M0,0h38.28333282470703v11h-38.28333282470703Z" pointer-events="none" opacity="1"/><g><g class="mark-symbol role-legend-symbol" pointer-events="none"><path transform="translate(6,6)" d="M-5,0L5,0" stroke="#f58518" stroke-width="1.5" opacity="1"/></g><g class="mark-text role-legend-label" pointer-events="none"><text text-anchor="start" transform="translate(16,9)" font-family="sans-serif" font-size="10px" fill="#000" opacity="1">0.05</text></g></g><path class="foreground" aria-hidden="true" d="" pointer-events="none" display="none"/></g><g transform="translate(0,26)"><path class="background" aria-hidden="true" d="M0,0h38.28333282470703v11h-38.28333282470703Z" pointer-events="none" opacity="1"/><g><g class="mark-symbol role-legend-symbol" pointer-events="none"><path transform="translate(6,6)" d="M-5,0L5,0" stroke="#e45756" stroke-width="1.5" opacity="1"/></g><g class="mark-text role-legend-label" pointer-events="none"><text text-anchor="start" transform="translate(16,9)" font-family="sans-serif" font-size="10px" fill="#000" opacity="1">0.25</text></g></g><path class="foreground" aria-hidden="true" d="" pointer-events="none" display="none"/></g><g transform="translate(0,39)"><path class="background" aria-hidden="true" d="M0,0h38.28333282470703v11h-38.28333282470703Z" pointer-events="none" opacity="1"/><g><g class="mark-symbol role-legend-symbol" pointer-events="none"><path transform="translate(6,6)" d="M-5,0L5,0" stroke="#72b7b2" stroke-width="1.5" opacity="1"/></g><g class="mark-text role-legend-label" pointer-events="none"><text text-anchor="start" transform="translate(16,9)" font-family="sans-serif" font-size="10px" fill="#000" opacity="1">0.5</text></g></g><path class="foreground" aria-hidden="true" d="" pointer-events="none" display="none"/></g><g transform="translate(0,52)"><path class="background" aria-hidden="true" d="M0,0h38.28333282470703v11h-38.28333282470703Z" pointer-events="none" opacity="1"/><g><g class="mark-symbol role-legend-symbol" pointer-events="none"><path transform="translate(6,6)" d="M-5,0L5,0" stroke="#54a24b" stroke-width="1.5" opacity="1"/></g><g class="mark-text role-legend-label" pointer-events="none"><text text-anchor="start" transform="translate(16,9)" font-family="sans-serif" font-size="10px" fill="#000" opacity="1">0.75</text></g></g><path class="foreground" aria-hidden="true" d="" pointer-events="none" display="none"/></g><g transform="translate(0,65)"><path class="background" aria-hidden="true" d="M0,0h38.28333282470703v11h-38.28333282470703Z" pointer-events="none" opacity="1"/><g><g class="mark-symbol role-legend-symbol" pointer-events="none"><path transform="translate(6,6)" d="M-5,0L5,0" stroke="#eeca3b" stroke-width="1.5" opacity="1"/></g><g class="mark-text role-legend-label" pointer-events="none"><text text-anchor="start" transform="translate(16,9)" font-family="sans-serif" font-size="10px" fill="#000" opacity="1">0.95</text></g></g><path class="foreground" aria-hidden="true" d="" pointer-events="none" display="none"/></g><g transform="translate(0,78)"><path class="background" aria-hidden="true" d="M0,0h38.28333282470703v11h-38.28333282470703Z" pointer-events="none" opacity="1"/><g><g class="mark-symbol role-legend-symbol" pointer-events="none"><path transform="translate(6,6)" d="M-5,0L5,0" stroke="#b279a2" stroke-width="1.5" opacity="1"/></g><g class="mark-text role-legend-label" pointer-events="none"><text text-anchor="start" transform="translate(16,9)" font-family="sans-serif" font-size="10px" fill="#000" opacity="1">0.99</text></g></g><path class="foreground" aria-hidden="true" d="" pointer-events="none" display="none"/></g></g></g><path class="foreground" aria-hidden="true" d="" pointer-events="none" display="none"/></g></g><g class="mark-text role-legend-title" pointer-events="none"><text text-anchor="start" transform="translate(0,9)" font-family="sans-serif" font-size="11px" font-weight="bold" fill="#000" opacity="1">p</text></g></g><path class="foreground" aria-hidden="true" d="" pointer-events="none" display="none"/></g></g></g><path class="foreground" aria-hidden="true" d="" display="none"/></g></g></g></svg>