<svg xmlns="http://www.w3.org/2000/svg" xmlns:xlink="http://www.w3.org/1999/xlink" version="1.1" class="marks" width="298" height="247" viewBox="0 0 298 247"><rect width="298" height="247" fill="white"/><g fill="none" stroke-miterlimit="10" transform="translate(34,10)"><g class="mark-group role-frame root" role="graphics-object" aria-roledescription="group mark container"><g transform="translate(0,0)"><path class="background" aria-hidden="true" d="M0.5,0.5h200v200h-200Z" stroke="#ddd"/><g><g class="mark-group role-axis" aria-hidden="true"><g transform="translate(0.5,200.5)"><path class="background" aria-hidden="true" d="M0,0h0v0h0Z" pointer-events="none"/><g><g class="mark-rule role-axis-grid" pointer-events="none"><line transform="translate(0,-200)" x2="0" y2="200" stroke="#ddd" stroke-width="1" opacity="1"/><line transform="translate(50,-200)" x2="0" y2="200" stroke="#ddd" stroke-width="1" opacity="1"/><line transform="translate(100,-200)" x2="0" y2="200" stroke="#ddd" stroke-width="1" opacity="1"/><line transform="translate(150,-200)" x2="0" y2="200" stroke="#ddd" stroke-width="1" opacity="1"/><line transform="translate(200,-200)" x2="0" y2="200" stroke="#ddd" stroke-width="1" opacity="1"/></g></g><path class="foreground" aria-hidden="true" d="" pointer-events="none" display="none"/></g></g><g class="mark-group role-axis" aria-hidden="true"><g transform="translate(0.5,0.5)"><path class="background" aria-hidden="true" d="M0,0h0v0h0Z" pointer-events="none"/><g><g class="mark-rule role-axis-grid" pointer-events="none"><line transform="translate(0,200)" x2="200" y2="0" stroke="#ddd" stroke-width="1" opacity="1"/><line transform="translate(0,171)" x2="200" y2="0" stroke="#ddd" stroke-width="1" opacity="1"/><line transform="translate(0,143)" x2="200" y2="0" stroke="#ddd" stroke-width="1" opacity="1"/><line transform="translate(0,114)" x2="200" y2="0" stroke="#ddd" stroke-width="1" opacity="1"/><line transform="translate(0,86)" x2="200" y2="0" stroke="#ddd" stroke-width="1" opacity="1"/><line transform="translate(0,57)" x2="200" y2="0" stroke="#ddd" stroke-width="1" opacity="1"/><line transform="translate(0,29)" x2="200" y2="0" stroke="#ddd" stroke-width="1" opacity="1"/><line transform="translate(0,0)" x2="200" y2="0" stroke="#ddd" stroke-width="1" opacity="1"/></g></g><path class="foreground" aria-hidden="true" d="" pointer-events="none" display="none"/></g></g><g class="mark-group role-axis" role="graphics-symbol" aria-roledescription="axis" aria-label="X-axis titled 'D' for a linear scale with values from 0 to 200"><g transform="translate(0.5,200.5)"><path class="background" aria-hidden="true" d="M0,0h0v0h0Z" pointer-events="none"/><g><g class="mark-rule role-axis-tick" pointer-events="none"><line transform="translate(0,0)" x2="0" y2="5" stroke="#888" stroke-width="1" opacity="1"/><line transform="translate(50,0)" x2="0" y2="5" stroke="#888" stroke-width="1" opacity="1"/><line transform="translate(100,0)" x2="0" y2="5" stroke="#888" stroke-width="1" opacity="1"/><line transform="translate(150,0)" x2="0" y2="5" stroke="#888" stroke-width="1" opacity="1"/><line transform="translate(200,0)" x2="0" y2="5" stroke="#888" stroke-width="1" opacity="1"/></g><g class="mark-text role-axis-label" pointer-events="none"><text text-anchor="start" transform="translate(0,15)" font-family="sans-serif" font-size="10px" fill="#000" opacity="1">1</text><text text-anchor="middle" transform="translate(50,15)" font-family="sans-serif" font-size="10px" fill="#000" opacity="1">50</text><text text-anchor="middle" transform="translate(100,15)" font-family="sans-serif" font-size="10px" fill="#000" opacity="1">100</text><text text-anchor="middle" transform="translate(150,15)" font-family="sans-serif" font-size="10px" fill="#000" opacity="1">150</text><text text-anchor="end" transform="translate(200,15)" font-family="sans-serif" font-size="10px" fill="#000" opacity="1">200</text></g><g class="mark-rule role-axis-domain" pointer-events="none"><line transform="translate(0,0)" x2="200" y2="0" stroke="#888" stroke-width="1" opacity="1"/></g><g class="mark-text role-axis-title" pointer-events="none"><text text-anchor="middle" transform="translate(100,30)" font-family="sans-serif" font-size="11px" font-weight="bold" fill="#000" opacity="1">D</text></g></g><path class="foreground" aria-hidden="true" d="" pointer-events="none" display="none"/></g></g><g class="mark-group role-axis" role="graphics-symbol" aria-roledescription="axis" aria-label="Y-axis titled 'A / D' for a linear scale with values from 0 to 7"><g transform="translate(0.5,0.5)"><path class="background" aria-hidden="true" d="M0,0h0v0h0Z" pointer-events="none"/><g><g class="mark-rule role-axis-tick" pointer-events="none"><line transform="translate(0,200)" x2="-5" y2="0" stroke="#888" stroke-width="1" opacity="1"/><line transform="translate(0,171)" x2="-5" y2="0" stroke="#888" stroke-width="1" opacity="1"/><line transform="translate(0,143)" x2="-5" y2="0" stroke="#888" stroke-width="1" opacity="1"/><line transform="translate(0,114)" x2="-5" y2="0" stroke="#888" stroke-width="1" opacity="1"/><line transform="translate(0,86)" x2="-5" y2="0" stroke="#888" stroke-width="1" opacity="1"/><line transform="translate(0,57)" x2="-5" y2="0" stroke="#888" stroke-width="1" opacity="1"/><line transform="translate(0,29)" x2="-5" y2="0" stroke="#888" stroke-width="1" opacity="1"/><line transform="translate(0,0)" x2="-5" y2="0" stroke="#888" stroke-width="1" opacity="1"/></g><g class="mark-text role-axis-label" pointer-events="none"><text text-anchor="end" transform="translate(-7,203)" font-family="sans-serif" font-size="10px" fill="#000" opacity="1">0</text><text text-anchor="end" transform="translate(-7,174.42857142857144)" font-family="sans-serif" font-size="10px" fill="#000" opacity="1">1</text><text text-anchor="end" transform="translate(-7,145.85714285714286)" font-family="sans-serif" font-size="10px" fill="#000" opacity="1">2</text><text text-anchor="end" transform="translate(-7,117.28571428571428)" font-family="sans-serif" font-size="10px" fill="#000" opacity="1">3</text><text text-anchor="end" transform="translate(-7,88.71428571428572)" font-family="sans-serif" font-size="10px" fill="#000" opacity="1">4</text><text text-anchor="end" transform="translate(-7,60.14285714285714)" font-family="sans-serif" font-size="10px" fill="#000" opacity="1">5</text><text text-anchor="end" transform="translate(-7,31.57142857142858)" font-family="sans-serif" font-size="10px" fill="#000" opacity="1">6</text><text text-anchor="end" transform="translate(-7,3)" font-family="sans-serif" font-size="10px" fill="#000" opacity="1">7</text></g><g class="mark-rule role-axis-domain" pointer-events="none"><line transform="translate(0,200)" x2="0" y2="-200" stroke="#888" stroke-width="1" opacity="1"/></g><g class="mark-text role-axis-title" pointer-events="none"><text text-anchor="middle" transform="translate(-17.366666793823242,100) rotate(-90) translate(0,-2)" font-family="sans-serif" font-size="11px" font-weight="bold" fill="#000" opacity="1">A / D</text></g></g><path class="foreground" aria-hidden="true" d="" pointer-events="none" display="none"/></g></g><g class="mark-group role-scope pathgroup" role="graphics-object" aria-roledescription="group mark container"><g transform="translate(0,0)"><path class="background" aria-hidden="true" d="M0,0h200v200h-200Z"/><g><g class="mark-line role-mark marks" role="graphics-object" aria-roledescription="line mark container"><path aria-label="D: 1; A / D: 6; p: 0.99" role="graphics-symbol" aria-roledescription="line mark" d="M1,28.57142857142858L2,57.14285714285714L3,76.2L4,92.85714285714286L5,108.57142857142857L6,114.28571428571428L7.000000000000001,118.37142857142857L8,125L9,126.97142857142856L10,131.42857142857142L11,135.05714285714285L12,135.71428571428572L13,138.45714285714286L14.000000000000002,138.7714285714286L15,140.94285714285712L16,142.85714285714286L17,144.54285714285712L18,144.45714285714286L19,145.85714285714286L20,147.14285714285717L21,148.28571428571428L22,148.05714285714285L23,149.05714285714288L24,150L25,150.85714285714283L26,151.65714285714284L27,151.31428571428572L28.000000000000004,152.0285714285714L28.999999999999996,152.71428571428572L30,153.34285714285713L31,153.9142857142857L32,153.57142857142856L33,154.11428571428573L34,154.62857142857143L35,155.11428571428573L36,155.54285714285714L37,155.97142857142856L38,156.4L39,156.77142857142857L40,156.42857142857142L41,156.8L42,157.14285714285714L43,157.48571428571427L44,157.79999999999998L45,158.0857142857143L46,158.37142857142857L47,158.65714285714284L48,158.34285714285713L49,158.6L50,158.85714285714286L51,159.11428571428573L52,159.34285714285716L53,159.57142857142856L54,159.79999999999998L55.00000000000001,160L56.00000000000001,160.2L56.99999999999999,160.4L57.99999999999999,160.6L59,160.77142857142857L60,160.94285714285715L61,160.65714285714284L62,160.82857142857142L63,161L64,161.17142857142858L65,161.3142857142857L66,161.48571428571427L67,161.62857142857143L68,161.77142857142857L69,161.9142857142857L70,162.02857142857144L71,162.17142857142858L72,162.31428571428572L73,162.42857142857144L74,162.54285714285714L75,162.65714285714284L76,162.77142857142857L77,162.5142857142857L78,162.62857142857143L79,162.74285714285713L80,162.85714285714286L81,162.97142857142856L82,163.05714285714285L83,163.17142857142858L84,163.25714285714287L85,163.37142857142857L86,163.45714285714286L87,163.54285714285714L88,163.62857142857143L89,163.7142857142857L90,163.79999999999998L91,163.88571428571427L92,163.97142857142856L93,164.05714285714285L94,164.14285714285714L95,164.2L96,164.28571428571428L97,164.37142857142857L98,164.42857142857142L99,164.5142857142857L100,164.57142857142856L101,164.62857142857143L102,164.71428571428572L103,164.77142857142857L104,164.82857142857142L105,164.88571428571427L106,164.97142857142856L107,165.02857142857144L108,165.0857142857143L109.00000000000001,165.14285714285714L110.00000000000001,165.20000000000002L111.00000000000001,165.25714285714287L112.00000000000001,165.3142857142857L112.99999999999999,165.37142857142857L113.99999999999999,165.17142857142858L114.99999999999999,165.2285714285714L115.99999999999999,165.25714285714287L117,165.3142857142857L118,165.37142857142857L119,165.42857142857144L120,165.48571428571427L121,165.51428571428573L122,165.57142857142856L123,165.6285714285714L124,165.65714285714284L125,165.7142857142857L126,165.77142857142857L127,165.79999999999998L128,165.85714285714286L129,165.88571428571427L130,165.94285714285715L131,165.97142857142856L132,166.0285714285714L133,166.05714285714285L134,166.0857142857143L135,166.14285714285714L136,166.17142857142858L137,166.22857142857143L138,166.25714285714287L139,166.28571428571428L140,166.31428571428572L141,166.37142857142857L142,166.4L143,166.42857142857142L144,166.45714285714286L145,166.5142857142857L146,166.54285714285714L147,166.57142857142858L148,166.6L149,166.62857142857143L150,166.65714285714287L151,166.68571428571428L152,166.74285714285716L153,166.77142857142857L154,166.8L155,167L156,167.02857142857144L157,167.05714285714285L158,167.0857142857143L159,167.11428571428573L160,167.14285714285714L161,167.17142857142858L162,167.20000000000002L163,167.22857142857143L164,167.25714285714287L165,167.28571428571428L166,167.28571428571428L167,167.31428571428572L168,167.34285714285716L169,167.37142857142857L170,167.4L171,167.42857142857144L172,167.42857142857144L173,167.45714285714286L174,167.4857142857143L175,167.51428571428573L176,167.54285714285714L177,167.54285714285714L178,167.57142857142858L179,167.60000000000002L180,167.6285714285714L181,167.6285714285714L182,167.65714285714287L183,167.68571428571428L184,167.7142857142857L185,167.7142857142857L186,167.74285714285716L187,167.77142857142857L188,167.77142857142857L189,167.79999999999998L190,167.82857142857145L191,167.82857142857145L192,167.85714285714286L193,167.88571428571427L194,167.88571428571427L195,167.91428571428574L196,167.94285714285712L197,167.94285714285712L198,167.97142857142856L199,167.97142857142856L200,168" stroke="#b279a2" stroke-width="2"/></g></g><path class="foreground" aria-hidden="true" d="" display="none"/></g><g transform="translate(0,0)"><path class="background" aria-hidden="true" d="M0,0h200v200h-200Z"/><g><g class="mark-line role-mark marks" role="graphics-object" aria-roledescription="line mark container"><path aria-label="D: 1; A / D: 5; p: 0.95" role="graphics-symbol" aria-roledescription="line mark" d="M1,57.14285714285714L2,85.71428571428572L3,104.77142857142856L4,121.42857142857144L5,125.71428571428571L6,133.34285714285713L7.000000000000001,134.6857142857143L8,139.28571428571428L9,142.85714285714286L10,145.71428571428572L11,145.45714285714286L12,147.62857142857143L13,149.45714285714286L14.000000000000002,151.0285714285714L15,152.37142857142857L16,151.77142857142857L17,152.94285714285712L18,153.97142857142856L19,154.8857142857143L20,155.71428571428572L21,156.45714285714286L22,155.85714285714286L23,156.5142857142857L24,157.14285714285714L25,157.71428571428572L26,158.22857142857143L27,158.74285714285713L28.000000000000004,159.17142857142858L28.999999999999996,159.60000000000002L30,160L31,160.37142857142857L32,160.71428571428572L33,161.02857142857144L34,161.34285714285716L35,160.82857142857142L36,161.11428571428573L37,161.39999999999998L38,161.65714285714284L39,161.9142857142857L40,162.14285714285714L41,162.37142857142857L42,162.57142857142856L43,162.8L44,163L45,163.17142857142858L46,163.34285714285716L47,163.51428571428573L48,163.6857142857143L49,163.85714285714286L50,164L51,164.14285714285714L52,164.28571428571428L53,164.42857142857142L54,164.54285714285714L55.00000000000001,164.68571428571428L56.00000000000001,164.8L56.99999999999999,164.9142857142857L57.99999999999999,165.02857142857144L59,165.14285714285714L60,165.2285714285714L61,165.34285714285716L62,165.42857142857144L63,165.54285714285714L64,165.6285714285714L65,165.7142857142857L66,165.79999999999998L67,165.88571428571427L68,165.97142857142856L69,166.05714285714285L70,166.1142857142857L71,166.2L72,166.25714285714287L73,166.34285714285716L74,166.4L75,166.4857142857143L76,166.54285714285714L77,166.6L78,166.65714285714287L79,166.71428571428572L80,166.77142857142857L81,166.85714285714286L82,166.88571428571427L83,166.94285714285715L84,167L85,167.05714285714285L86,167.11428571428573L87,167.17142857142858L88,167.20000000000002L89,167.25714285714287L90,167.31428571428572L91,167.34285714285716L92,167.4L93,167.42857142857144L94,167.4857142857143L95,167.51428571428573L96,167.57142857142858L97,167.60000000000002L98,167.6285714285714L99,167.68571428571428L100,167.7142857142857L101,167.74285714285716L102,167.79999999999998L103,167.82857142857145L104,167.85714285714286L105,167.88571428571427L106,167.91428571428574L107,167.97142857142856L108,168L109.00000000000001,168.0285714285714L110.00000000000001,168.05714285714285L111.00000000000001,168.34285714285713L112.00000000000001,168.37142857142857L112.99999999999999,168.4L113.99999999999999,168.42857142857142L114.99999999999999,168.45714285714286L115.99999999999999,168.4857142857143L117,168.4857142857143L118,168.5142857142857L119,168.54285714285714L120,168.57142857142858L121,168.6L122,168.62857142857143L123,168.62857142857143L124,168.65714285714287L125,168.68571428571428L126,168.71428571428572L127,168.74285714285713L128,168.74285714285713L129,168.77142857142857L130,168.79999999999998L131,168.79999999999998L132,168.82857142857142L133,168.85714285714286L134,168.85714285714286L135,168.88571428571427L136,168.9142857142857L137,168.9142857142857L138,169.14285714285714L139,169.17142857142858L140,169.17142857142858L141,169.2L142,169.22857142857143L143,169.22857142857143L144,169.25714285714287L145,169.25714285714287L146,169.28571428571428L147,169.28571428571428L148,169.31428571428572L149,169.31428571428572L150,169.34285714285716L151,169.34285714285716L152,169.37142857142857L153,169.37142857142857L154,169.4L155,169.4L156,169.4L157,169.42857142857144L158,169.6285714285714L159,169.6285714285714L160,169.6285714285714L161,169.65714285714287L162,169.65714285714287L163,169.68571428571428L164,169.68571428571428L165,169.68571428571428L166,169.7142857142857L167,169.7142857142857L168,169.7142857142857L169,169.74285714285716L170,169.74285714285716L171,169.77142857142857L172,169.77142857142857L173,169.77142857142857L174,169.79999999999998L175,169.79999999999998L176,169.79999999999998L177,169.97142857142856L178,169.97142857142856L179,170L180,170L181,170L182,170.0285714285714L183,170.0285714285714L184,170.0285714285714L185,170.0285714285714L186,170.05714285714285L187,170.05714285714285L188,170.05714285714285L189,170.05714285714285L190,170.0857142857143L191,170.0857142857143L192,170.0857142857143L193,170.25714285714287L194,170.25714285714287L195,170.25714285714287L196,170.25714285714287L197,170.25714285714287L198,170.28571428571428L199,170.28571428571428L200,170.28571428571428" stroke="#eeca3b" stroke-width="2"/></g></g><path class="foreground" aria-hidden="true" d="" display="none"/></g><g transform="translate(0,0)"><path class="background" aria-hidden="true" d="M0,0h200v200h-200Z"/><g><g class="mark-line role-mark marks" role="graphics-object" aria-roledescription="line mark container"><path aria-label="D: 1; A / D: 3; p: 0.75" role="graphics-symbol" aria-roledescription="line mark" d="M1,114.28571428571428L2,128.57142857142856L3,142.85714285714286L4,142.85714285714286L5,148.57142857142858L6,152.37142857142857L7.000000000000001,155.11428571428573L8,157.14285714285714L9,158.74285714285713L10,160L11,161.02857142857144L12,161.9142857142857L13,162.62857142857143L14.000000000000002,163.25714285714287L15,163.79999999999998L16,164.28571428571428L17,164.71428571428572L18,165.0857142857143L19,165.39999999999998L20,165.7142857142857L21,166L22,166.22857142857143L23,166.45714285714286L24,166.65714285714287L25,166.85714285714286L26,167.02857142857144L27,168.25714285714287L28.000000000000004,168.37142857142857L28.999999999999996,168.4857142857143L30,168.57142857142858L31,168.65714285714287L32,168.74285714285713L33,168.82857142857142L34,168.9142857142857L35,168.97142857142856L36,169.05714285714285L37,169.11428571428573L38,169.17142857142858L39,169.22857142857143L40,169.28571428571428L41,169.34285714285716L42,169.4L43,170.0857142857143L44,170.14285714285714L45,170.17142857142858L46,170.2L47,170.2L48,170.22857142857143L49,170.25714285714287L50,170.28571428571428L51,170.31428571428572L52,170.34285714285713L53,170.34285714285713L54,170.37142857142857L55.00000000000001,170.4L56.00000000000001,170.4L56.99999999999999,170.9142857142857L57.99999999999999,170.94285714285715L59,170.94285714285715L60,170.94285714285715L61,170.97142857142856L62,170.97142857142856L63,170.97142857142856L64,170.97142857142856L65,171L66,171L67,171L68,171.42857142857144L69,171.42857142857144L70,171.42857142857144L71,171.42857142857144L72,171.42857142857144L73,171.42857142857144L74,171.42857142857144L75,171.42857142857144L76,171.42857142857144L77,171.42857142857144L78,171.42857142857144L79,171.42857142857144L80,171.77142857142857L81,171.77142857142857L82,171.77142857142857L83,171.77142857142857L84,171.77142857142857L85,171.77142857142857L86,171.77142857142857L87,171.74285714285716L88,171.74285714285716L89,171.74285714285716L90,172.05714285714288L91,172.05714285714288L92,172.05714285714288L93,172.05714285714288L94,172.0285714285714L95,172.0285714285714L96,172.0285714285714L97,172.0285714285714L98,172L99,172L100,172L101,172.28571428571428L102,172.25714285714287L103,172.25714285714287L104,172.25714285714287L105,172.25714285714287L106,172.22857142857146L107,172.22857142857146L108,172.22857142857146L109.00000000000001,172.22857142857146L110.00000000000001,172.2L111.00000000000001,172.45714285714286L112.00000000000001,172.45714285714286L112.99999999999999,172.42857142857142L113.99999999999999,172.42857142857142L114.99999999999999,172.42857142857142L115.99999999999999,172.4L117,172.4L118,172.4L119,172.4L120,172.37142857142857L121,172.6L122,172.6L123,172.6L124,172.57142857142858L125,172.57142857142858L126,172.57142857142858L127,172.54285714285714L128,172.54285714285714L129,172.54285714285714L130,172.74285714285713L131,172.74285714285713L132,172.71428571428572L133,172.71428571428572L134,172.71428571428572L135,172.68571428571428L136,172.68571428571428L137,172.68571428571428L138,172.65714285714287L139,172.65714285714287L140,172.85714285714286L141,172.85714285714286L142,172.82857142857142L143,172.82857142857142L144,172.82857142857142L145,172.8L146,172.8L147,172.8L148,172.77142857142857L149,172.9714285714286L150,172.94285714285715L151,172.94285714285715L152,172.94285714285715L153,172.9142857142857L154,172.9142857142857L155,172.9142857142857L156,172.8857142857143L157,172.8857142857143L158,172.8857142857143L159,173.05714285714288L160,173.02857142857144L161,173.02857142857144L162,173.02857142857144L163,173L164,173L165,173L166,172.9714285714286L167,172.9714285714286L168,173.14285714285714L169,173.1142857142857L170,173.1142857142857L171,173.0857142857143L172,173.0857142857143L173,173.0857142857143L174,173.05714285714288L175,173.05714285714288L176,173.05714285714288L177,173.2L178,173.2L179,173.17142857142858L180,173.17142857142858L181,173.17142857142858L182,173.14285714285714L183,173.14285714285714L184,173.14285714285714L185,173.1142857142857L186,173.28571428571428L187,173.25714285714287L188,173.25714285714287L189,173.22857142857143L190,173.22857142857143L191,173.22857142857143L192,173.2L193,173.2L194,173.2L195,173.2L196,173.31428571428572L197,173.31428571428572L198,173.31428571428572L199,173.28571428571428L200,173.28571428571428" stroke="#54a24b" stroke-width="2"/></g></g><path class="foreground" aria-hidden="true" d="" display="none"/></g><g transform="translate(0,0)"><path class="background" aria-hidden="true" d="M0,0h200v200h-200Z"/><g><g class="mark-line role-mark marks" role="graphics-object" aria-roledescription="line mark container"><path aria-label="D: 1; A / D: 3; p: 0.5" role="graphics-symbol" aria-roledescription="line mark" d="M1,114.28571428571428L2,142.85714285714286L3,152.37142857142857L4,157.14285714285714L5,165.7142857142857L6,166.65714285714287L7.000000000000001,167.34285714285716L8,167.85714285714286L9,168.25714285714287L10,168.57142857142858L11,168.82857142857142L12,171.42857142857144L13,171.42857142857144L14.000000000000002,171.42857142857144L15,171.42857142857144L16,171.42857142857144L17,171.42857142857144L18,171.42857142857144L19,172.94285714285715L20,172.85714285714286L21,172.8L22,172.71428571428572L23,172.65714285714287L24,172.62857142857143L25,172.57142857142858L26,173.62857142857143L27,173.54285714285714L28.000000000000004,173.45714285714286L28.999999999999996,173.4L30,173.34285714285716L31,173.28571428571428L32,173.2L33,174.0285714285714L34,173.94285714285712L35,173.8857142857143L36,173.8L37,173.74285714285716L38,173.68571428571428L39,174.37142857142857L40,174.28571428571428L41,174.22857142857143L42,174.14285714285717L43,174.0857142857143L44,174.0285714285714L45,173.9714285714286L46,174.54285714285714L47,174.45714285714286L48,174.4L49,174.34285714285713L50,174.28571428571428L51,174.22857142857143L52,174.17142857142858L53,174.65714285714284L54,174.6L55.00000000000001,174.54285714285714L56.00000000000001,174.4857142857143L56.99999999999999,174.42857142857142L57.99999999999999,174.37142857142857L59,174.34285714285713L60,174.77142857142857L61,174.71428571428572L62,174.65714285714284L63,174.6L64,174.54285714285714L65,174.5142857142857L66,174.45714285714286L67,174.82857142857142L68,174.8L69,174.74285714285713L70,174.68571428571428L71,174.65714285714284L72,174.6L73,174.57142857142858L74,174.9142857142857L75,174.85714285714286L76,174.8L77,174.77142857142857L78,174.71428571428572L79,174.68571428571428L80,175L81,174.94285714285715L82,174.9142857142857L83,174.85714285714286L84,174.82857142857142L85,174.8L86,174.74285714285713L87,175.0285714285714L88,175L89,174.9714285714286L90,174.9142857142857L91,174.8857142857143L92,174.85714285714286L93,174.8L94,175.0857142857143L95,175.0285714285714L96,175L97,174.9714285714286L98,174.9142857142857L99,174.8857142857143L100,174.85714285714286L101,175.1142857142857L102,175.05714285714288L103,175.0285714285714L104,175L105,174.9714285714286L106,174.94285714285715L107,174.8857142857143L108,175.14285714285714L109.00000000000001,175.0857142857143L110.00000000000001,175.05714285714288L111.00000000000001,175.0285714285714L112.00000000000001,175L112.99999999999999,174.9714285714286L113.99999999999999,174.94285714285715L114.99999999999999,175.14285714285714L115.99999999999999,175.1142857142857L117,175.0857142857143L118,175.05714285714288L119,175.0285714285714L120,175L121,175.2L122,175.17142857142858L123,175.14285714285714L124,175.1142857142857L125,175.0857142857143L126,175.05714285714288L127,175.0285714285714L128,175.22857142857143L129,175.2L130,175.17142857142858L131,175.14285714285714L132,175.1142857142857L133,175.0857142857143L134,175.05714285714288L135,175.22857142857143L136,175.2L137,175.17142857142858L138,175.14285714285714L139,175.1142857142857L140,175.1142857142857L141,175.0857142857143L142,175.25714285714287L143,175.22857142857143L144,175.2L145,175.17142857142858L146,175.14285714285714L147,175.1142857142857L148,175.28571428571428L149,175.25714285714287L150,175.22857142857143L151,175.2L152,175.2L153,175.17142857142858L154,175.14285714285714L155,175.1142857142857L156,175.28571428571428L157,175.25714285714287L158,175.22857142857143L159,175.2L160,175.17142857142858L161,175.14285714285714L162,175.31428571428572L163,175.28571428571428L164,175.25714285714287L165,175.22857142857143L166,175.22857142857143L167,175.2L168,175.17142857142858L169,175.31428571428572L170,175.28571428571428L171,175.28571428571428L172,175.25714285714287L173,175.22857142857143L174,175.2L175,175.17142857142858L176,175.31428571428572L177,175.31428571428572L178,175.28571428571428L179,175.25714285714287L180,175.22857142857143L181,175.22857142857143L182,175.2L183,175.34285714285713L184,175.31428571428572L185,175.28571428571428L186,175.25714285714287L187,175.25714285714287L188,175.22857142857143L189,175.37142857142857L190,175.34285714285713L191,175.31428571428572L192,175.28571428571428L193,175.28571428571428L194,175.25714285714287L195,175.22857142857143L196,175.37142857142857L197,175.34285714285713L198,175.31428571428572L199,175.31428571428572L200,175.28571428571428" stroke="#72b7b2" stroke-width="2"/></g></g><path class="foreground" aria-hidden="true" d="" display="none"/></g><g transform="translate(0,0)"><path class="background" aria-hidden="true" d="M0,0h200v200h-200Z"/><g><g class="mark-line role-mark marks" role="graphics-object" aria-roledescription="line mark container"><path aria-label="D: 1; A / D: 2; p: 0.25" role="graphics-symbol" aria-roledescription="line mark" d="M1,142.85714285714286L2,157.14285714285714L3,161.9142857142857L4,171.42857142857144L5,171.42857142857144L6,176.2L7.000000000000001,175.5142857142857L8,175L9,177.77142857142857L10,177.14285714285714L11,176.62857142857143L12,176.2L13,178.0285714285714L14.000000000000002,177.54285714285714L15,177.14285714285714L16,178.57142857142858L17,178.14285714285714L18,177.77142857142857L19,177.45714285714286L20,178.57142857142858L21,178.22857142857143L22,177.9142857142857L23,177.62857142857143L24,178.57142857142858L25,178.28571428571428L26,178.0285714285714L27,177.77142857142857L28.000000000000004,178.57142857142858L28.999999999999996,178.31428571428572L30,178.0857142857143L31,177.8857142857143L32,178.57142857142858L33,178.34285714285713L34,178.14285714285714L35,177.9714285714286L36,178.57142857142858L37,178.37142857142857L38,178.2L39,178.0285714285714L40,177.85714285714283L41,178.4L42,178.22857142857143L43,178.0857142857143L44,177.9142857142857L45,178.4L46,178.25714285714284L47,178.1142857142857L48,177.9714285714286L49,177.82857142857142L50,178.28571428571428L51,178.14285714285714L52,178.0285714285714L53,177.8857142857143L54,178.31428571428572L55.00000000000001,178.17142857142858L56.00000000000001,178.05714285714285L56.99999999999999,177.94285714285712L57.99999999999999,177.82857142857142L59,178.2L60,178.0857142857143L61,178L62,177.8857142857143L63,177.77142857142857L64,178.1142857142857L65,178.0285714285714L66,177.9142857142857L67,177.82857142857142L68,177.74285714285713L69,178.05714285714285L70,177.9714285714286L71,177.85714285714283L72,177.77142857142857L73,177.68571428571428L74,178L75,177.9142857142857L76,177.82857142857142L77,177.74285714285713L78,178.0285714285714L79,177.94285714285712L80,177.85714285714283L81,177.77142857142857L82,177.71428571428572L83,177.62857142857143L84,177.8857142857143L85,177.82857142857142L86,177.74285714285713L87,177.65714285714284L88,177.9142857142857L89,177.85714285714283L90,177.77142857142857L91,177.71428571428572L92,177.62857142857143L93,177.57142857142858L94,177.8L95,177.74285714285713L96,177.68571428571428L97,177.6L98,177.54285714285714L99,177.77142857142857L100,177.71428571428572L101,177.65714285714284L102,177.6L103,177.54285714285714L104,177.74285714285713L105,177.68571428571428L106,177.62857142857143L107,177.57142857142858L108,177.5142857142857L109.00000000000001,177.71428571428572L110.00000000000001,177.65714285714284L111.00000000000001,177.6L112.00000000000001,177.54285714285714L112.99999999999999,177.4857142857143L113.99999999999999,177.68571428571428L114.99999999999999,177.62857142857143L115.99999999999999,177.6L117,177.54285714285714L118,177.4857142857143L119,177.65714285714284L120,177.62857142857143L121,177.57142857142858L122,177.5142857142857L123,177.45714285714286L124,177.42857142857142L125,177.6L126,177.54285714285714L127,177.5142857142857L128,177.45714285714286L129,177.4L130,177.57142857142858L131,177.54285714285714L132,177.4857142857143L133,177.45714285714286L134,177.4L135,177.57142857142858L136,177.5142857142857L137,177.4857142857143L138,177.42857142857142L139,177.4L140,177.54285714285714L141,177.5142857142857L142,177.45714285714286L143,177.42857142857142L144,177.37142857142857L145,177.34285714285713L146,177.4857142857143L147,177.45714285714286L148,177.4L149,177.37142857142857L150,177.34285714285713L151,177.4857142857143L152,177.45714285714286L153,177.4L154,177.37142857142857L155,177.31428571428572L156,177.4857142857143L157,177.42857142857142L158,177.4L159,177.37142857142857L160,177.31428571428572L161,177.28571428571428L162,177.42857142857142L163,177.4L164,177.34285714285713L165,177.31428571428572L166,177.28571428571428L167,177.42857142857142L168,177.37142857142857L169,177.34285714285713L170,177.31428571428572L171,177.28571428571428L172,177.4L173,177.37142857142857L174,177.34285714285713L175,177.31428571428572L176,177.28571428571428L177,177.22857142857143L178,177.37142857142857L179,177.34285714285713L180,177.31428571428572L181,177.25714285714284L182,177.22857142857143L183,177.37142857142857L184,177.34285714285713L185,177.28571428571428L186,177.25714285714284L187,177.22857142857143L188,177.2L189,177.31428571428572L190,177.28571428571428L191,177.25714285714284L192,177.22857142857143L193,177.2L194,177.31428571428572L195,177.28571428571428L196,177.25714285714284L197,177.22857142857143L198,177.2L199,177.17142857142858L200,177.28571428571428" stroke="#e45756" stroke-width="2"/></g></g><path class="foreground" aria-hidden="true" d="" display="none"/></g><g transform="translate(0,0)"><path class="background" aria-hidden="true" d="M0,0h200v200h-200Z"/><g><g class="mark-line role-mark marks" role="graphics-object" aria-roledescription="line mark container"><path aria-label="D: 1; A / D: 2; p: 0.05" role="graphics-symbol" aria-roledescription="line mark" d="M1,142.85714285714286L2,171.42857142857144L3,171.42857142857144L4,178.57142857142858L5,177.14285714285714L6,180.94285714285715L7.000000000000001,183.68571428571428L8,185.71428571428572L9,184.11428571428573L10,185.71428571428572L11,184.42857142857144L12,185.71428571428572L13,184.62857142857143L14.000000000000002,185.71428571428572L15,184.77142857142857L16,185.71428571428572L17,184.88571428571427L18,185.71428571428572L19,184.97142857142856L20,184.28571428571428L21,185.02857142857144L22,184.42857142857144L23,185.0857142857143L24,184.51428571428573L25,184L26,184.62857142857143L27,184.11428571428573L28.000000000000004,184.68571428571428L28.999999999999996,184.22857142857143L30,183.8L31,184.34285714285716L32,183.9142857142857L33,183.54285714285714L34,184.02857142857144L35,183.68571428571428L36,183.34285714285713L37,183.77142857142857L38,183.45714285714286L39,183.14285714285714L40,183.57142857142856L41,183.2857142857143L42,183.68571428571428L43,183.4L44,183.11428571428573L45,182.85714285714286L46,183.22857142857143L47,182.97142857142856L48,182.74285714285713L49,183.0857142857143L50,182.85714285714286L51,182.62857142857143L52,182.97142857142856L53,182.74285714285713L54,182.54285714285714L55.00000000000001,182.85714285714286L56.00000000000001,182.65714285714284L56.99999999999999,182.45714285714286L57.99999999999999,182.77142857142857L59,182.57142857142856L60,182.37142857142857L61,182.65714285714284L62,182.4857142857143L63,182.31428571428572L64,182.14285714285714L65,182.42857142857142L66,182.25714285714284L67,182.0857142857143L68,182.34285714285713L69,182.20000000000002L70,182.02857142857144L71,181.8857142857143L72,182.14285714285714L73,182L74,181.85714285714286L75,182.0857142857143L76,181.94285714285715L77,181.82857142857142L78,181.68571428571428L79,181.9142857142857L80,181.77142857142857L81,181.65714285714284L82,181.8857142857143L83,181.74285714285713L84,181.62857142857143L85,181.5142857142857L86,181.71428571428572L87,181.6L88,181.4857142857143L89,181.71428571428572L90,181.6L91,181.4857142857143L92,181.37142857142857L93,181.57142857142856L94,181.45714285714286L95,181.34285714285713L96,181.25714285714284L97,181.45714285714286L98,181.34285714285713L99,181.22857142857143L100,181.14285714285714L101,181.34285714285713L102,181.22857142857143L103,181.14285714285714L104,181.31428571428572L105,181.22857142857143L106,181.14285714285714L107,181.02857142857144L108,181.22857142857143L109.00000000000001,181.11428571428573L110.00000000000001,181.02857142857144L111.00000000000001,180.94285714285715L112.00000000000001,181.11428571428573L112.99999999999999,181.02857142857144L113.99999999999999,180.94285714285715L114.99999999999999,180.85714285714286L115.99999999999999,181.02857142857144L117,180.94285714285715L118,180.8857142857143L119,180.8L120,180.94285714285715L121,180.8857142857143L122,180.8L123,180.71428571428572L124,180.8857142857143L125,180.8L126,180.71428571428572L127,180.65714285714284L128,180.8L129,180.74285714285713L130,180.65714285714284L131,180.6L132,180.74285714285713L133,180.65714285714284L134,180.6L135,180.74285714285713L136,180.68571428571428L137,180.6L138,180.54285714285714L139,180.4857142857143L140,180.6L141,180.54285714285714L142,180.4857142857143L143,180.42857142857142L144,180.54285714285714L145,180.4857142857143L146,180.42857142857142L147,180.37142857142857L148,180.5142857142857L149,180.42857142857142L150,180.37142857142857L151,180.31428571428572L152,180.45714285714286L153,180.4L154,180.34285714285713L155,180.2857142857143L156,180.4L157,180.34285714285713L158,180.2857142857143L159,180.22857142857143L160,180.34285714285713L161,180.31428571428572L162,180.25714285714284L163,180.20000000000002L164,180.31428571428572L165,180.25714285714284L166,180.20000000000002L167,180.14285714285714L168,180.2857142857143L169,180.22857142857143L170,180.17142857142858L171,180.11428571428573L172,180.05714285714285L173,180.17142857142858L174,180.14285714285714L175,180.0857142857143L176,180.02857142857144L177,180.14285714285714L178,180.0857142857143L179,180.05714285714285L180,180L181,180.11428571428573L182,180.05714285714285L183,180.02857142857144L184,179.9714285714286L185,180.0857142857143L186,180.02857142857144L187,179.9714285714286L188,179.94285714285715L189,179.8857142857143L190,180L191,179.94285714285715L192,179.9142857142857L193,179.85714285714286L194,179.9714285714286L195,179.9142857142857L196,179.8857142857143L197,179.82857142857142L198,179.94285714285715L199,179.8857142857143L200,179.85714285714286" stroke="#f58518" stroke-width="2"/></g></g><path class="foreground" aria-hidden="true" d="" display="none"/></g><g transform="translate(0,0)"><path class="background" aria-hidden="true" d="M0,0h200v200h-200Z"/><g><g class="mark-line role-mark marks" role="graphics-object" aria-roledescription="line mark container"><path aria-label="D: 1; A / D: 2; p: 0.01" role="graphics-symbol" aria-roledescription="line mark" d="M1,142.85714285714286L2,171.42857142857144L3,180.94285714285715L4,178.57142857142858L5,182.85714285714286L6,185.71428571428572L7.000000000000001,187.74285714285713L8,185.71428571428572L9,187.31428571428572L10,188.57142857142856L11,189.6L12,188.0857142857143L13,189L14.000000000000002,189.79999999999998L15,188.57142857142856L16,189.28571428571428L17,188.22857142857143L18,188.88571428571427L19,189.48571428571427L20,188.57142857142856L21,189.11428571428573L22,188.31428571428572L23,188.82857142857142L24,188.0857142857143L25,188.57142857142856L26,187.9142857142857L27,188.37142857142857L28.000000000000004,187.74285714285713L28.999999999999996,188.17142857142858L30,187.62857142857143L31,187.0857142857143L32,187.48571428571427L33,187L34,187.4L35,186.94285714285715L36,187.31428571428572L37,186.88571428571427L38,187.22857142857143L39,186.79999999999998L40,186.42857142857144L41,186.77142857142857L42,186.4L43,186.71428571428572L44,186.37142857142857L45,186.02857142857144L46,186.34285714285716L47,186.02857142857144L48,186.31428571428572L49,186L50,185.71428571428572L51,186L52,185.71428571428572L53,185.97142857142856L54,185.71428571428572L55.00000000000001,185.45714285714286L56.00000000000001,185.71428571428572L56.99999999999999,185.45714285714286L57.99999999999999,185.22857142857143L59,185.48571428571427L60,185.22857142857143L61,185.48571428571427L62,185.25714285714287L63,185.02857142857144L64,185.25714285714287L65,185.05714285714285L66,184.85714285714286L67,185.0857142857143L68,184.88571428571427L69,184.68571428571428L70,184.88571428571427L71,184.71428571428572L72,184.51428571428573L73,184.74285714285713L74,184.54285714285714L75,184.37142857142857L76,184.60000000000002L77,184.42857142857144L78,184.25714285714287L79,184.45714285714286L80,184.28571428571428L81,184.11428571428573L82,184.31428571428572L83,184.17142857142858L84,184.34285714285716L85,184.20000000000002L86,184.05714285714285L87,183.9142857142857L88,184.0857142857143L89,183.94285714285715L90,183.8L91,184L92,183.85714285714286L93,183.71428571428572L94,183.8857142857143L95,183.77142857142857L96,183.62857142857143L97,183.8L98,183.68571428571428L99,183.54285714285714L100,183.71428571428572L101,183.6L102,183.4857142857143L103,183.62857142857143L104,183.5142857142857L105,183.4L106,183.57142857142856L107,183.45714285714286L108,183.34285714285713L109.00000000000001,183.22857142857143L110.00000000000001,183.37142857142857L111.00000000000001,183.25714285714284L112.00000000000001,183.17142857142855L112.99999999999999,183.31428571428572L113.99999999999999,183.20000000000002L114.99999999999999,183.11428571428573L115.99999999999999,183.25714285714284L117,183.14285714285714L118,183.05714285714285L119,183.20000000000002L120,183.0857142857143L121,183L122,182.9142857142857L123,183.05714285714285L124,182.94285714285715L125,182.85714285714286L126,183L127,182.9142857142857L128,182.8L129,182.94285714285715L130,182.85714285714286L131,182.77142857142857L132,182.68571428571428L133,182.8L134,182.74285714285713L135,182.65714285714284L136,182.77142857142857L137,182.68571428571428L138,182.6L139,182.5142857142857L140,182.65714285714284L141,182.57142857142856L142,182.4857142857143L143,182.62857142857143L144,182.54285714285714L145,182.45714285714286L146,182.4L147,182.5142857142857L148,182.42857142857142L149,182.37142857142857L150,182.4857142857143L151,182.4L152,182.34285714285713L153,182.25714285714284L154,182.37142857142857L155,182.31428571428572L156,182.22857142857143L157,182.34285714285713L158,182.2857142857143L159,182.20000000000002L160,182.14285714285714L161,182.25714285714284L162,182.20000000000002L163,182.11428571428573L164,182.22857142857143L165,182.17142857142855L166,182.0857142857143L167,182.02857142857144L168,182.14285714285714L169,182.0857142857143L170,182.02857142857144L171,181.94285714285715L172,182.05714285714285L173,182L174,181.94285714285715L175,182.02857142857144L176,181.97142857142856L177,181.9142857142857L178,181.85714285714286L179,181.97142857142856L180,181.9142857142857L181,181.85714285714286L182,181.8L183,181.8857142857143L184,181.82857142857142L185,181.77142857142857L186,181.8857142857143L187,181.82857142857142L188,181.77142857142857L189,181.71428571428572L190,181.8L191,181.74285714285713L192,181.68571428571428L193,181.65714285714284L194,181.74285714285713L195,181.68571428571428L196,181.62857142857143L197,181.71428571428572L198,181.68571428571428L199,181.62857142857143L200,181.57142857142856" stroke="#4c78a8" stroke-width="2"/></g></g><path class="foreground" aria-hidden="true" d="" display="none"/></g></g><g class="mark-group role-legend" role="graphics-symbol" aria-roledescription="legend" aria-label="Symbol legend titled 'p' for stroke color with 7 values: 0.01, 0.05, 0.25, 0.5, 0.75, 0.95, 0.99"><g transform="translate(220,0)"><path class="background" aria-hidden="true" d="M0,0h39v105h-39Z" pointer-events="none"/><g><g class="mark-group role-legend-entry"><g transform="translate(0,16)"><path class="background" aria-hidden="true" d="M0,0h0v0h0Z" pointer-events="none"/><g><g class="mark-group role-scope" role="graphics-object" aria-roledescription="group mark container"><g transform="translate(0,0)"><path class="background" aria-hidden="true" d="M0,0h38.28333282470703v11h-38.28333282470703Z" pointer-events="none" opacity="1"/><g><g class="mark-symbol role-legend-symbol" pointer-events="none"><path transform="translate(6,6)" d="M-5,0L5,0" stroke="#4c78a8" stroke-width="1.5" opacity="1"/></g><g class="mark-text role-legend-label" pointer-events="none"><text text-anchor="start" transform="translate(16,9)" font-family="sans-serif" font-size="10px" fill="#000" opacity="1">0.01</text></g></g><path class="foreground" aria-hidden="true" d="" pointer-events="none" display="none"/></g><g transform="translate(0,13)"><path class="background" aria-hidden="true" d="M0,0h38.28333282470703v11h-38.28333282470703Z" pointer-events="none" opacity="1"/><g><g class="mark-symbol role-legend-symbol" pointer-events="none"><path transform="translate(6,6)" d="M-5,0L5,0" stroke="#f58518" stroke-width="1.5" opacity="1"/></g><g class="mark-text role-legend-label" pointer-events="none"><text text-anchor="start" transform="translate(16,9)" font-family="sans-serif" font-size="10px" fill="#000" opacity="1">0.05</text></g></g><path class="foreground" aria-hidden="true" d="" pointer-events="none" display="none"/></g><g transform="translate(0,26)"><path class="background" aria-hidden="true" d="M0,0h38.28333282470703v11h-38.28333282470703Z" pointer-events="none" opacity="1"/><g><g class="mark-symbol role-legend-symbol" pointer-events="none"><path transform="translate(6,6)" d="M-5,0L5,0" stroke="#e45756" stroke-width="1.5" opacity="1"/></g><g class="mark-text role-legend-label" pointer-events="none"><text text-anchor="start" transform="translate(16,9)" font-family="sans-serif" font-size="10px" fill="#000" opacity="1">0.25</text></g></g><path class="foreground" aria-hidden="true" d="" pointer-events="none" display="none"/></g><g transform="translate(0,39)"><path class="background" aria-hidden="true" d="M0,0h38.28333282470703v11h-38.28333282470703Z" pointer-events="none" opacity="1"/><g><g class="mark-symbol role-legend-symbol" pointer-events="none"><path transform="translate(6,6)" d="M-5,0L5,0" stroke="#72b7b2" stroke-width="1.5" opacity="1"/></g><g class="mark-text role-legend-label" pointer-events="none"><text text-anchor="start" transform="translate(16,9)" font-family="sans-serif" font-size="10px" fill="#000" opacity="1">0.5</text></g></g><path class="foreground" aria-hidden="true" d="" pointer-events="none" display="none"/></g><g transform="translate(0,52)"><path class="background" aria-hidden="true" d="M0,0h38.28333282470703v11h-38.28333282470703Z" pointer-events="none" opacity="1"/><g><g class="mark-symbol role-legend-symbol" pointer-events="none"><path transform="translate(6,6)" d="M-5,0L5,0" stroke="#54a24b" stroke-width="1.5" opacity="1"/></g><g class="mark-text role-legend-label" pointer-events="none"><text text-anchor="start" transform="translate(16,9)" font-family="sans-serif" font-size="10px" fill="#000" opacity="1">0.75</text></g></g><path class="foreground" aria-hidden="true" d="" pointer-events="none" display="none"/></g><g transform="translate(0,65)"><path class="background" aria-hidden="true" d="M0,0h38.28333282470703v11h-38.28333282470703Z" pointer-events="none" opacity="1"/><g><g class="mark-symbol role-legend-symbol" pointer-events="none"><path transform="translate(6,6)" d="M-5,0L5,0" stroke="#eeca3b" stroke-width="1.5" opacity="1"/></g><g class="mark-text role-legend-label" pointer-events="none"><text text-anchor="start" transform="translate(16,9)" font-family="sans-serif" font-size="10px" fill="#000" opacity="1">0.95</text></g></g><path class="foreground" aria-hidden="true" d="" pointer-events="none" display="none"/></g><g transform="translate(0,78)"><path class="background" aria-hidden="true" d="M0,0h38.28333282470703v11h-38.28333282470703Z" pointer-events="none" opacity="1"/><g><g class="mark-symbol role-legend-symbol" pointer-events="none"><path transform="translate(6,6)" d="M-5,0L5,0" stroke="#b279a2" stroke-width="1.5" opacity="1"/></g><g class="mark-text role-legend-label" pointer-events="none"><text text-anchor="start" transform="translate(16,9)" font-family="sans-serif" font-size="10px" fill="#000" opacity="1">0.99</text></g></g><path class="foreground" aria-hidden="true" d="" pointer-events="none" display="none"/></g></g></g><path class="foreground" aria-hidden="true" d="" pointer-events="none" display="none"/></g></g><g class="mark-text role-legend-title" pointer-events="none"><text text-anchor="start" transform="translate(0,9)" font-family="sans-serif" font-size="11px" font-weight="bold" fill="#000" opacity="1">p</text></g></g><path class="foreground" aria-hidden="true" d="" pointer-events="none" display="none"/></g></g></g><path class="foreground" aria-hidden="true" d="" display="none"/></g></g></g></svg>