<svg xmlns="http://www.w3.org/2000/svg" xmlns:xlink="http://www.w3.org/1999/xlink" version="1.1" class="marks" width="596" height="242" viewBox="0 0 596 242"><rect width="596" height="242" fill="white"/><g fill="none" stroke-miterlimit="10" transform="translate(43,5)"><g class="mark-group role-frame root" role="graphics-object" aria-roledescription="group mark container"><g transform="translate(0,0)"><path class="background" aria-hidden="true" d="M0.5,0.5h489v200h-489Z" stroke="#ddd"/><g><g class="mark-group role-axis" aria-hidden="true"><g transform="translate(0.5,200.5)"><path class="background" aria-hidden="true" d="M0,0h0v0h0Z" pointer-events="none"/><g><g class="mark-rule role-axis-grid" pointer-events="none"><line transform="translate(0,-200)" x2="0" y2="200" stroke="#ddd" stroke-width="1" opacity="1"/><line transform="translate(49,-200)" x2="0" y2="200" stroke="#ddd" stroke-width="1" opacity="1"/><line transform="translate(98,-200)" x2="0" y2="200" stroke="#ddd" stroke-width="1" opacity="1"/><line transform="translate(147,-200)" x2="0" y2="200" stroke="#ddd" stroke-width="1" opacity="1"/><line transform="translate(196,-200)" x2="0" y2="200" stroke="#ddd" stroke-width="1" opacity="1"/><line transform="translate(245,-200)" x2="0" y2="200" stroke="#ddd" stroke-width="1" opacity="1"/><line transform="translate(293,-200)" x2="0" y2="200" stroke="#ddd" stroke-width="1" opacity="1"/><line transform="translate(342,-200)" x2="0" y2="200" stroke="#ddd" stroke-width="1" opacity="1"/><line transform="translate(391,-200)" x2="0" y2="200" stroke="#ddd" stroke-width="1" opacity="1"/><line transform="translate(440,-200)" x2="0" y2="200" stroke="#ddd" stroke-width="1" opacity="1"/><line transform="translate(489,-200)" x2="0" y2="200" stroke="#ddd" stroke-width="1" opacity="1"/></g></g><path class="foreground" aria-hidden="true" d="" pointer-events="none" display="none"/></g></g><g class="mark-group role-axis" aria-hidden="true"><g transform="translate(0.5,0.5)"><path class="background" aria-hidden="true" d="M0,0h0v0h0Z" pointer-events="none"/><g><g class="mark-rule role-axis-grid" pointer-events="none"><line transform="translate(0,200)" x2="489" y2="0" stroke="#ddd" stroke-width="1" opacity="1"/><line transform="translate(0,164)" x2="489" y2="0" stroke="#ddd" stroke-width="1" opacity="1"/><line transform="translate(0,127)" x2="489" y2="0" stroke="#ddd" stroke-width="1" opacity="1"/><line transform="translate(0,91)" x2="489" y2="0" stroke="#ddd" stroke-width="1" opacity="1"/><line transform="translate(0,55)" x2="489" y2="0" stroke="#ddd" stroke-width="1" opacity="1"/><line transform="translate(0,18)" x2="489" y2="0" stroke="#ddd" stroke-width="1" opacity="1"/></g></g><path class="foreground" aria-hidden="true" d="" pointer-events="none" display="none"/></g></g><g class="mark-group role-axis" role="graphics-symbol" aria-roledescription="axis" aria-label="X-axis titled 'D' for a linear scale with values from 0 to 200"><g transform="translate(0.5,200.5)"><path class="background" aria-hidden="true" d="M0,0h0v0h0Z" pointer-events="none"/><g><g class="mark-rule role-axis-tick" pointer-events="none"><line transform="translate(0,0)" x2="0" y2="5" stroke="#888" stroke-width="1" opacity="1"/><line transform="translate(49,0)" x2="0" y2="5" stroke="#888" stroke-width="1" opacity="1"/><line transform="translate(98,0)" x2="0" y2="5" stroke="#888" stroke-width="1" opacity="1"/><line transform="translate(147,0)" x2="0" y2="5" stroke="#888" stroke-width="1" opacity="1"/><line transform="translate(196,0)" x2="0" y2="5" stroke="#888" stroke-width="1" opacity="1"/><line transform="translate(245,0)" x2="0" y2="5" stroke="#888" stroke-width="1" opacity="1"/><line transform="translate(293,0)" x2="0" y2="5" stroke="#888" stroke-width="1" opacity="1"/><line transform="translate(342,0)" x2="0" y2="5" stroke="#888" stroke-width="1" opacity="1"/><line transform="translate(391,0)" x2="0" y2="5" stroke="#888" stroke-width="1" opacity="1"/><line transform="translate(440,0)" x2="0" y2="5" stroke="#888" stroke-width="1" opacity="1"/><line transform="translate(489,0)" x2="0" y2="5" stroke="#888" stroke-width="1" opacity="1"/></g><g class="mark-text role-axis-label" pointer-events="none"><text text-anchor="start" transform="translate(0,15)" font-family="sans-serif" font-size="10px" fill="#000" opacity="1">1</text><text text-anchor="middle" transform="translate(48.900000000000006,15)" font-family="sans-serif" font-size="10px" fill="#000" opacity="1">20</text><text text-anchor="middle" transform="translate(97.80000000000001,15)" font-family="sans-serif" font-size="10px" fill="#000" opacity="1">40</text><text text-anchor="middle" transform="translate(146.7,15)" font-family="sans-serif" font-size="10px" fill="#000" opacity="1">60</text><text text-anchor="middle" transform="translate(195.60000000000002,15)" font-family="sans-serif" font-size="10px" fill="#000" opacity="1">80</text><text text-anchor="middle" transform="translate(244.5,15)" font-family="sans-serif" font-size="10px" fill="#000" opacity="1">100</text><text text-anchor="middle" transform="translate(293.4,15)" font-family="sans-serif" font-size="10px" fill="#000" opacity="1">120</text><text text-anchor="middle" transform="translate(342.29999999999995,15)" font-family="sans-serif" font-size="10px" fill="#000" opacity="1">140</text><text text-anchor="middle" transform="translate(391.20000000000005,15)" font-family="sans-serif" font-size="10px" fill="#000" opacity="1">160</text><text text-anchor="middle" transform="translate(440.1,15)" font-family="sans-serif" font-size="10px" fill="#000" opacity="1">180</text><text text-anchor="end" transform="translate(489,15)" font-family="sans-serif" font-size="10px" fill="#000" opacity="1">200</text></g><g class="mark-rule role-axis-domain" pointer-events="none"><line transform="translate(0,0)" x2="489" y2="0" stroke="#888" stroke-width="1" opacity="1"/></g><g class="mark-text role-axis-title" pointer-events="none"><text text-anchor="middle" transform="translate(244.5,30)" font-family="sans-serif" font-size="11px" font-weight="bold" fill="#000" opacity="1">D</text></g></g><path class="foreground" aria-hidden="true" d="" pointer-events="none" display="none"/></g></g><g class="mark-group role-axis" role="graphics-symbol" aria-roledescription="axis" aria-label="Y-axis titled ' ' for a linear scale with values from 1.0 to 2.1"><g transform="translate(0.5,0.5)"><path class="background" aria-hidden="true" d="M0,0h0v0h0Z" pointer-events="none"/><g><g class="mark-rule role-axis-tick" pointer-events="none"><line transform="translate(0,200)" x2="-5" y2="0" stroke="#888" stroke-width="1" opacity="1"/><line transform="translate(0,164)" x2="-5" y2="0" stroke="#888" stroke-width="1" opacity="1"/><line transform="translate(0,127)" x2="-5" y2="0" stroke="#888" stroke-width="1" opacity="1"/><line transform="translate(0,91)" x2="-5" y2="0" stroke="#888" stroke-width="1" opacity="1"/><line transform="translate(0,55)" x2="-5" y2="0" stroke="#888" stroke-width="1" opacity="1"/><line transform="translate(0,18)" x2="-5" y2="0" stroke="#888" stroke-width="1" opacity="1"/></g><g class="mark-text role-axis-label" pointer-events="none"><text text-anchor="end" transform="translate(-7,203)" font-family="sans-serif" font-size="10px" fill="#000" opacity="1">1.0</text><text text-anchor="end" transform="translate(-7,166.63636363636365)" font-family="sans-serif" font-size="10px" fill="#000" opacity="1">1.2</text><text text-anchor="end" transform="translate(-7,130.2727272727273)" font-family="sans-serif" font-size="10px" fill="#000" opacity="1">1.4</text><text text-anchor="end" transform="translate(-7,93.90909090909089)" font-family="sans-serif" font-size="10px" fill="#000" opacity="1">1.6</text><text text-anchor="end" transform="translate(-7,57.54545454545454)" font-family="sans-serif" font-size="10px" fill="#000" opacity="1">1.8</text><text text-anchor="end" transform="translate(-7,21.181818181818187)" font-family="sans-serif" font-size="10px" fill="#000" opacity="1">2.0</text></g><g class="mark-rule role-axis-domain" pointer-events="none"><line transform="translate(0,200)" x2="0" y2="-200" stroke="#888" stroke-width="1" opacity="1"/></g><g class="mark-text role-axis-title" pointer-events="none"><text text-anchor="middle" transform="translate(-26.916666984558105,100) rotate(-90) translate(0,-2)" font-family="sans-serif" font-size="11px" font-weight="bold" fill="#000" opacity="1"/></g></g><path class="foreground" aria-hidden="true" d="" pointer-events="none" display="none"/></g></g><g class="mark-group role-scope pathgroup" role="graphics-object" aria-roledescription="group mark container"><g transform="translate(0,0)"><path class="background" aria-hidden="true" d="M0,0h489v200h-489Z"/><g><g class="mark-line role-mark marks" role="graphics-object" aria-roledescription="line mark container"><path aria-label="D: 1;  : 1; p: 0.99" role="graphics-symbol" aria-roledescription="line mark" d="M2.445,200L4.89,200L7.335,116.07746050395484L9.78,103.03030303030303L12.225000000000001,75L14.67,78.78787878787878L17.115000000000002,81.8213637954625L19.56,70.12987012987016L22.005,73.59510598947219L24.450000000000003,63.636363636363605L26.895,54.57745070591531L29.34,58.58585858585861L31.785,57.17903266649784L34.230000000000004,60.603232511771935L36.675,53.45472137924971L39.12,52.272727272727295L41.565000000000005,45.721511872980216L44.01,54.47063224841002L46.455,48.500839529863285L48.900000000000006,47.66584766584769L51.345,42.18985434455054L53.79,49.98499849985001L56.235,44.89879161780452L58.68,44.15584415584415L61.125,43.55179704016911L63.57,38.81366860090265L66.015,45.92402902262056L68.46000000000001,45.36249932319021L70.905,40.92282340016477L73.35,40.338473528920574L75.795,40.04959702417856L78.24,42.685314685314694L80.685,42.18272387637272L83.13000000000001,41.65330890771697L85.57499999999999,41.212892772409006L88.02,37.812573031082074L90.465,37.4137219043124L92.91,36.88788275944241L95.355,36.688097097878995L97.80000000000001,39.04619970193741L100.24499999999999,38.62433862433863L102.69,38.42424242424243L105.135,37.97653958944282L107.58,34.923370468394175L110.025,34.78961393071831L112.47,34.52923192113311L114.91499999999999,34.265250989508125L117.36,38.88265369746853L119.80499999999999,38.63479515653432L122.25,35.858585858585855L124.69500000000001,35.588590305571465L127.14,35.30313677889223L129.585,35.14294892386769L132.03,34.85171544873038L134.47500000000002,34.67532467532466L136.92000000000002,32.147751745741715L139.36499999999998,31.955922865013786L141.81,31.76214648295872L144.255,31.689068397007205L146.7,31.615348806277876L149.145,35.478972733874684L151.59,35.28943703998409L154.035,35.09823509823509L156.48,32.764733426985075L158.925,32.684302403652495L161.37,32.34421364985165L163.815,32.26155824815544L166.26000000000002,32.04239706481864L168.70499999999998,31.957989497374363L171.14999999999998,31.999452766947133L173.595,31.776984344960212L176.04,31.41498380315666L178.48499999999999,29.519529899758034L180.93,29.415435822758475L183.375,29.44981567781877L185.82,29.344868485313636L188.26500000000001,32.73281596452331L190.71,32.49930497636922L193.155,32.40379252649199L195.60000000000002,32.16783216783221L198.04500000000002,31.9304152637486L200.48999999999998,31.962314560922444L202.935,31.722970590309572L205.38,31.754559592817788L207.825,31.371436675648855L210.27,31.402374013789203L212.715,31.290966087204364L215.16,29.607941155466634L217.605,29.49176807444529L220.05,29.375044844658092L222.495,29.25776754890681L224.94,29.139932232715715L227.38500000000002,29.02153490388788L229.82999999999998,28.902571532053578L232.27499999999998,28.91968366828701L234.72,28.800000000000026L237.165,28.53393599183498L239.60999999999999,28.69660460021908L242.055,28.429219733567535L244.5,28.445747800586506L246.945,28.462329270083696L249.39000000000001,28.192859771807164L251.835,28.209098282090995L254.28,28.22538955763978L256.725,28.241733856054463L259.17,27.82144446092245L261.615,27.837195484254316L264.06,27.704210682934118L266.505,27.719821162444134L268.95000000000005,27.58620689655169L271.39500000000004,27.60167464114829L273.84000000000003,27.467425490489727L276.28499999999997,27.33273327332735L278.72999999999996,29.815795361324547L281.17499999999995,29.68551579890939L283.62,29.994019138755966L286.065,29.863711247566236L288.51,29.732973297329735L290.955,29.451540195341796L293.4,29.319686935580958L295.84499999999997,29.47955110341196L298.29,29.347416069407828L300.735,29.21484168366961L303.18,29.22402057177431L305.625,29.090909090909122L308.07,28.95735316436483L310.515,28.966355282144796L312.96,28.832255610498358L315.40500000000003,28.84117557484389L317.85,28.706528370957884L320.295,28.71536523929472L322.74,28.427249789739317L325.185,28.588919498010434L327.63,28.597687064409904L330.07500000000005,28.308400460299254L332.52000000000004,28.470515970515955L334.96500000000003,28.18027995692971L337.40999999999997,28.188746054961133L339.85499999999996,28.197226502311246L342.29999999999995,28.205721335492328L344.745,27.913802425272305L347.19,27.922077922077904L349.635,27.93036750483562L352.08,27.938671209540033L354.525,27.64505119453926L356.96999999999997,27.65313252076702L359.415,27.66122766122767L361.86,27.66933665137259L364.305,27.677459526774584L366.75,27.685596323128458L369.195,27.537813815686896L371.64,27.241487035301446L374.085,27.249276948331193L376.53000000000003,27.25708026912843L378.975,25.265643447461628L381.42,25.271781944225612L383.865,25.277931088859095L386.31,25.284090909090917L388.755,25.132296027170085L391.20000000000005,25.138339920948628L393.64500000000004,24.986153967877243L396.09000000000003,24.99208108964204L398.53499999999997,24.839502258857138L400.97999999999996,24.845311756306508L403.42499999999995,24.85113140134971L405.87,25.00992457324338L408.315,25.810553083280308L410.76,25.81722739203056L413.205,25.664703072759075L415.65,25.671261254083365L418.09499999999997,25.518341307814985L420.54,25.677830940988812L422.985,25.68441216378008L425.43,25.531235021568932L427.875,25.377788438474468L430.32,25.384122919334207L432.765,25.54417413572343L435.21,25.390468562274716L437.65500000000003,25.396825396825395L440.1,25.242718446601952L442.545,25.403193452619742L444.99,25.248955991005406L447.435,25.094445784101005L449.88,25.10056315366047L452.32500000000005,25.26146419951727L454.77000000000004,25.10669136001291L457.21500000000003,24.95164410058026L459.65999999999997,26.079948420373977L462.10499999999996,25.92562716786324L464.54999999999995,25.77103181010818L466.995,25.932504440497283L469.44,25.77777777777781L471.885,25.622775800711793L474.33,25.784535748948613L476.775,25.629401764753478L479.21999999999997,25.4739912493924L481.665,25.636039539782907L484.11,25.48049631011271L486.555,25.642689157408128L489,25.48701298701308" stroke="#b279a2" stroke-width="2"/></g></g><path class="foreground" aria-hidden="true" d="" display="none"/></g><g transform="translate(0,0)"><path class="background" aria-hidden="true" d="M0,0h489v200h-489Z"/><g><g class="mark-line role-mark marks" role="graphics-object" aria-roledescription="line mark container"><path aria-label="D: 1;  : 1; p: 0.95" role="graphics-symbol" aria-roledescription="line mark" d="M2.445,200L4.89,200L7.335,127.22908654501819L9.78,100.82644628099176L12.225000000000001,102.09790209790212L14.67,83.10018314304641L17.115000000000002,86.42328799809118L19.56,82.35294117647061L22.005,68.72727272727275L24.450000000000003,56.459330143540676L26.895,70.08905185961237L29.34,67.67842086991025L31.785,57.649416722339275L34.230000000000004,56.05176620345813L36.675,47.30326661940338L39.12,58.68160275743215L41.565000000000005,57.15074239664406L44.01,55.76434738445914L46.455,48.465657205365886L48.900000000000006,47.50733137829914L51.345,46.57599618229542L53.79,55.48690791409236L56.235,49.36088878270222L58.68,48.484848484848506L61.125,47.66584766584765L63.57,47.03395100111927L66.015,46.00856207504409L68.46000000000001,40.95680386793059L70.905,40.42689983284043L73.35,39.87012987012988L75.795,39.286884708658334L78.24,38.809917355371915L80.685,38.44308184484142L83.13000000000001,37.935900020157185L85.57499999999999,44.57264107154697L88.02,40.35802551599761L90.465,39.849269901083375L92.91,39.58813168947304L95.355,39.05067175884882L97.80000000000001,38.76500857632934L100.24499999999999,38.33782011458548L102.69,38.167938931297726L105.135,37.59251501186991L107.58,37.1358371358371L110.025,37.08301008533748L112.47,36.74626231134415L114.91499999999999,36.40635011034381L117.36,36.06322866747731L119.80499999999999,35.71685231764283L122.25,35.49783549783554L124.69500000000001,35.277073524085466L127.14,34.909090909090935L129.585,31.909456005841584L132.03,31.807193612189643L134.47500000000002,31.421006178287737L136.92000000000002,31.316410861865407L139.36499999999998,31.211134142730245L141.81,30.956625074272146L144.255,30.70044709388973L146.7,30.731306491372234L149.145,30.47290714232187L151.59,30.35311795642375L154.035,30.091964420322604L156.48,29.97052822489237L158.925,29.84848484848488L161.37,29.725829725829733L163.815,29.60255824577429L166.26000000000002,29.326005648423802L168.70499999999998,29.201101928374662L171.14999999999998,29.219684194389117L173.595,28.940290478752082L176.04,28.95850973751064L178.48499999999999,28.67726501003245L180.93,30.859616573902283L183.375,30.427032473068326L185.82,30.447946587997876L188.26500000000001,30.313399175674682L190.71,30.334190231362523L193.155,30.198985563792412L195.60000000000002,30.063315875869634L198.04500000000002,29.623824451410652L200.48999999999998,29.79057180955369L202.935,29.65349257484091L205.38,29.515938606847712L207.825,29.377907435149453L210.27,29.081431166574532L212.715,28.942163145818522L215.16,29.10991447576814L217.605,28.811676979216227L220.05,28.671328671328645L222.495,28.68050584586015L224.94,28.53955860090831L227.38500000000002,28.548644338118056L229.82999999999998,28.24732385365072L232.27499999999998,28.256176541137012L234.72,28.11373648378055L237.165,28.122494789161443L239.60999999999999,29.736018615100733L242.055,29.43493288320873L244.5,29.444891391794048L246.945,29.454867541670016L249.39000000000001,29.15221424538197L251.835,29.161957048280264L254.28,29.010101010101064L256.725,29.019734713684954L259.17,29.02938557435444L261.615,28.56216040872599L264.06,28.57142857142858L266.505,28.58071329921197L268.95000000000005,28.4273865669215L271.39500000000004,25.566130620282323L273.84000000000003,25.40855711587422L276.28499999999997,26.89462436297887L278.72999999999996,26.73796791443852L281.17499999999995,26.581027667984202L283.62,26.588642545124898L286.065,26.753482238523052L288.51,26.596271242369273L290.955,26.603913797374325L293.4,26.446280991735584L295.84499999999997,26.288361320208466L298.29,26.130153999006488L300.735,26.461334658056025L303.18,26.30314079721554L305.625,27.471798274717997L308.07,27.31423827314241L310.515,27.156390227688277L312.96,27.322586006315476L315.40500000000003,27.164601181069624L317.85,27.00632700632708L320.295,27.17282717282723L322.74,27.014415465377883L325.185,26.85571309424524L327.63,27.022518765638104L330.07500000000005,26.86367810334753L332.52000000000004,27.87433155080219L334.96500000000003,28.041443850267434L337.40999999999997,25.589225589225606L339.85499999999996,25.427584463729012L342.29999999999995,25.596090656331615L344.745,25.434305953786527L347.19,25.103401705073015L349.635,25.272220815396285L352.08,25.109834403514686L354.525,25.27881040892199L356.96999999999997,26.131078224101433L359.415,26.300211416490527L361.86,26.13847976976471L364.305,26.13847976976471L366.75,25.976446666101836L369.195,26.145895111412297L371.64,25.81411126187245L374.085,25.983717774762628L376.53000000000003,25.821237585943457L378.975,25.821237585943457L381.42,27.0095917154741L383.865,26.84791843670351L386.31,24.510390832121786L388.755,24.681433336184043L391.20000000000005,24.681433336184043L393.64500000000004,24.51634994007876L396.09000000000003,24.68755350111287L398.53499999999997,24.350955359437965L400.97999999999996,24.52232028103849L403.42499999999995,25.550509810641753L405.87,25.385934819897148L408.315,25.385934819897148L410.76,25.557461406518044L413.205,25.221049017082997L415.65,25.39273757404068L418.09499999999997,25.055851520879923L420.54,25.055851520879923L422.985,25.22770235435643L425.43,25.92242194891201L427.875,25.92242194891201L430.32,26.094435365958546L432.765,24.063662312948676L435.21,24.236657728570133L437.65500000000003,23.896103896103902L440.1,23.896103896103902L442.545,24.06926406926413L444.99,24.768177485050668L447.435,24.768177485050668L449.88,24.768177485050668L452.32500000000005,24.94150272987259L454.77000000000004,24.600971547536442L457.21500000000003,24.600971547536442L459.65999999999997,24.600971547536442L462.10499999999996,24.774462179042402L464.54999999999995,25.30172788052445L466.995,25.47538421463922L469.44,25.47538421463922L471.885,23.42153523709718L474.33,23.42153523709718L476.775,23.596192472273138L479.21999999999997,23.596192472273138L481.665,23.596192472273138L484.11,24.300699300699335L486.555,24.300699300699335L489,24.300699300699335" stroke="#eeca3b" stroke-width="2"/></g></g><path class="foreground" aria-hidden="true" d="" display="none"/></g><g transform="translate(0,0)"><path class="background" aria-hidden="true" d="M0,0h489v200h-489Z"/><g><g class="mark-line role-mark marks" role="graphics-object" aria-roledescription="line mark container"><path aria-label="D: 1;  : 1; p: 0.75" role="graphics-symbol" aria-roledescription="line mark" d="M2.445,200L4.89,200L7.335,139.3636363636364L9.78,131.81818181818184L12.225000000000001,119.1919191919192L14.67,109.14544363854502L17.115000000000002,100.70019096117126L19.56,93.93939393939397L22.005,88.06346008562072L24.450000000000003,83.11688311688314L26.895,78.83231138363102L29.34,74.92327627361388L31.785,71.69863775368368L34.230000000000004,68.79683302700413L36.675,66.11178876372242L39.12,63.563636363636334L41.565000000000005,61.46485093853515L44.01,59.395923225710476L46.455,57.81848209593878L48.900000000000006,56.060606060606055L51.345,54.39266615737208L53.79,53.25334563913244L56.235,51.94362707139539L58.68,50.74394328893044L61.125,49.52978056426327L63.57,54.576965495509675L66.015,42.40242206038789L68.46000000000001,41.66871971750017L70.905,40.76485617736751L73.35,40.165289256198356L75.795,39.562443026435744L78.24,38.956290510221045L80.685,38.34680443296392L83.13000000000001,37.73395721925132L85.57499999999999,42.12288632178141L88.02,41.34978594812389L90.465,40.88806660499535L92.91,40.42463560535852L95.355,39.79066430319915L97.80000000000001,39.323467230443974L100.24499999999999,38.85452850970093L102.69,42.28843052372464L105.135,34.50551358860816L107.58,33.840800347977364L110.025,33.507488679902494L112.47,33.17353787152444L114.91499999999999,33.17353787152444L117.36,32.8389460827081L119.80499999999999,35.99685616976684L122.25,35.66433566433569L124.69500000000001,35.331175080934464L127.14,34.822210544753915L129.585,34.822210544753915L132.03,34.48759533619703L134.47500000000002,37.13583713583715L136.92000000000002,37.13583713583715L139.36499999999998,30.862654045365232L141.81,30.338786090998447L144.255,30.338786090998447L146.7,30.160007151157565L149.145,32.6771653543307L151.59,32.49821045096639L154.035,32.49821045096639L156.48,32.319255547602L158.925,31.795790416480063L161.37,31.61665920286607L163.815,34.30362740707569L166.26000000000002,28.909090909090907L168.70499999999998,28.727272727272755L171.14999999999998,28.54545454545454L173.595,28.36363636363639L176.04,28.36363636363639L178.48499999999999,30.545454545454565L180.93,30.545454545454565L183.375,30.36363636363637L185.82,30.181818181818198L188.26500000000001,30.000000000000004L190.71,32.18181818181818L193.155,32.00000000000003L195.60000000000002,27.567169672432847L198.04500000000002,27.383143172616897L200.48999999999998,27.199116672800884L202.935,27.015090172984934L205.38,29.03938167096061L207.825,28.85535517114466L210.27,28.671328671328688L212.715,28.844562919385996L215.16,28.844562919385996L217.605,30.68296718448391L220.05,26.547685443390968L222.495,26.361777282022693L224.94,26.175869120654394L227.38500000000002,25.98996095928612L229.82999999999998,28.21060451295385L232.27499999999998,28.02488624756243L234.72,27.839167982171098L237.165,27.653449716779654L239.60999999999999,27.829313543599277L242.055,29.49907235621523L244.5,29.31354359925791L246.945,25.49203373945641L249.39000000000001,25.671753581125365L251.835,25.48450519614267L254.28,27.16974066098683L256.725,26.98249227600411L259.17,27.160493827160504L261.615,26.973438084549194L264.06,26.78638234193793L266.505,26.599326599326602L268.95000000000005,28.459310473698984L271.39500000000004,24.971708789136216L273.84000000000003,24.78310071671066L276.28499999999997,24.96467263306643L278.72999999999996,24.776260009420636L281.17499999999995,26.283560998586886L283.62,26.463391680782998L286.065,26.275174101261058L288.51,26.086956521739136L290.955,27.592697157914593L293.4,27.770988060543367L295.84499999999997,24.627926817707845L298.29,24.43833538724047L300.735,24.24874395677317L303.18,25.946969696969724L305.625,25.75757575757578L308.07,25.568181818181813L310.515,25.7496925551036L312.96,25.560495695771436L315.40500000000003,26.884873711096425L317.85,24.08995616542786L320.295,23.899371069182408L322.74,24.083769633507867L325.185,23.89338410280819L327.63,25.226082817705866L330.07500000000005,25.40890072270823L332.52000000000004,25.21871434005323L334.96500000000003,25.02852795739827L337.40999999999997,25.211361261517993L339.85499999999996,26.351287166334192L342.29999999999995,23.732057416267914L344.745,23.540669856459306L347.19,23.72622120256187L349.635,23.53503489150175L352.08,24.682152757862518L354.525,24.866310160427794L356.96999999999997,24.675324675324674L359.415,24.484339190221526L361.86,26.004006486692745L364.305,23.17893522967518L366.75,23.365652299126438L369.195,23.1736584429298L371.64,23.1736584429298L374.085,24.510932105868832L376.53000000000003,24.319140774836967L378.975,24.127349443805123L381.42,24.50426286042726L383.865,24.3126736277421L386.31,25.270619791167736L388.755,22.809216234454823L391.20000000000005,22.996918335901405L393.64500000000004,22.996918335901405L396.09000000000003,23.959938366718013L398.53499999999997,24.146224146224114L400.97999999999996,23.95382395382395L403.42499999999995,23.76142376142376L405.87,24.139919277339985L408.315,25.100903325004786L410.76,22.630560928433276L413.205,22.819051299391347L415.65,22.62583325282581L418.09499999999997,23.972206137811213L420.54,23.779193205944793L422.985,23.779193205944793L425.43,23.966065747613975L427.875,23.773257495420808L430.32,24.73729875638675L432.765,22.64004652064353L435.21,22.446210505911978L437.65500000000003,22.635298673637315L440.1,23.603446606641487L442.545,23.409817020040634L444.99,23.597678916827824L447.435,23.597678916827824L449.88,23.404255319148938L452.32500000000005,24.55801371848132L454.77000000000004,22.265435099659747L457.21500000000003,22.455322455322445L459.65999999999997,22.2610722610723L462.10499999999996,22.45076161831767L464.54999999999995,23.420976035703944L466.995,23.226933152226657L469.44,23.415390579569696L471.885,23.221554564838097L474.33,24.190734638495837L476.775,23.996898623764285L479.21999999999997,22.26980728051395L481.665,22.075141132956986L484.11,22.075141132956986L486.555,23.237724842002926L489,23.04326689353431" stroke="#54a24b" stroke-width="2"/></g></g><path class="foreground" aria-hidden="true" d="" display="none"/></g><g transform="translate(0,0)"><path class="background" aria-hidden="true" d="M0,0h489v200h-489Z"/><g><g class="mark-line role-mark marks" role="graphics-object" aria-roledescription="line mark container"><path aria-label="D: 1;  : 1; p: 0.5" role="graphics-symbol" aria-roledescription="line mark" d="M2.445,200L4.89,200L7.335,163.6799912744724L9.78,169.6969696969697L12.225000000000001,109.09090909090908L14.67,96.23743865389113L17.115000000000002,109.1704446035155L19.56,98.98989898989899L22.005,90.84362981752723L24.450000000000003,84.29752066115705L26.895,94.00883259728357L29.34,63.63636363636365L31.785,60.1818181818182L34.230000000000004,70.18181818181819L36.675,66.72727272727272L39.12,63.63636363636365L41.565000000000005,71.63636363636365L44.01,68.72727272727275L46.455,48.32485360468461L48.900000000000006,46.88995215311002L51.345,54.469060351413304L53.79,53.022370299857194L56.235,51.42965707229028L58.68,57.65799962042135L61.125,56.060606060606055L63.57,40.83522111691127L66.015,39.976438248576486L68.46000000000001,46.36461493296804L70.905,45.13231129772486L73.35,44.100165643574016L75.795,49.295089936801226L78.24,48.61407249466949L80.685,36.383638363836404L83.13000000000001,35.92503987240829L85.57499999999999,40.85935945892185L88.02,40.388619014573266L90.465,39.548916806805856L92.91,44.04303622544668L95.355,33.58670315192056L97.80000000000001,33.33333333333333L100.24499999999999,32.69502116508769L102.69,37.468608739327L105.135,36.82469680264609L107.58,36.383638363836404L110.025,40.33529587865481L112.47,31.445770839710253L114.91499999999999,31.401260931462293L117.36,35.22727272727275L119.80499999999999,34.784369305527484L122.25,34.34343434343439L124.69500000000001,34.10602701068335L127.14,37.489943684633985L129.585,29.865737419288727L132.03,29.63493199713676L134.47500000000002,33.07825732068157L136.92000000000002,32.84129084800982L139.36499999999998,32.60538344337225L141.81,32.37052802270195L144.255,35.18930957683746L146.7,28.271388860290347L149.145,28.248587570621453L151.59,31.300604694065814L154.035,31.271091113610815L156.48,31.03764921946741L158.925,30.615572768039144L161.37,33.638397396786715L163.815,27.675162521927565L166.26000000000002,27.045969903112788L168.70499999999998,30.11106540518307L171.14999999999998,30.08413708187978L173.595,29.66075638003489L176.04,29.63493199713676L178.48499999999999,32.07354443309502L180.93,26.46510664733901L183.375,26.446280991735538L185.82,29.107400535971962L188.26500000000001,28.88911767733966L190.71,28.86492039034414L193.155,31.110199056022992L195.60000000000002,25.870129870129887L198.04500000000002,26.059914999481727L200.48999999999998,25.636777800786923L202.935,28.305785123966952L205.38,28.08791662367147L207.825,27.66439909297056L210.27,30.316742081447966L212.715,25.462866652797977L215.16,25.246753246753272L217.605,25.03113325031132L220.05,27.50051770552908L222.495,27.283069603888755L224.94,27.066115702479344L227.38500000000002,29.31354359925791L229.82999999999998,24.64553794829023L232.27499999999998,24.838776783856908L234.72,24.623376623376636L237.165,26.691573266915736L239.60999999999999,26.87927107061505L242.055,26.66252973420209L244.5,28.512396694214903L246.945,24.23546602651081L249.39000000000001,24.42986566697911L251.835,24.422716871229476L254.28,26.07792207792208L256.725,26.068908260689106L259.17,25.852596662174765L261.615,28.11045609680427L264.06,23.82445141065832L266.505,24.020016680567146L268.95000000000005,24.013329167968365L271.39500000000004,25.67089660911175L273.84000000000003,25.662337662337677L276.28499999999997,25.44624325446243L278.72999999999996,27.096506686016355L281.17499999999995,23.82445141065832L283.62,23.609226594301248L286.065,25.479566305254366L288.51,25.262938665000554L290.955,25.254836696484297L293.4,25.038961038961038L295.84499999999997,23.418516966904047L298.29,23.412490846322843L300.735,23.406478578892354L303.18,24.861705458720394L305.625,24.85404503753128L308.07,24.846402165989833L310.515,24.63074682754316L312.96,23.005137884030603L315.40500000000003,22.999581064097185L317.85,22.99403703316245L320.295,24.451410658307225L322.74,24.44421250391402L325.185,24.437030859049223L327.63,24.42986566697911L330.07500000000005,23.005137884030603L332.52000000000004,22.999581064097185L334.96500000000003,22.99403703316245L337.40999999999997,24.451410658307225L339.85499999999996,24.44421250391402L342.29999999999995,24.02671954910762L344.745,24.020016680567146L347.19,22.59080411505352L349.635,22.585718779490406L352.08,22.580645161290324L354.525,24.040171566063417L356.96999999999997,24.033437826541302L359.415,24.02671954910762L361.86,21.12454019968475L364.305,22.59080411505352L366.75,22.585718779490406L369.195,22.580645161290324L371.64,23.418516966904047L374.085,23.621717752903027L376.53000000000003,23.61546499477536L378.975,24.861705458720394L381.42,21.96531791907517L383.865,22.170900692840647L386.31,22.166299674950185L388.755,23.418516966904047L391.20000000000005,23.412490846322843L393.64500000000004,23.61546499477536L396.09000000000003,21.969696969696972L398.53499999999997,21.96531791907517L400.97999999999996,22.170900692840647L403.42499999999995,22.166299674950185L405.87,23.005137884030603L408.315,22.999581064097185L410.76,23.20326393974268L413.205,21.969696969696972L415.65,21.96531791907517L418.09499999999997,21.755123489227522L420.54,21.75099727062775L422.985,23.005137884030603L425.43,22.999581064097185L427.875,23.20326393974268L430.32,21.969696969696972L432.765,21.548821548821586L435.21,21.755123489227522L437.65500000000003,21.75099727062775L440.1,23.005137884030603L442.545,22.585718779490406L444.99,22.790113112693767L447.435,21.55272305909619L449.88,21.548821548821586L452.32500000000005,21.544929059379946L454.77000000000004,21.75099727062775L457.21500000000003,22.59080411505352L459.65999999999997,22.585718779490406L462.10499999999996,20.291077831681093L464.54999999999995,21.342041504266284L466.995,21.548821548821586L469.44,21.544929059379946L471.885,22.385706778770363L474.33,22.59080411505352L476.775,22.585718779490406L479.21999999999997,20.291077831681093L481.665,21.342041504266284L484.11,21.548821548821586L486.555,21.127946127946153L489,22.385706778770363" stroke="#72b7b2" stroke-width="2"/></g></g><path class="foreground" aria-hidden="true" d="" display="none"/></g><g transform="translate(0,0)"><path class="background" aria-hidden="true" d="M0,0h489v200h-489Z"/><g><g class="mark-line role-mark marks" role="graphics-object" aria-roledescription="line mark container"><path aria-label="D: 1;  : 1; p: 0.25" role="graphics-symbol" aria-roledescription="line mark" d="M2.445,200L4.89,200L7.335,200L9.78,154.54545454545453L12.225000000000001,163.63636363636365L14.67,127.09811197206156L17.115000000000002,108.98483080513417L19.56,122.07792207792207L22.005,96.23743865389113L24.450000000000003,86.36363636363637L26.895,98.8664147588353L29.34,90.86543708392449L31.785,72.56176853055918L34.230000000000004,84.33957899606754L36.675,78.8636363636364L39.12,63.515151515151544L41.565000000000005,60.249554367201455L44.01,70.29679831736388L46.455,66.57449014863461L48.900000000000006,54.54545454545454L51.345,52.302553089954664L53.79,60.99023873926848L56.235,58.818065714617454L58.68,48.484848484848506L61.125,46.88995215311007L63.57,54.35630689206765L66.015,53.003038093012414L68.46000000000001,44.12121212121214L70.905,43.0949814349024L73.35,49.946663505985576L75.795,48.484848484848506L78.24,40.96969696969701L80.685,40.2494603022308L83.13000000000001,39.334521687462875L85.57499999999999,44.82961914868528L88.02,31.75757575757576L90.465,37.87678635763181L92.91,37.00702966758011L95.355,42.29814398865119L97.80000000000001,41.64222873900296L100.24499999999999,35.738335738335735L102.69,35.361488904796026L105.135,34.53834301291927L107.58,39.58602846054335L110.025,29.00432900432901L112.47,33.71162346195198L114.91499999999999,33.37289342511276L117.36,37.99080297134773L119.80499999999999,37.62886597938142L122.25,27.751196172248815L124.69500000000001,32.20439691027928L127.14,31.658588485636606L129.585,36.03476626732445L132.03,27.0451551083962L134.47500000000002,31.270823417420267L136.92000000000002,30.965909090909104L139.36499999999998,30.664154498351404L141.81,34.34864104967197L144.255,26.28380793518412L146.7,30.271423491762484L149.145,29.515938606847712L151.59,29.457364341085302L154.035,33.13858378125734L156.48,25.777355803465476L158.925,29.057808251566406L161.37,29.001528872162808L163.815,28.725398313027227L166.26000000000002,31.718987046329804L168.70499999999998,25.04734848484851L171.14999999999998,28.086310576582974L173.595,28.26979472140767L176.04,27.99719560645011L178.48499999999999,30.985915492957794L180.93,24.32113341204254L183.375,27.355051158414724L185.82,27.31958762886604L188.26500000000001,27.28439724588638L190.71,24.092682350159645L193.155,24.069712670748977L195.60000000000002,26.86217008797658L198.04500000000002,26.82869829399397L200.48999999999998,26.573426573426605L202.935,29.32776036224314L205.38,23.819591261451745L207.825,26.14807872539835L210.27,26.350799393161427L212.715,26.319460590560382L215.16,23.59167352699052L217.605,23.343108504398824L220.05,26.12759990652025L222.495,25.874125874125898L224.94,25.844653430860376L227.38500000000002,28.141285466126288L229.82999999999998,23.329823329823363L232.27499999999998,23.083206908624156L234.72,25.398673029915052L237.165,25.60296846011134L239.60999999999999,27.665972704140707L242.055,23.089506894134203L244.5,22.843822843822892L246.945,24.924436177633158L249.39000000000001,24.907235621521394L251.835,26.972010178117078L254.28,22.84980744544289L256.725,22.605051798393717L259.17,24.68361778706607L261.615,24.667052692530422L264.06,24.65057179161374L266.505,22.610722610722654L268.95000000000005,22.599395489421113L271.39500000000004,24.44341372912806L273.84000000000003,24.427480916030596L276.28499999999997,24.41162898015694L278.72999999999996,22.372250029100236L281.17499999999995,22.361546499477548L283.62,21.892393320964775L286.065,23.964839232014867L288.51,23.95016151361333L290.955,22.366891420599888L293.4,21.89713224195986L295.84499999999997,21.887666473653745L298.29,23.95749104770708L300.735,23.942850558820172L303.18,23.705408515535108L305.625,21.892393320964775L308.07,21.882951653944026L310.515,23.49543721843601L312.96,23.481967968660044L315.40500000000003,23.698425468337003L317.85,21.887666473653745L320.295,21.651630811936194L322.74,21.642824180895314L325.185,23.251526673579903L327.63,23.23870819446041L330.07500000000005,21.424435437174296L332.52000000000004,21.647221901351553L334.96500000000003,21.412090447623466L337.40999999999997,23.2451093210587L339.85499999999996,23.008849557522183L342.29999999999995,20.03238491788113L344.745,21.416194986715986L347.19,21.63843760801938L349.635,23.014959723820528L352.08,23.002754820936676L354.525,22.767396537888374L356.96999999999997,21.412090447623466L359.415,21.17755501785925L361.86,21.399839098954153L364.305,22.77318640955006L366.75,22.538117620084886L369.195,19.566220581449013L371.64,20.947113722779108L374.085,21.16998046201588L376.53000000000003,22.543617998163512L378.975,22.761621250286268L381.42,19.335486848177254L383.865,21.173762945914866L386.31,20.940121825077583L388.755,20.93663911845731L391.20000000000005,22.532631096862875L393.64500000000004,22.52715837621504L396.09000000000003,19.56271576524744L398.53499999999997,20.710263188139354L400.97999999999996,21.162444113263845L403.42499999999995,22.30364094343946L405.87,22.29845626072042L408.315,19.33256616800927L410.76,21.166207529843952L413.205,20.93316519546029L415.65,20.929700022899045L418.09499999999997,22.069754145225893L420.54,19.5609700034479L422.985,19.55922865013775L425.43,20.703886277656824L427.875,20.700709869475652L430.32,21.84105202973128L432.765,22.288125926770874L435.21,19.329660238751202L437.65500000000003,20.703886277656824L440.1,20.471719716052217L442.545,20.92279579716767L444.99,22.05999771871796L447.435,19.329660238751202L449.88,19.098933853032207L452.32500000000005,20.926243567753012L454.77000000000004,20.694380995888583L457.21500000000003,20.691228470400414L459.65999999999997,21.827295511506062L462.10499999999996,19.555759102358607L464.54999999999995,20.697541452258484L466.995,20.694380995888583L469.44,20.691228470400414L471.885,21.827295511506062L474.33,19.555759102358607L476.775,19.32532875929107L479.21999999999997,20.46596619460943L481.665,20.463100262347456L484.11,20.46024151287309L486.555,21.595175787916745L489,19.32532875929107" stroke="#e45756" stroke-width="2"/></g></g><path class="foreground" aria-hidden="true" d="" display="none"/></g><g transform="translate(0,0)"><path class="background" aria-hidden="true" d="M0,0h489v200h-489Z"/><g><g class="mark-line role-mark marks" role="graphics-object" aria-roledescription="line mark container"><path aria-label="D: 1;  : 1; p: 0.05" role="graphics-symbol" aria-roledescription="line mark" d="M2.445,200L4.89,200L7.335,200L9.78,200L12.225000000000001,200L14.67,200L17.115000000000002,154.4658493870403L19.56,109.09090909090908L22.005,127.4035317200785L24.450000000000003,90.90909090909089L26.895,108.9241034195163L29.34,78.90909090909093L31.785,95.91078066914503L34.230000000000004,70.18181818181819L36.675,86.0651543578373L39.12,63.63636363636365L41.565000000000005,78.67331156556112L44.01,58.54545454545455L46.455,72.45074317317663L48.900000000000006,84.29752066115705L51.345,51.49201943095076L53.79,63.219349457881634L56.235,48.484848484848506L58.68,60.449513586045L61.125,57.14285714285718L63.57,43.86617100371748L66.015,54.807063440157L68.46000000000001,42.60515603799191L70.905,41.23847167325432L73.35,50.56918390251723L75.795,39.4160583941606L78.24,48.8616179557565L80.685,46.90656565656568L83.13000000000001,37.37193039518629L85.57499999999999,45.24757204266836L88.02,44.0667394355216L90.465,35.78745198463507L92.91,42.989480295179774L95.355,41.9106317411402L97.80000000000001,33.992094861660036L100.24499999999999,40.55944055944054L102.69,25.505492755930568L105.135,32.5770614927241L107.58,39.10167666512842L110.025,38.48484848484848L112.47,31.81043828403285L114.91499999999999,31.29957291031118L117.36,36.8452739313667L119.80499999999999,30.773955773955763L122.25,30.30303030303032L124.69500000000001,35.825358851674636L127.14,29.774252593044558L129.585,29.62071041541241L132.03,34.548430293111146L134.47500000000002,23.636363636363654L136.92000000000002,28.665568369028005L139.36499999999998,33.87622149837131L141.81,23.00618121513647L144.255,28.315946348733245L146.7,28.20097244732578L149.145,23.273925415605778L151.59,22.927480349992614L154.035,27.581142605375252L156.48,31.854545454545445L158.925,22.61640798226161L161.37,26.965305226174795L163.815,26.88125271857331L166.26000000000002,22.59488084730801L168.70499999999998,26.645264847512017L171.14999999999998,26.56453244688537L173.595,30.513335245196416L176.04,22.25454545454546L178.48499999999999,25.97402597402596L180.93,25.912670007158177L183.375,22.241554298970566L185.82,22.209436133486804L188.26500000000001,25.328759291023452L190.71,28.960431144518516L193.155,21.915840873186898L195.60000000000002,25.591336563123424L198.04500000000002,25.261965448881373L200.48999999999998,21.62317178090052L202.935,21.880779627258562L205.38,24.96818888731798L207.825,24.64521568076443L210.27,21.875000000000043L212.715,21.569734613212876L215.16,24.63524130190804L217.605,17.897727272727295L220.05,21.00508187464709L222.495,24.074074074074137L224.94,24.037925264919167L227.38500000000002,21.00070472163498L229.82999999999998,21.26348228043149L232.27499999999998,24.30739245440625L234.72,23.725055432372532L237.165,20.70317971704725L239.60999999999999,20.966170123903694L242.055,23.99335823993365L244.5,23.691460055096435L246.945,20.687734929695157L249.39000000000001,20.949218209492226L251.835,23.415977961432553L254.28,18.181818181818187L256.725,20.672478206724843L259.17,20.661157024793454L261.615,23.65826944140197L264.06,17.90507817905087L266.505,20.932471461972213L268.95000000000005,20.92004381161008L271.39500000000004,23.361046749352642L273.84000000000003,18.45688350983363L276.28499999999997,20.646221248630937L278.72999999999996,20.635136976966084L281.17499999999995,23.066485753052923L283.62,18.181818181818187L286.065,20.635136976966084L288.51,20.084250577524145L290.955,22.510822510822504L293.4,18.454409159056894L295.84499999999997,20.084250577524145L298.29,20.346320346320358L300.735,22.760942760942825L303.18,17.91004212528884L305.625,20.346320346320358L308.07,20.606060606060627L310.515,22.21028602121664L312.96,18.181818181818187L315.40500000000003,20.070137577556004L317.85,20.33033436283067L320.295,21.930646672914712L322.74,18.181818181818187L325.185,20.33033436283067L327.63,20.056232427366496L330.07500000000005,18.181818181818187L332.52000000000004,17.912856374394927L334.96500000000003,20.324005891016217L337.40999999999997,20.05072753971435L339.85499999999996,21.642486356981294L342.29999999999995,18.449591645467976L344.745,20.05072753971435L347.19,20.045254891521402L349.635,21.632382216323887L352.08,18.448805232946253L354.525,20.045254891521402L356.96999999999997,20.039814200398197L359.415,20.034405187243642L361.86,17.915222607304738L364.305,18.44724618447251L366.75,20.034405187243642L369.195,20.029027576197358L371.64,18.181818181818187L374.085,17.916777100450567L376.53000000000003,19.767441860465084L378.975,19.762845849802346L381.42,18.181818181818187L383.865,18.181818181818187L386.31,20.026350461133056L388.755,20.021019442984755L391.20000000000005,18.446088794926L393.64500000000004,17.917931125478283L396.09000000000003,19.497434548085746L398.53499999999997,19.7560015741834L400.97999999999996,18.181818181818187L403.42499999999995,18.181818181818187L405.87,18.181818181818187L408.315,20.01308044473509L410.76,16.33728590250325L413.205,17.919075144508657L415.65,18.181818181818187L418.09499999999997,19.749216300940443L420.54,19.744725188851262L422.985,18.443804034582122L425.43,17.920209287115707L427.875,19.486109299595668L430.32,19.742489270386265L432.765,18.181818181818187L435.21,18.442676405373646L437.65500000000003,17.92133368064599L440.1,19.74025974025977L442.545,16.614420062695913L444.99,18.181818181818187L447.435,17.92170633372352L449.88,19.478666839579795L452.32500000000005,16.616668840485183L454.77000000000004,18.181818181818187L457.21500000000003,18.441187913370506L459.65999999999997,19.47681947681945L462.10499999999996,19.73140495867771L464.54999999999995,16.883116883116898L466.995,18.44081844081844L469.44,18.181818181818187L471.885,19.729206963249535L474.33,16.884969524056558L476.775,18.440450019397403L479.21999999999997,18.181818181818187L481.665,19.727015194437314L484.11,16.88681688681686L486.555,18.440082644628085L489,18.181818181818187" stroke="#f58518" stroke-width="2"/></g></g><path class="foreground" aria-hidden="true" d="" display="none"/></g><g transform="translate(0,0)"><path class="background" aria-hidden="true" d="M0,0h489v200h-489Z"/><g><g class="mark-line role-mark marks" role="graphics-object" aria-roledescription="line mark container"><path aria-label="D: 1;  : 1; p: 0.01" role="graphics-symbol" aria-roledescription="line mark" d="M2.445,200L4.89,200L7.335,200L9.78,200L12.225000000000001,200L14.67,139.27272727272725L17.115000000000002,139.8177579995762L19.56,200L22.005,154.1359541359541L24.450000000000003,154.54545454545453L26.895,109.59040959040955L29.34,127.6215391323305L31.785,127.74498229043685L34.230000000000004,91.01094983447928L36.675,109.09090909090912L39.12,78.78787878787878L41.565000000000005,96.29302736098853L44.01,70.06309885487265L46.455,43.87351778656124L48.900000000000006,86.36363636363637L51.345,63.51706036745406L53.79,78.63969771060233L56.235,58.17251801906538L58.68,54.80706344015695L61.125,36.363636363636395L63.57,51.27874489576618L66.015,34.26401608219789L68.46000000000001,48.69675778766687L70.905,33.55292050944221L73.35,45.895444047868985L75.795,57.60257441673373L78.24,44.33374844333753L80.685,54.94505494505499L83.13000000000001,42.09441352298497L85.57499999999999,40.85935945892185L88.02,29.238329238329275L90.465,39.176074470192155L92.91,28.757372381533465L95.355,38.646202282565966L97.80000000000001,37.32057416267942L100.24499999999999,27.606518751227192L102.69,36.13445378151259L105.135,27.174975562072355L107.58,35.33447684391078L110.025,34.91355270496375L112.47,26.169646253328228L114.91499999999999,33.79810373675405L117.36,25.773391535395753L119.80499999999999,25.974025974026006L122.25,32.72727272727276L124.69500000000001,25.231910946196678L127.14,32.00000000000003L129.585,18.5521199777819L132.03,25.09090909090912L134.47500000000002,31.041257367387054L136.92000000000002,24.727272727272755L139.36499999999998,24.61153777460263L141.81,30.138913311060357L144.255,23.908375089477452L146.7,30.138913311060357L149.145,18.181818181818187L151.59,23.819591261451745L154.035,29.285218598195726L156.48,18.534178999295325L158.925,23.396488788458235L161.37,28.473413379073765L163.815,17.833507488679956L166.26000000000002,22.99364151916139L168.70499999999998,28.01899592944377L171.14999999999998,18.52551984877133L173.595,22.93967714528464L176.04,27.574639382757482L178.48499999999999,18.181818181818187L180.93,22.886909763065066L183.375,27.156390227688277L185.82,17.84449316916856L188.26500000000001,22.185154295246058L190.71,26.431281966672238L193.155,17.847593582887768L195.60000000000002,22.14876033057851L198.04500000000002,26.68410725964683L200.48999999999998,18.181818181818187L202.935,22.120118148999033L205.38,18.513603185136105L207.825,18.181818181818187L210.27,21.766047572499225L212.715,25.60955917971903L215.16,18.181818181818187L217.605,22.064056939501775L220.05,22.029822029821954L222.495,17.857142857142904L224.94,21.39983909895409L227.38500000000002,21.690590111642738L229.82999999999998,18.181818181818187L232.27499999999998,21.382842509603094L234.72,21.672219577978712L237.165,18.181818181818187L239.60999999999999,17.86339754816111L242.055,21.654040404040398L244.5,18.181818181818187L246.945,17.865061767500755L249.39000000000001,21.012897137464613L251.835,15.326035221323187L254.28,18.181818181818187L256.725,21.311218901580364L259.17,15.019762845849826L261.615,17.86779714240849L264.06,17.86995166068921L266.505,20.969490475453L268.95000000000005,18.181818181818187L271.39500000000004,18.4920881166615L273.84000000000003,20.651335082574462L276.28499999999997,15.379825653798274L278.72999999999996,18.49103277674704L281.17499999999995,20.642978003384105L283.62,15.389388768228308L286.065,18.489984591679498L288.51,18.181818181818187L290.955,15.398886827458247L293.4,18.488943488943477L295.84499999999997,18.181818181818187L298.29,20.310124657950745L300.735,15.422351678675405L303.18,18.181818181818187L305.625,18.181818181818187L308.07,15.737203972498115L310.515,17.877774399513523L312.96,18.48384173965567L315.40500000000003,15.745393634840909L317.85,15.757575757575793L320.295,18.181818181818187L322.74,20.28202820282028L325.185,16.067653276955607L327.63,17.88079470198669L330.07500000000005,17.882282462183596L332.52000000000004,16.07115935474144L334.96500000000003,16.08160816081603L337.40999999999997,18.480370204508123L339.85499999999996,18.478906714200804L342.29999999999995,16.085068144376223L344.745,18.181818181818187L347.19,18.47842206732908L349.635,15.789473684210552L352.08,16.098794822199068L354.525,18.181818181818187L356.96999999999997,17.886658795749668L359.415,16.102198455139582L361.86,16.407982261640818L364.305,17.887137174009116L366.75,16.10559098324189L369.195,16.410861865407323L371.64,17.887614004118802L374.085,18.181818181818187L376.53000000000003,16.413732134963887L378.975,16.1257159641651L381.42,18.181818181818187L383.865,14.651368049426328L386.31,16.129032258064456L388.755,18.473661170290367L391.20000000000005,18.181818181818187L393.64500000000004,16.425120772946865L396.09000000000003,16.13891726251282L398.53499999999997,18.181818181818187L400.97999999999996,14.674071908798636L403.42499999999995,16.142191142191198L405.87,16.731912425692386L408.315,18.47087729440675L410.76,14.690909090909088L413.205,16.4419312744672L415.65,16.158404393698532L418.09499999999997,18.469505178365985L420.54,16.44470179502031L422.985,16.45021645021647L425.43,18.181818181818187L427.875,15.002167943344435L430.32,16.741103587379392L432.765,16.745655608214904L435.21,18.181818181818187L437.65500000000003,14.724103155164991L440.1,16.45842309349421L442.545,16.463851109520444L444.99,17.896389324960825L447.435,15.027244049326093L449.88,16.75242995997719L452.32500000000005,16.756910800797996L454.77000000000004,14.740464582735902L457.21500000000003,15.037164093767919L459.65999999999997,16.471929324593894L462.10499999999996,18.181818181818187L464.54999999999995,15.327529613243929L466.995,16.75914070280271L469.44,17.047227343639236L471.885,17.898612291135674L474.33,15.051927727984072L476.775,16.763579634094494L479.21999999999997,16.76799095150574L481.665,15.625000000000089L484.11,15.06169337682599L486.555,16.76799095150574L489,16.772374911909814" stroke="#4c78a8" stroke-width="2"/></g></g><path class="foreground" aria-hidden="true" d="" display="none"/></g></g><g class="mark-group role-legend" role="graphics-symbol" aria-roledescription="legend" aria-label="Symbol legend titled 'p' for stroke color with 7 values: 0.01, 0.05, 0.25, 0.5, 0.75, 0.95, 0.99"><g transform="translate(509,0)"><path class="background" aria-hidden="true" d="M0,0h39v105h-39Z" pointer-events="none"/><g><g class="mark-group role-legend-entry"><g transform="translate(0,16)"><path class="background" aria-hidden="true" d="M0,0h0v0h0Z" pointer-events="none"/><g><g class="mark-group role-scope" role="graphics-object" aria-roledescription="group mark container"><g transform="translate(0,0)"><path class="background" aria-hidden="true" d="M0,0h38.28333282470703v11h-38.28333282470703Z" pointer-events="none" opacity="1"/><g><g class="mark-symbol role-legend-symbol" pointer-events="none"><path transform="translate(6,6)" d="M-5,0L5,0" stroke="#4c78a8" stroke-width="1.5" opacity="1"/></g><g class="mark-text role-legend-label" pointer-events="none"><text text-anchor="start" transform="translate(16,9)" font-family="sans-serif" font-size="10px" fill="#000" opacity="1">0.01</text></g></g><path class="foreground" aria-hidden="true" d="" pointer-events="none" display="none"/></g><g transform="translate(0,13)"><path class="background" aria-hidden="true" d="M0,0h38.28333282470703v11h-38.28333282470703Z" pointer-events="none" opacity="1"/><g><g class="mark-symbol role-legend-symbol" pointer-events="none"><path transform="translate(6,6)" d="M-5,0L5,0" stroke="#f58518" stroke-width="1.5" opacity="1"/></g><g class="mark-text role-legend-label" pointer-events="none"><text text-anchor="start" transform="translate(16,9)" font-family="sans-serif" font-size="10px" fill="#000" opacity="1">0.05</text></g></g><path class="foreground" aria-hidden="true" d="" pointer-events="none" display="none"/></g><g transform="translate(0,26)"><path class="background" aria-hidden="true" d="M0,0h38.28333282470703v11h-38.28333282470703Z" pointer-events="none" opacity="1"/><g><g class="mark-symbol role-legend-symbol" pointer-events="none"><path transform="translate(6,6)" d="M-5,0L5,0" stroke="#e45756" stroke-width="1.5" opacity="1"/></g><g class="mark-text role-legend-label" pointer-events="none"><text text-anchor="start" transform="translate(16,9)" font-family="sans-serif" font-size="10px" fill="#000" opacity="1">0.25</text></g></g><path class="foreground" aria-hidden="true" d="" pointer-events="none" display="none"/></g><g transform="translate(0,39)"><path class="background" aria-hidden="true" d="M0,0h38.28333282470703v11h-38.28333282470703Z" pointer-events="none" opacity="1"/><g><g class="mark-symbol role-legend-symbol" pointer-events="none"><path transform="translate(6,6)" d="M-5,0L5,0" stroke="#72b7b2" stroke-width="1.5" opacity="1"/></g><g class="mark-text role-legend-label" pointer-events="none"><text text-anchor="start" transform="translate(16,9)" font-family="sans-serif" font-size="10px" fill="#000" opacity="1">0.5</text></g></g><path class="foreground" aria-hidden="true" d="" pointer-events="none" display="none"/></g><g transform="translate(0,52)"><path class="background" aria-hidden="true" d="M0,0h38.28333282470703v11h-38.28333282470703Z" pointer-events="none" opacity="1"/><g><g class="mark-symbol role-legend-symbol" pointer-events="none"><path transform="translate(6,6)" d="M-5,0L5,0" stroke="#54a24b" stroke-width="1.5" opacity="1"/></g><g class="mark-text role-legend-label" pointer-events="none"><text text-anchor="start" transform="translate(16,9)" font-family="sans-serif" font-size="10px" fill="#000" opacity="1">0.75</text></g></g><path class="foreground" aria-hidden="true" d="" pointer-events="none" display="none"/></g><g transform="translate(0,65)"><path class="background" aria-hidden="true" d="M0,0h38.28333282470703v11h-38.28333282470703Z" pointer-events="none" opacity="1"/><g><g class="mark-symbol role-legend-symbol" pointer-events="none"><path transform="translate(6,6)" d="M-5,0L5,0" stroke="#eeca3b" stroke-width="1.5" opacity="1"/></g><g class="mark-text role-legend-label" pointer-events="none"><text text-anchor="start" transform="translate(16,9)" font-family="sans-serif" font-size="10px" fill="#000" opacity="1">0.95</text></g></g><path class="foreground" aria-hidden="true" d="" pointer-events="none" display="none"/></g><g transform="translate(0,78)"><path class="background" aria-hidden="true" d="M0,0h38.28333282470703v11h-38.28333282470703Z" pointer-events="none" opacity="1"/><g><g class="mark-symbol role-legend-symbol" pointer-events="none"><path transform="translate(6,6)" d="M-5,0L5,0" stroke="#b279a2" stroke-width="1.5" opacity="1"/></g><g class="mark-text role-legend-label" pointer-events="none"><text text-anchor="start" transform="translate(16,9)" font-family="sans-serif" font-size="10px" fill="#000" opacity="1">0.99</text></g></g><path class="foreground" aria-hidden="true" d="" pointer-events="none" display="none"/></g></g></g><path class="foreground" aria-hidden="true" d="" pointer-events="none" display="none"/></g></g><g class="mark-text role-legend-title" pointer-events="none"><text text-anchor="start" transform="translate(0,9)" font-family="sans-serif" font-size="11px" font-weight="bold" fill="#000" opacity="1">p</text></g></g><path class="foreground" aria-hidden="true" d="" pointer-events="none" display="none"/></g></g></g><path class="foreground" aria-hidden="true" d="" display="none"/></g></g></g></svg>