<svg xmlns="http://www.w3.org/2000/svg" xmlns:xlink="http://www.w3.org/1999/xlink" version="1.1" class="marks" width="298" height="247" viewBox="0 0 298 247"><rect width="298" height="247" fill="white"/><g fill="none" stroke-miterlimit="10" transform="translate(34,10)"><g class="mark-group role-frame root" role="graphics-object" aria-roledescription="group mark container"><g transform="translate(0,0)"><path class="background" aria-hidden="true" d="M0.5,0.5h200v200h-200Z" stroke="#ddd"/><g><g class="mark-group role-axis" aria-hidden="true"><g transform="translate(0.5,200.5)"><path class="background" aria-hidden="true" d="M0,0h0v0h0Z" pointer-events="none"/><g><g class="mark-rule role-axis-grid" pointer-events="none"><line transform="translate(0,-200)" x2="0" y2="200" stroke="#ddd" stroke-width="1" opacity="1"/><line transform="translate(40,-200)" x2="0" y2="200" stroke="#ddd" stroke-width="1" opacity="1"/><line transform="translate(80,-200)" x2="0" y2="200" stroke="#ddd" stroke-width="1" opacity="1"/><line transform="translate(120,-200)" x2="0" y2="200" stroke="#ddd" stroke-width="1" opacity="1"/><line transform="translate(160,-200)" x2="0" y2="200" stroke="#ddd" stroke-width="1" opacity="1"/><line transform="translate(200,-200)" x2="0" y2="200" stroke="#ddd" stroke-width="1" opacity="1"/></g></g><path class="foreground" aria-hidden="true" d="" pointer-events="none" display="none"/></g></g><g class="mark-group role-axis" aria-hidden="true"><g transform="translate(0.5,0.5)"><path class="background" aria-hidden="true" d="M0,0h0v0h0Z" pointer-events="none"/><g><g class="mark-rule role-axis-grid" pointer-events="none"><line transform="translate(0,200)" x2="200" y2="0" stroke="#ddd" stroke-width="1" opacity="1"/><line transform="translate(0,171)" x2="200" y2="0" stroke="#ddd" stroke-width="1" opacity="1"/><line transform="translate(0,143)" x2="200" y2="0" stroke="#ddd" stroke-width="1" opacity="1"/><line transform="translate(0,114)" x2="200" y2="0" stroke="#ddd" stroke-width="1" opacity="1"/><line transform="translate(0,86)" x2="200" y2="0" stroke="#ddd" stroke-width="1" opacity="1"/><line transform="translate(0,57)" x2="200" y2="0" stroke="#ddd" stroke-width="1" opacity="1"/><line transform="translate(0,29)" x2="200" y2="0" stroke="#ddd" stroke-width="1" opacity="1"/><line transform="translate(0,0)" x2="200" y2="0" stroke="#ddd" stroke-width="1" opacity="1"/></g></g><path class="foreground" aria-hidden="true" d="" pointer-events="none" display="none"/></g></g><g class="mark-group role-axis" role="graphics-symbol" aria-roledescription="axis" aria-label="X-axis titled 'D' for a linear scale with values from 0 to 50"><g transform="translate(0.5,200.5)"><path class="background" aria-hidden="true" d="M0,0h0v0h0Z" pointer-events="none"/><g><g class="mark-rule role-axis-tick" pointer-events="none"><line transform="translate(0,0)" x2="0" y2="5" stroke="#888" stroke-width="1" opacity="1"/><line transform="translate(40,0)" x2="0" y2="5" stroke="#888" stroke-width="1" opacity="1"/><line transform="translate(80,0)" x2="0" y2="5" stroke="#888" stroke-width="1" opacity="1"/><line transform="translate(120,0)" x2="0" y2="5" stroke="#888" stroke-width="1" opacity="1"/><line transform="translate(160,0)" x2="0" y2="5" stroke="#888" stroke-width="1" opacity="1"/><line transform="translate(200,0)" x2="0" y2="5" stroke="#888" stroke-width="1" opacity="1"/></g><g class="mark-text role-axis-label" pointer-events="none"><text text-anchor="start" transform="translate(0,15)" font-family="sans-serif" font-size="10px" fill="#000" opacity="1">1</text><text text-anchor="middle" transform="translate(40,15)" font-family="sans-serif" font-size="10px" fill="#000" opacity="1">10</text><text text-anchor="middle" transform="translate(80,15)" font-family="sans-serif" font-size="10px" fill="#000" opacity="1">20</text><text text-anchor="middle" transform="translate(120,15)" font-family="sans-serif" font-size="10px" fill="#000" opacity="1">30</text><text text-anchor="middle" transform="translate(160,15)" font-family="sans-serif" font-size="10px" fill="#000" opacity="1">40</text><text text-anchor="end" transform="translate(200,15)" font-family="sans-serif" font-size="10px" fill="#000" opacity="1">50</text></g><g class="mark-rule role-axis-domain" pointer-events="none"><line transform="translate(0,0)" x2="200" y2="0" stroke="#888" stroke-width="1" opacity="1"/></g><g class="mark-text role-axis-title" pointer-events="none"><text text-anchor="middle" transform="translate(100,30)" font-family="sans-serif" font-size="11px" font-weight="bold" fill="#000" opacity="1">D</text></g></g><path class="foreground" aria-hidden="true" d="" pointer-events="none" display="none"/></g></g><g class="mark-group role-axis" role="graphics-symbol" aria-roledescription="axis" aria-label="Y-axis titled 'A / D' for a linear scale with values from 0 to 7"><g transform="translate(0.5,0.5)"><path class="background" aria-hidden="true" d="M0,0h0v0h0Z" pointer-events="none"/><g><g class="mark-rule role-axis-tick" pointer-events="none"><line transform="translate(0,200)" x2="-5" y2="0" stroke="#888" stroke-width="1" opacity="1"/><line transform="translate(0,171)" x2="-5" y2="0" stroke="#888" stroke-width="1" opacity="1"/><line transform="translate(0,143)" x2="-5" y2="0" stroke="#888" stroke-width="1" opacity="1"/><line transform="translate(0,114)" x2="-5" y2="0" stroke="#888" stroke-width="1" opacity="1"/><line transform="translate(0,86)" x2="-5" y2="0" stroke="#888" stroke-width="1" opacity="1"/><line transform="translate(0,57)" x2="-5" y2="0" stroke="#888" stroke-width="1" opacity="1"/><line transform="translate(0,29)" x2="-5" y2="0" stroke="#888" stroke-width="1" opacity="1"/><line transform="translate(0,0)" x2="-5" y2="0" stroke="#888" stroke-width="1" opacity="1"/></g><g class="mark-text role-axis-label" pointer-events="none"><text text-anchor="end" transform="translate(-7,203)" font-family="sans-serif" font-size="10px" fill="#000" opacity="1">0</text><text text-anchor="end" transform="translate(-7,174.42857142857144)" font-family="sans-serif" font-size="10px" fill="#000" opacity="1">1</text><text text-anchor="end" transform="translate(-7,145.85714285714286)" font-family="sans-serif" font-size="10px" fill="#000" opacity="1">2</text><text text-anchor="end" transform="translate(-7,117.28571428571428)" font-family="sans-serif" font-size="10px" fill="#000" opacity="1">3</text><text text-anchor="end" transform="translate(-7,88.71428571428572)" font-family="sans-serif" font-size="10px" fill="#000" opacity="1">4</text><text text-anchor="end" transform="translate(-7,60.14285714285714)" font-family="sans-serif" font-size="10px" fill="#000" opacity="1">5</text><text text-anchor="end" transform="translate(-7,31.57142857142858)" font-family="sans-serif" font-size="10px" fill="#000" opacity="1">6</text><text text-anchor="end" transform="translate(-7,3)" font-family="sans-serif" font-size="10px" fill="#000" opacity="1">7</text></g><g class="mark-rule role-axis-domain" pointer-events="none"><line transform="translate(0,200)" x2="0" y2="-200" stroke="#888" stroke-width="1" opacity="1"/></g><g class="mark-text role-axis-title" pointer-events="none"><text text-anchor="middle" transform="translate(-17.366666793823242,100) rotate(-90) translate(0,-2)" font-family="sans-serif" font-size="11px" font-weight="bold" fill="#000" opacity="1">A / D</text></g></g><path class="foreground" aria-hidden="true" d="" pointer-events="none" display="none"/></g></g><g class="mark-group role-scope pathgroup" role="graphics-object" aria-roledescription="group mark container"><g transform="translate(0,0)"><path class="background" aria-hidden="true" d="M0,0h200v200h-200Z"/><g><g class="mark-line role-mark marks" role="graphics-object" aria-roledescription="line mark container"><path aria-label="D: 1; A / D: 6; p: 0.99" role="graphics-symbol" aria-roledescription="line mark" d="M4,28.57142857142858L8,57.14285714285714L12,19.05714285714286L16,35.71428571428572L20,45.71428571428571L24,57.14285714285714L28.000000000000004,65.3142857142857L32,71.42857142857142L36,76.2L40,80L44,83.11428571428571L48,85.71428571428572L52,90.1142857142857L56.00000000000001,91.82857142857144L60,93.34285714285716L64,96.42857142857142L68,97.48571428571428L72,100L76,100.74285714285713L80,102.85714285714285L84,103.4L88,105.2L92,105.60000000000001L96,107.14285714285714L100,108.57142857142857L104,108.80000000000001L108,110.05714285714285L112.00000000000001,111.22857142857141L115.99999999999999,111.34285714285714L120,112.37142857142857L124,113.37142857142857L128,113.39999999999999L132,114.28571428571428L136,115.11428571428573L140,115.91428571428573L144,115.88571428571429L148,116.6L152,117.28571428571428L156,117.94285714285715L160,117.85714285714286L164,118.45714285714286L168,119.05714285714284L172,119.6L176,119.48571428571428L180,120.00000000000001L184,120.48571428571428L188,120.97142857142858L192,121.42857142857144L196,121.85714285714286L200,121.71428571428571" stroke="#b279a2" stroke-width="2"/></g></g><path class="foreground" aria-hidden="true" d="" display="none"/></g><g transform="translate(0,0)"><path class="background" aria-hidden="true" d="M0,0h200v200h-200Z"/><g><g class="mark-line role-mark marks" role="graphics-object" aria-roledescription="line mark container"><path aria-label="D: 1; A / D: 5; p: 0.95" role="graphics-symbol" aria-roledescription="line mark" d="M4,57.14285714285714L8,85.71428571428572L12,66.65714285714286L16,78.57142857142858L20,85.71428571428572L24,90.48571428571428L28.000000000000004,93.88571428571429L32,100L36,101.6L40,102.85714285714285L44,106.4857142857143L48,109.51428571428572L52,109.88571428571427L56.00000000000001,112.25714285714285L60,112.37142857142857L64,114.28571428571428L68,115.97142857142858L72,117.45714285714286L76,117.28571428571428L80,118.57142857142857L84,119.71428571428571L88,120.77142857142857L92,120.48571428571428L96,121.42857142857144L100,122.28571428571429L104,123.08571428571429L108,123.8L112.00000000000001,123.45714285714287L115.99999999999999,124.14285714285715L120,124.77142857142857L124,125.34285714285716L128,125.88571428571429L132,126.4L136,126.88571428571427L140,127.34285714285714L144,126.97142857142856L148,127.4L152,127.82857142857145L156,128.2L160,128.57142857142856L164,128.9142857142857L168,129.25714285714287L172,129.57142857142858L176,129.85714285714286L180,130.17142857142855L184,130.42857142857142L188,130.68571428571428L192,130.94285714285715L196,131.20000000000002L200,131.42857142857142" stroke="#eeca3b" stroke-width="2"/></g></g><path class="foreground" aria-hidden="true" d="" display="none"/></g><g transform="translate(0,0)"><path class="background" aria-hidden="true" d="M0,0h200v200h-200Z"/><g><g class="mark-line role-mark marks" role="graphics-object" aria-roledescription="line mark container"><path aria-label="D: 1; A / D: 3; p: 0.75" role="graphics-symbol" aria-roledescription="line mark" d="M4,114.28571428571428L8,128.57142857142856L12,123.8L16,121.42857142857144L20,125.71428571428571L24,128.57142857142856L28.000000000000004,130.6L32,132.14285714285714L36,133.34285714285713L40,134.2857142857143L44,135.05714285714285L48,135.71428571428572L52,136.25714285714287L56.00000000000001,136.74285714285713L60,137.14285714285714L64,137.48571428571427L68,137.82857142857142L72,138.0857142857143L76,138.34285714285716L80,138.57142857142856L84,138.7714285714286L88,138.97142857142856L92,139.14285714285714L96,139.28571428571428L100,139.42857142857142L104,140.65714285714284L108,140.74285714285713L112.00000000000001,140.82857142857142L115.99999999999999,140.88571428571427L120,140.94285714285712L124,141L128,141.05714285714285L132,141.1142857142857L136,141.17142857142858L140,142.02857142857144L144,142.05714285714285L148,142.0857142857143L152,142.11428571428573L156,142.11428571428573L160,142.14285714285714L164,142.17142857142858L168,142.85714285714286L172,142.85714285714286L176,142.85714285714286L180,142.85714285714286L184,142.85714285714286L188,142.85714285714286L192,142.85714285714286L196,143.42857142857142L200,143.42857142857142" stroke="#54a24b" stroke-width="2"/></g></g><path class="foreground" aria-hidden="true" d="" display="none"/></g><g transform="translate(0,0)"><path class="background" aria-hidden="true" d="M0,0h200v200h-200Z"/><g><g class="mark-line role-mark marks" role="graphics-object" aria-roledescription="line mark container"><path aria-label="D: 1; A / D: 3; p: 0.5" role="graphics-symbol" aria-roledescription="line mark" d="M4,114.28571428571428L8,142.85714285714286L12,142.85714285714286L16,150L20,148.57142857142858L24,147.62857142857143L28.000000000000004,151.0285714285714L32,150L36,149.2L40,148.57142857142858L44,150.65714285714287L48,150L52,149.45714285714286L56.00000000000001,151.0285714285714L60,150.4857142857143L64,150L68,151.25714285714284L72,150.8L76,150.37142857142857L80,150L84,151.0285714285714L88,150.65714285714287L92,150.31428571428572L96,151.2L100,150.85714285714283L104,150.54285714285714L108,150.25714285714287L112.00000000000001,151.0285714285714L115.99999999999999,150.74285714285716L120,150.4857142857143L124,151.14285714285717L128,150.8857142857143L132,150.65714285714287L136,150.42857142857142L140,151.0285714285714L144,150.8L148,150.57142857142858L152,151.1142857142857L156,150.9142857142857L160,150.71428571428572L164,150.5142857142857L168,151.0285714285714L172,150.82857142857142L176,150.65714285714287L180,151.1142857142857L184,150.94285714285712L188,150.77142857142854L192,151.2L196,151.0285714285714L200,150.85714285714283" stroke="#72b7b2" stroke-width="2"/></g></g><path class="foreground" aria-hidden="true" d="" display="none"/></g><g transform="translate(0,0)"><path class="background" aria-hidden="true" d="M0,0h200v200h-200Z"/><g><g class="mark-line role-mark marks" role="graphics-object" aria-roledescription="line mark container"><path aria-label="D: 1; A / D: 2; p: 0.25" role="graphics-symbol" aria-roledescription="line mark" d="M4,142.85714285714286L8,157.14285714285714L12,161.9142857142857L16,164.28571428571428L20,165.7142857142857L24,166.65714285714287L28.000000000000004,163.25714285714287L32,164.28571428571428L36,165.0857142857143L40,162.85714285714286L44,163.62857142857143L48,161.9142857142857L52,162.62857142857143L56.00000000000001,163.25714285714287L60,161.9142857142857L64,162.4857142857143L68,161.34285714285716L72,161.9142857142857L76,160.9142857142857L80,161.42857142857144L84,160.54285714285714L88,161.02857142857144L92,160.25714285714287L96,160.71428571428572L100,160L104,160.42857142857144L108,159.79999999999998L112.00000000000001,160.2L115.99999999999999,159.60000000000002L120,160L124,159.45714285714286L128,159.82857142857142L132,159.31428571428572L136,158.82857142857142L140,159.17142857142858L144,158.74285714285713L148,159.0857142857143L152,158.65714285714284L156,158.9714285714286L160,158.57142857142858L164,158.8857142857143L168,158.5142857142857L172,158.14285714285714L176,158.42857142857142L180,158.0857142857143L184,158.37142857142857L188,158.05714285714285L192,158.34285714285713L196,158.02857142857144L200,157.71428571428572" stroke="#e45756" stroke-width="2"/></g></g><path class="foreground" aria-hidden="true" d="" display="none"/></g><g transform="translate(0,0)"><path class="background" aria-hidden="true" d="M0,0h200v200h-200Z"/><g><g class="mark-line role-mark marks" role="graphics-object" aria-roledescription="line mark container"><path aria-label="D: 1; A / D: 2; p: 0.05" role="graphics-symbol" aria-roledescription="line mark" d="M4,142.85714285714286L8,171.42857142857144L12,171.42857142857144L16,178.57142857142858L20,177.14285714285714L24,180.94285714285715L28.000000000000004,179.6L32,178.57142857142858L36,177.77142857142857L40,177.14285714285714L44,176.62857142857143L48,176.2L52,175.82857142857142L56.00000000000001,175.5142857142857L60,175.22857142857143L64,175L68,174.8L72,174.6L76,174.42857142857142L80,174.28571428571428L84,172.8L88,172.71428571428572L92,172.65714285714287L96,172.62857142857143L100,171.42857142857144L104,171.42857142857144L108,171.42857142857144L112.00000000000001,171.42857142857144L115.99999999999999,170.45714285714286L120,170.4857142857143L124,170.5142857142857L128,170.54285714285714L132,169.68571428571428L136,169.74285714285716L140,169.79999999999998L144,169.05714285714285L148,169.11428571428573L152,169.17142857142858L156,168.4857142857143L160,168.57142857142858L164,168.62857142857143L168,168.0285714285714L172,168.1142857142857L176,168.17142857142858L180,167.6285714285714L184,167.7142857142857L188,167.17142857142858L192,167.25714285714287L196,167.34285714285716L200,166.85714285714286" stroke="#f58518" stroke-width="2"/></g></g><path class="foreground" aria-hidden="true" d="" display="none"/></g><g transform="translate(0,0)"><path class="background" aria-hidden="true" d="M0,0h200v200h-200Z"/><g><g class="mark-line role-mark marks" role="graphics-object" aria-roledescription="line mark container"><path aria-label="D: 1; A / D: 2; p: 0.01" role="graphics-symbol" aria-roledescription="line mark" d="M4,142.85714285714286L8,171.42857142857144L12,180.94285714285715L16,178.57142857142858L20,182.85714285714286L24,180.94285714285715L28.000000000000004,183.68571428571428L32,185.71428571428572L36,184.11428571428573L40,185.71428571428572L44,184.42857142857144L48,183.34285714285713L52,184.62857142857143L56.00000000000001,183.68571428571428L60,182.85714285714286L64,182.14285714285714L68,181.5142857142857L72,180.94285714285715L76,180.45714285714286L80,181.42857142857142L84,180.94285714285715L88,180.5142857142857L92,180.11428571428573L96,178.57142857142858L100,178.28571428571428L104,178.0285714285714L108,177.77142857142857L112.00000000000001,177.54285714285714L115.99999999999999,177.34285714285713L120,177.14285714285714L124,176.9714285714286L128,176.77142857142857L132,176.62857142857143L136,176.45714285714286L140,175.5142857142857L144,175.4L148,175.28571428571428L152,175.2L156,175.0857142857143L160,174.28571428571428L164,174.22857142857143L168,174.14285714285717L172,174.0857142857143L176,174.0285714285714L180,173.34285714285716L184,173.28571428571428L188,173.25714285714287L192,173.2L196,172.6L200,172.57142857142858" stroke="#4c78a8" stroke-width="2"/></g></g><path class="foreground" aria-hidden="true" d="" display="none"/></g></g><g class="mark-group role-legend" role="graphics-symbol" aria-roledescription="legend" aria-label="Symbol legend titled 'p' for stroke color with 7 values: 0.01, 0.05, 0.25, 0.5, 0.75, 0.95, 0.99"><g transform="translate(220,0)"><path class="background" aria-hidden="true" d="M0,0h39v105h-39Z" pointer-events="none"/><g><g class="mark-group role-legend-entry"><g transform="translate(0,16)"><path class="background" aria-hidden="true" d="M0,0h0v0h0Z" pointer-events="none"/><g><g class="mark-group role-scope" role="graphics-object" aria-roledescription="group mark container"><g transform="translate(0,0)"><path class="background" aria-hidden="true" d="M0,0h38.28333282470703v11h-38.28333282470703Z" pointer-events="none" opacity="1"/><g><g class="mark-symbol role-legend-symbol" pointer-events="none"><path transform="translate(6,6)" d="M-5,0L5,0" stroke="#4c78a8" stroke-width="1.5" opacity="1"/></g><g class="mark-text role-legend-label" pointer-events="none"><text text-anchor="start" transform="translate(16,9)" font-family="sans-serif" font-size="10px" fill="#000" opacity="1">0.01</text></g></g><path class="foreground" aria-hidden="true" d="" pointer-events="none" display="none"/></g><g transform="translate(0,13)"><path class="background" aria-hidden="true" d="M0,0h38.28333282470703v11h-38.28333282470703Z" pointer-events="none" opacity="1"/><g><g class="mark-symbol role-legend-symbol" pointer-events="none"><path transform="translate(6,6)" d="M-5,0L5,0" stroke="#f58518" stroke-width="1.5" opacity="1"/></g><g class="mark-text role-legend-label" pointer-events="none"><text text-anchor="start" transform="translate(16,9)" font-family="sans-serif" font-size="10px" fill="#000" opacity="1">0.05</text></g></g><path class="foreground" aria-hidden="true" d="" pointer-events="none" display="none"/></g><g transform="translate(0,26)"><path class="background" aria-hidden="true" d="M0,0h38.28333282470703v11h-38.28333282470703Z" pointer-events="none" opacity="1"/><g><g class="mark-symbol role-legend-symbol" pointer-events="none"><path transform="translate(6,6)" d="M-5,0L5,0" stroke="#e45756" stroke-width="1.5" opacity="1"/></g><g class="mark-text role-legend-label" pointer-events="none"><text text-anchor="start" transform="translate(16,9)" font-family="sans-serif" font-size="10px" fill="#000" opacity="1">0.25</text></g></g><path class="foreground" aria-hidden="true" d="" pointer-events="none" display="none"/></g><g transform="translate(0,39)"><path class="background" aria-hidden="true" d="M0,0h38.28333282470703v11h-38.28333282470703Z" pointer-events="none" opacity="1"/><g><g class="mark-symbol role-legend-symbol" pointer-events="none"><path transform="translate(6,6)" d="M-5,0L5,0" stroke="#72b7b2" stroke-width="1.5" opacity="1"/></g><g class="mark-text role-legend-label" pointer-events="none"><text text-anchor="start" transform="translate(16,9)" font-family="sans-serif" font-size="10px" fill="#000" opacity="1">0.5</text></g></g><path class="foreground" aria-hidden="true" d="" pointer-events="none" display="none"/></g><g transform="translate(0,52)"><path class="background" aria-hidden="true" d="M0,0h38.28333282470703v11h-38.28333282470703Z" pointer-events="none" opacity="1"/><g><g class="mark-symbol role-legend-symbol" pointer-events="none"><path transform="translate(6,6)" d="M-5,0L5,0" stroke="#54a24b" stroke-width="1.5" opacity="1"/></g><g class="mark-text role-legend-label" pointer-events="none"><text text-anchor="start" transform="translate(16,9)" font-family="sans-serif" font-size="10px" fill="#000" opacity="1">0.75</text></g></g><path class="foreground" aria-hidden="true" d="" pointer-events="none" display="none"/></g><g transform="translate(0,65)"><path class="background" aria-hidden="true" d="M0,0h38.28333282470703v11h-38.28333282470703Z" pointer-events="none" opacity="1"/><g><g class="mark-symbol role-legend-symbol" pointer-events="none"><path transform="translate(6,6)" d="M-5,0L5,0" stroke="#eeca3b" stroke-width="1.5" opacity="1"/></g><g class="mark-text role-legend-label" pointer-events="none"><text text-anchor="start" transform="translate(16,9)" font-family="sans-serif" font-size="10px" fill="#000" opacity="1">0.95</text></g></g><path class="foreground" aria-hidden="true" d="" pointer-events="none" display="none"/></g><g transform="translate(0,78)"><path class="background" aria-hidden="true" d="M0,0h38.28333282470703v11h-38.28333282470703Z" pointer-events="none" opacity="1"/><g><g class="mark-symbol role-legend-symbol" pointer-events="none"><path transform="translate(6,6)" d="M-5,0L5,0" stroke="#b279a2" stroke-width="1.5" opacity="1"/></g><g class="mark-text role-legend-label" pointer-events="none"><text text-anchor="start" transform="translate(16,9)" font-family="sans-serif" font-size="10px" fill="#000" opacity="1">0.99</text></g></g><path class="foreground" aria-hidden="true" d="" pointer-events="none" display="none"/></g></g></g><path class="foreground" aria-hidden="true" d="" pointer-events="none" display="none"/></g></g><g class="mark-text role-legend-title" pointer-events="none"><text text-anchor="start" transform="translate(0,9)" font-family="sans-serif" font-size="11px" font-weight="bold" fill="#000" opacity="1">p</text></g></g><path class="foreground" aria-hidden="true" d="" pointer-events="none" display="none"/></g></g></g><path class="foreground" aria-hidden="true" d="" display="none"/></g></g></g></svg>