<svg xmlns="http://www.w3.org/2000/svg" xmlns:xlink="http://www.w3.org/1999/xlink" version="1.1" class="marks" width="311" height="242" viewBox="0 0 311 242"><rect width="298" height="247" fill="white"/><g fill="none" stroke-miterlimit="10" transform="translate(47,5)"><g class="mark-group role-frame root" role="graphics-object" aria-roledescription="group mark container"><g transform="translate(0,0)"><path class="background" aria-hidden="true" d="M0.5,0.5h200v200h-200Z" stroke="#ddd"/><g><g class="mark-group role-axis" aria-hidden="true"><g transform="translate(0.5,200.5)"><path class="background" aria-hidden="true" d="M0,0h0v0h0Z" pointer-events="none"/><g><g class="mark-rule role-axis-grid" pointer-events="none"><line transform="translate(0,-200)" x2="0" y2="200" stroke="#ddd" stroke-width="1" opacity="1"/><line transform="translate(50,-200)" x2="0" y2="200" stroke="#ddd" stroke-width="1" opacity="1"/><line transform="translate(100,-200)" x2="0" y2="200" stroke="#ddd" stroke-width="1" opacity="1"/><line transform="translate(150,-200)" x2="0" y2="200" stroke="#ddd" stroke-width="1" opacity="1"/><line transform="translate(200,-200)" x2="0" y2="200" stroke="#ddd" stroke-width="1" opacity="1"/></g></g><path class="foreground" aria-hidden="true" d="" pointer-events="none" display="none"/></g></g><g class="mark-group role-axis" aria-hidden="true"><g transform="translate(0.5,0.5)"><path class="background" aria-hidden="true" d="M0,0h0v0h0Z" pointer-events="none"/><g><g class="mark-rule role-axis-grid" pointer-events="none"><line transform="translate(0,200)" x2="200" y2="0" stroke="#ddd" stroke-width="1" opacity="1"/><line transform="translate(0,156)" x2="200" y2="0" stroke="#ddd" stroke-width="1" opacity="1"/><line transform="translate(0,111)" x2="200" y2="0" stroke="#ddd" stroke-width="1" opacity="1"/><line transform="translate(0,67)" x2="200" y2="0" stroke="#ddd" stroke-width="1" opacity="1"/><line transform="translate(0,22)" x2="200" y2="0" stroke="#ddd" stroke-width="1" opacity="1"/></g></g><path class="foreground" aria-hidden="true" d="" pointer-events="none" display="none"/></g></g><g class="mark-group role-axis" role="graphics-symbol" aria-roledescription="axis" aria-label="X-axis titled 'D' for a linear scale with values from 0 to 200"><g transform="translate(0.5,200.5)"><path class="background" aria-hidden="true" d="M0,0h0v0h0Z" pointer-events="none"/><g><g class="mark-rule role-axis-tick" pointer-events="none"><line transform="translate(0,0)" x2="0" y2="5" stroke="#888" stroke-width="1" opacity="1"/><line transform="translate(50,0)" x2="0" y2="5" stroke="#888" stroke-width="1" opacity="1"/><line transform="translate(100,0)" x2="0" y2="5" stroke="#888" stroke-width="1" opacity="1"/><line transform="translate(150,0)" x2="0" y2="5" stroke="#888" stroke-width="1" opacity="1"/><line transform="translate(200,0)" x2="0" y2="5" stroke="#888" stroke-width="1" opacity="1"/></g><g class="mark-text role-axis-label" pointer-events="none"><text text-anchor="start" transform="translate(0,15)" font-family="sans-serif" font-size="10px" fill="#000" opacity="1">1</text><text text-anchor="middle" transform="translate(50,15)" font-family="sans-serif" font-size="10px" fill="#000" opacity="1">50</text><text text-anchor="middle" transform="translate(100,15)" font-family="sans-serif" font-size="10px" fill="#000" opacity="1">100</text><text text-anchor="middle" transform="translate(150,15)" font-family="sans-serif" font-size="10px" fill="#000" opacity="1">150</text><text text-anchor="end" transform="translate(200,15)" font-family="sans-serif" font-size="10px" fill="#000" opacity="1">200</text></g><g class="mark-rule role-axis-domain" pointer-events="none"><line transform="translate(0,0)" x2="200" y2="0" stroke="#888" stroke-width="1" opacity="1"/></g><g class="mark-text role-axis-title" pointer-events="none"><text text-anchor="middle" transform="translate(100,30)" font-family="sans-serif" font-size="11px" font-weight="bold" fill="#000" opacity="1">D</text></g></g><path class="foreground" aria-hidden="true" d="" pointer-events="none" display="none"/></g></g><g class="mark-group role-axis" role="graphics-symbol" aria-roledescription="axis" aria-label="Y-axis titled 'A' for a linear scale with values from 0 to 450"><g transform="translate(0.5,0.5)"><path class="background" aria-hidden="true" d="M0,0h0v0h0Z" pointer-events="none"/><g><g class="mark-rule role-axis-tick" pointer-events="none"><line transform="translate(0,200)" x2="-5" y2="0" stroke="#888" stroke-width="1" opacity="1"/><line transform="translate(0,156)" x2="-5" y2="0" stroke="#888" stroke-width="1" opacity="1"/><line transform="translate(0,111)" x2="-5" y2="0" stroke="#888" stroke-width="1" opacity="1"/><line transform="translate(0,67)" x2="-5" y2="0" stroke="#888" stroke-width="1" opacity="1"/><line transform="translate(0,22)" x2="-5" y2="0" stroke="#888" stroke-width="1" opacity="1"/></g><g class="mark-text role-axis-label" pointer-events="none"><text text-anchor="end" transform="translate(-7,203)" font-family="sans-serif" font-size="10px" fill="#000" opacity="1">1</text><text text-anchor="end" transform="translate(-7,158.55555555555557)" font-family="sans-serif" font-size="10px" fill="#000" opacity="1">100</text><text text-anchor="end" transform="translate(-7,114.11111111111111)" font-family="sans-serif" font-size="10px" fill="#000" opacity="1">200</text><text text-anchor="end" transform="translate(-7,69.66666666666667)" font-family="sans-serif" font-size="10px" fill="#000" opacity="1">300</text><text text-anchor="end" transform="translate(-7,25.222222222222232)" font-family="sans-serif" font-size="10px" fill="#000" opacity="1">400</text></g><g class="mark-rule role-axis-domain" pointer-events="none"><line transform="translate(0,200)" x2="0" y2="-200" stroke="#888" stroke-width="1" opacity="1"/></g><g class="mark-text role-axis-title" pointer-events="none"><text text-anchor="middle" transform="translate(-30.100000381469727,100) rotate(-90) translate(0,-2)" font-family="sans-serif" font-size="11px" font-weight="bold" fill="#000" opacity="1">A</text></g></g><path class="foreground" aria-hidden="true" d="" pointer-events="none" display="none"/></g></g><g class="mark-group role-scope pathgroup" role="graphics-object" aria-roledescription="group mark container"><g transform="translate(0,0)"><path class="background" aria-hidden="true" d="M0,0h200v200h-200Z"/><g><g class="mark-line role-mark marks" role="graphics-object" aria-roledescription="line mark container"><path aria-label="D: 1; A: 6; p: 0.99" role="graphics-symbol" aria-roledescription="line mark" d="M1,197.33333333333334L2,195.55555555555554L3,191.55555555555554L4,189.77777777777777L5,188L6,186.66666666666666L7.000000000000001,185.33333333333331L8,184L9,182.66666666666666L10,181.33333333333331L11,180L12,178.66666666666666L13,177.77777777777777L14.000000000000002,176.44444444444446L15,175.11111111111111L16,174.22222222222223L17,172.88888888888889L18,172L19,170.66666666666666L20,169.77777777777777L21,168.44444444444443L22,167.55555555555554L23,166.22222222222223L24,165.33333333333334L25,164.44444444444443L26,163.11111111111111L27,162.22222222222223L28.000000000000004,161.33333333333331L28.999999999999996,160L30,159.11111111111111L31,158.22222222222223L32,156.8888888888889L33,156L34,155.11111111111111L35,154.22222222222223L36,152.88888888888889L37,152L38,151.11111111111111L39,150.2222222222222L40,148.88888888888889L41,148L42,147.11111111111111L43,146.2222222222222L44,144.88888888888889L45,144L46,143.1111111111111L47,142.22222222222223L48,141.33333333333334L49,140.44444444444446L50,139.1111111111111L51,138.22222222222223L52,137.33333333333334L53,136.44444444444446L54,135.55555555555557L55.00000000000001,134.66666666666666L56.00000000000001,133.33333333333334L56.99999999999999,132.44444444444446L57.99999999999999,131.55555555555557L59,130.66666666666666L60,129.77777777777777L61,128.88888888888889L62,128L63,127.11111111111111L64,125.77777777777777L65,124.8888888888889L66,124L67,123.11111111111113L68,122.22222222222223L69,121.33333333333334L70,120.44444444444444L71,119.55555555555554L72,118.66666666666666L73,117.33333333333333L74,116.44444444444444L75,115.55555555555554L76,114.66666666666666L77,113.77777777777777L78,112.8888888888889L79,112.00000000000001L80,111.11111111111111L81,110.22222222222223L82,109.33333333333333L83,108.44444444444443L84,107.55555555555556L85,106.66666666666667L86,105.7777777777778L87,104.8888888888889L88,103.55555555555556L89,102.66666666666666L90,101.77777777777779L91,100.8888888888889L92,100L93,99.1111111111111L94,98.22222222222223L95,97.33333333333334L96,96.44444444444444L97,95.55555555555554L98,94.66666666666667L99,93.77777777777779L100,92.88888888888889L101,92L102,91.11111111111111L103,90.22222222222223L104,89.33333333333333L105,88.44444444444444L106,87.55555555555557L107,86.66666666666667L108,85.77777777777777L109.00000000000001,84.88888888888889L110.00000000000001,84.00000000000001L111.00000000000001,83.11111111111111L112.00000000000001,82.22222222222221L112.99999999999999,81.33333333333333L113.99999999999999,80.44444444444446L114.99999999999999,79.55555555555556L115.99999999999999,78.66666666666666L117,77.77777777777777L118,76.8888888888889L119,76L120,75.1111111111111L121,74.22222222222221L122,73.33333333333334L123,72.44444444444444L124,71.55555555555554L125,70.66666666666667L126,69.77777777777779L127,68.88888888888889L128,68L129,67.11111111111111L130,66.22222222222223L131,65.33333333333333L132,64.44444444444444L133,63.555555555555564L134,62.66666666666667L135,61.77777777777778L136,60.88888888888888L137,60.00000000000001L138,59.111111111111114L139,58.22222222222222L140,57.33333333333333L141,56.44444444444445L142,55.55555555555556L143,54.666666666666664L144,53.77777777777777L145,52.8888888888889L146,52L147,51.11111111111111L148,50.222222222222214L149,49.33333333333334L150,48.44444444444444L151,47.55555555555555L152,46.66666666666666L153,45.777777777777786L154,44.888888888888886L155,43.99999999999999L156,43.1111111111111L157,42.22222222222223L158,41.333333333333336L159,40.444444444444436L160,39.555555555555564L161,38.66666666666667L162,37.77777777777778L163,36.888888888888886L164,36.00000000000001L165,35.111111111111114L166,34.22222222222222L167,33.77777777777777L168,32.88888888888888L169,32.00000000000001L170,31.11111111111111L171,30.222222222222218L172,29.33333333333332L173,28.44444444444445L174,27.555555555555557L175,26.66666666666666L176,25.77777777777779L177,24.888888888888893L178,24L179,23.111111111111104L180,22.222222222222232L181,21.333333333333336L182,20.444444444444443L183,19.55555555555555L184,18.666666666666675L185,17.777777777777782L186,16.888888888888886L187,15.999999999999993L188,15.555555555555545L189,14.666666666666671L190,13.777777777777779L191,12.888888888888882L192,12.00000000000001L193,11.111111111111116L194,10.222222222222221L195,9.333333333333327L196,8.444444444444454L197,7.55555555555556L198,6.666666666666665L199,5.777777777777771L200,4.888888888888898" stroke="#b279a2" stroke-width="2"/></g></g><path class="foreground" aria-hidden="true" d="" display="none"/></g><g transform="translate(0,0)"><path class="background" aria-hidden="true" d="M0,0h200v200h-200Z"/><g><g class="mark-line role-mark marks" role="graphics-object" aria-roledescription="line mark container"><path aria-label="D: 1; A: 5; p: 0.95" role="graphics-symbol" aria-roledescription="line mark" d="M1,197.77777777777777L2,196.44444444444446L3,193.77777777777777L4,192.44444444444443L5,191.11111111111111L6,189.77777777777777L7.000000000000001,188.44444444444443L8,187.55555555555557L9,186.22222222222223L10,184.88888888888889L11,184L12,183.11111111111111L13,181.77777777777777L14.000000000000002,180.88888888888889L15,179.55555555555554L16,178.66666666666666L17,177.77777777777777L18,176.88888888888889L19,175.55555555555554L20,174.66666666666666L21,173.77777777777777L22,172.88888888888889L23,171.55555555555554L24,170.66666666666666L25,169.77777777777777L26,168.88888888888889L27,168L28.000000000000004,166.66666666666669L28.999999999999996,165.77777777777777L30,164.88888888888889L31,164L32,163.11111111111111L33,162.22222222222223L34,161.33333333333331L35,160.44444444444443L36,159.11111111111111L37,158.22222222222223L38,157.33333333333331L39,156.44444444444446L40,155.55555555555557L41,154.66666666666666L42,153.7777777777778L43,152.88888888888889L44,152L45,151.11111111111111L46,150.2222222222222L47,149.33333333333331L48,148.44444444444446L49,147.55555555555554L50,146.66666666666669L51,145.77777777777777L52,144.88888888888889L53,143.55555555555557L54,142.66666666666669L55.00000000000001,141.77777777777777L56.00000000000001,140.88888888888889L56.99999999999999,140L57.99999999999999,139.1111111111111L59,138.22222222222223L60,137.33333333333334L61,136.44444444444446L62,135.55555555555557L63,134.66666666666666L64,133.77777777777777L65,132.88888888888889L66,131.99999999999997L67,131.11111111111111L68,130.22222222222223L69,129.33333333333334L70,128.44444444444446L71,127.55555555555556L72,126.66666666666666L73,125.77777777777777L74,125.33333333333334L75,124.44444444444444L76,123.55555555555556L77,122.66666666666666L78,121.77777777777776L79,120.88888888888889L80,120L81,119.11111111111113L82,118.22222222222223L83,117.33333333333333L84,116.44444444444444L85,115.55555555555554L86,114.66666666666666L87,113.77777777777777L88,112.8888888888889L89,112.00000000000001L90,111.11111111111111L91,110.22222222222223L92,109.33333333333333L93,108.44444444444443L94,107.55555555555556L95,106.66666666666667L96,105.7777777777778L97,104.8888888888889L98,104.44444444444443L99,103.55555555555556L100,102.66666666666666L101,101.77777777777779L102,100.8888888888889L103,100L104,99.1111111111111L105,98.22222222222223L106,97.33333333333334L107,96.44444444444444L108,95.55555555555554L109.00000000000001,94.66666666666667L110.00000000000001,93.77777777777779L111.00000000000001,92.88888888888889L112.00000000000001,92L112.99999999999999,91.55555555555554L113.99999999999999,90.66666666666667L114.99999999999999,89.77777777777777L115.99999999999999,88.88888888888889L117,87.99999999999999L118,87.11111111111111L119,86.22222222222223L120,85.33333333333333L121,84.44444444444446L122,83.55555555555556L123,82.66666666666667L124,81.77777777777777L125,81.33333333333333L126,80.44444444444446L127,79.55555555555556L128,78.66666666666666L129,77.77777777777777L130,76.8888888888889L131,76L132,75.1111111111111L133,74.22222222222221L134,73.33333333333334L135,72.44444444444444L136,72L137,71.1111111111111L138,70.22222222222223L139,69.33333333333334L140,68.44444444444444L141,67.55555555555554L142,66.66666666666667L143,65.77777777777779L144,64.88888888888889L145,63.99999999999999L146,63.555555555555564L147,62.66666666666667L148,61.77777777777778L149,60.88888888888888L150,60.00000000000001L151,59.111111111111114L152,58.22222222222222L153,57.33333333333333L154,56.44444444444445L155,55.55555555555556L156,55.111111111111114L157,54.222222222222214L158,53.33333333333334L159,52.44444444444445L160,51.55555555555556L161,50.66666666666666L162,49.777777777777786L163,48.88888888888889L164,48L165,47.55555555555555L166,46.66666666666666L167,45.777777777777786L168,44.888888888888886L169,43.99999999999999L170,43.1111111111111L171,42.22222222222223L172,41.333333333333336L173,40.444444444444436L174,39.99999999999999L175,39.11111111111112L176,38.22222222222222L177,37.33333333333333L178,36.444444444444436L179,35.555555555555564L180,34.66666666666667L181,33.77777777777777L182,33.33333333333333L183,32.44444444444446L184,31.555555555555557L185,30.666666666666664L186,29.77777777777777L187,28.888888888888896L188,28.000000000000004L189,27.111111111111107L190,26.66666666666666L191,25.77777777777779L192,24.888888888888893L193,24L194,23.111111111111104L195,22.222222222222232L196,21.333333333333336L197,20.444444444444443L198,19.999999999999996L199,19.1111111111111L200,18.22222222222223" stroke="#eeca3b" stroke-width="2"/></g></g><path class="foreground" aria-hidden="true" d="" display="none"/></g><g transform="translate(0,0)"><path class="background" aria-hidden="true" d="M0,0h200v200h-200Z"/><g><g class="mark-line role-mark marks" role="graphics-object" aria-roledescription="line mark container"><path aria-label="D: 1; A: 3; p: 0.75" role="graphics-symbol" aria-roledescription="line mark" d="M1,198.66666666666666L2,197.77777777777777L3,196.44444444444446L4,195.11111111111111L5,194.22222222222223L6,193.33333333333334L7.000000000000001,192.44444444444443L8,191.55555555555554L9,190.66666666666669L10,189.77777777777777L11,188.88888888888889L12,188L13,187.11111111111111L14.000000000000002,186.22222222222223L15,185.33333333333331L16,184.44444444444446L17,183.55555555555557L18,182.66666666666666L19,181.77777777777777L20,180.88888888888889L21,180L22,179.11111111111111L23,178.22222222222223L24,177.33333333333334L25,176.44444444444446L26,176L27,175.11111111111111L28.000000000000004,174.22222222222223L28.999999999999996,173.33333333333334L30,172.44444444444446L31,171.55555555555554L32,170.66666666666666L33,169.77777777777777L34,168.88888888888889L35,168.44444444444443L36,167.55555555555554L37,166.66666666666669L38,165.77777777777777L39,164.88888888888889L40,164L41,163.11111111111111L42,162.66666666666666L43,161.77777777777777L44,160.88888888888889L45,160L46,159.11111111111111L47,158.22222222222223L48,157.33333333333331L49,156.8888888888889L50,156L51,155.11111111111111L52,154.22222222222223L53,153.33333333333331L54,152.44444444444446L55.00000000000001,152L56.00000000000001,151.11111111111111L56.99999999999999,150.2222222222222L57.99999999999999,149.33333333333331L59,148.44444444444446L60,147.55555555555554L61,147.11111111111111L62,146.2222222222222L63,145.33333333333334L64,144.44444444444443L65,143.55555555555557L66,142.66666666666669L67,142.22222222222223L68,141.33333333333334L69,140.44444444444446L70,139.55555555555557L71,138.66666666666669L72,137.77777777777777L73,137.33333333333334L74,136.44444444444446L75,135.55555555555557L76,134.66666666666666L77,133.77777777777777L78,133.33333333333334L79,132.44444444444446L80,131.55555555555557L81,130.66666666666666L82,129.77777777777777L83,128.88888888888889L84,128.44444444444446L85,127.55555555555556L86,126.66666666666666L87,125.77777777777777L88,124.8888888888889L89,124.44444444444444L90,123.55555555555556L91,122.66666666666666L92,121.77777777777776L93,120.88888888888889L94,120.44444444444444L95,119.55555555555554L96,118.66666666666666L97,117.77777777777779L98,116.88888888888889L99,116.44444444444444L100,115.55555555555554L101,114.66666666666666L102,113.77777777777777L103,112.8888888888889L104,112.44444444444443L105,111.55555555555554L106,110.66666666666667L107,109.77777777777777L108,108.8888888888889L109.00000000000001,108L110.00000000000001,107.55555555555556L111.00000000000001,106.66666666666667L112.00000000000001,105.7777777777778L112.99999999999999,104.8888888888889L113.99999999999999,104L114.99999999999999,103.55555555555556L115.99999999999999,102.66666666666666L117,101.77777777777779L118,100.8888888888889L119,100.44444444444444L120,99.55555555555556L121,98.66666666666666L122,97.77777777777779L123,96.88888888888889L124,96.44444444444444L125,95.55555555555554L126,94.66666666666667L127,93.77777777777779L128,92.88888888888889L129,92.44444444444444L130,91.55555555555554L131,90.66666666666667L132,89.77777777777777L133,88.88888888888889L134,88.44444444444444L135,87.55555555555557L136,86.66666666666667L137,85.77777777777777L138,84.88888888888889L139,84.44444444444446L140,83.55555555555556L141,82.66666666666667L142,81.77777777777777L143,80.8888888888889L144,80.44444444444446L145,79.55555555555556L146,78.66666666666666L147,77.77777777777777L148,77.33333333333334L149,76.44444444444444L150,75.55555555555556L151,74.66666666666666L152,73.77777777777779L153,73.33333333333334L154,72.44444444444444L155,71.55555555555554L156,70.66666666666667L157,69.77777777777779L158,69.33333333333334L159,68.44444444444444L160,67.55555555555554L161,66.66666666666667L162,66.22222222222223L163,65.33333333333333L164,64.44444444444444L165,63.555555555555564L166,62.66666666666667L167,62.22222222222222L168,61.33333333333333L169,60.444444444444436L170,59.555555555555564L171,59.111111111111114L172,58.22222222222222L173,57.33333333333333L174,56.44444444444445L175,55.55555555555556L176,55.111111111111114L177,54.222222222222214L178,53.33333333333334L179,52.44444444444445L180,52L181,51.11111111111111L182,50.222222222222214L183,49.33333333333334L184,48.44444444444444L185,48L186,47.1111111111111L187,46.22222222222223L188,45.333333333333336L189,44.44444444444444L190,43.99999999999999L191,43.1111111111111L192,42.22222222222223L193,41.333333333333336L194,40.888888888888886L195,39.99999999999999L196,39.11111111111112L197,38.22222222222222L198,37.33333333333333L199,36.888888888888886L200,36.00000000000001" stroke="#54a24b" stroke-width="2"/></g></g><path class="foreground" aria-hidden="true" d="" display="none"/></g><g transform="translate(0,0)"><path class="background" aria-hidden="true" d="M0,0h200v200h-200Z"/><g><g class="mark-line role-mark marks" role="graphics-object" aria-roledescription="line mark container"><path aria-label="D: 1; A: 3; p: 0.5" role="graphics-symbol" aria-roledescription="line mark" d="M1,198.66666666666666L2,198.22222222222223L3,197.33333333333334L4,196.88888888888889L5,196L6,195.11111111111111L7.000000000000001,194.66666666666669L8,193.77777777777777L9,192.88888888888889L10,192L11,191.55555555555554L12,190.66666666666669L13,189.77777777777777L14.000000000000002,189.33333333333334L15,188.44444444444443L16,187.55555555555557L17,187.11111111111111L18,186.22222222222223L19,185.33333333333331L20,184.44444444444446L21,184L22,183.11111111111111L23,182.22222222222223L24,181.77777777777777L25,180.88888888888889L26,180L27,179.11111111111111L28.000000000000004,178.66666666666666L28.999999999999996,177.77777777777777L30,176.88888888888889L31,176.44444444444446L32,175.55555555555554L33,174.66666666666666L34,173.77777777777777L35,173.33333333333334L36,172.44444444444446L37,171.55555555555554L38,171.11111111111111L39,170.22222222222223L40,169.33333333333334L41,168.44444444444443L42,168L43,167.11111111111111L44,166.22222222222223L45,165.77777777777777L46,164.88888888888889L47,164L48,163.55555555555554L49,162.66666666666666L50,161.77777777777777L51,160.88888888888889L52,160.44444444444443L53,159.55555555555557L54,158.66666666666666L55.00000000000001,158.22222222222223L56.00000000000001,157.33333333333331L56.99999999999999,156.44444444444446L57.99999999999999,155.55555555555557L59,155.11111111111111L60,154.22222222222223L61,153.33333333333331L62,152.88888888888889L63,152L64,151.11111111111111L65,150.2222222222222L66,149.7777777777778L67,148.88888888888889L68,148L69,147.55555555555554L70,146.66666666666669L71,145.77777777777777L72,144.88888888888889L73,144.44444444444443L74,143.55555555555557L75,142.66666666666669L76,142.22222222222223L77,141.33333333333334L78,140.44444444444446L79,140L80,139.1111111111111L81,138.22222222222223L82,137.33333333333334L83,136.88888888888889L84,136L85,135.11111111111111L86,134.66666666666666L87,133.77777777777777L88,132.88888888888889L89,131.99999999999997L90,131.55555555555557L91,130.66666666666666L92,129.77777777777777L93,129.33333333333334L94,128.44444444444446L95,127.55555555555556L96,126.66666666666666L97,126.22222222222223L98,125.33333333333334L99,124.44444444444444L100,124L101,123.11111111111113L102,122.22222222222223L103,121.33333333333334L104,120.88888888888889L105,120L106,119.11111111111113L107,118.66666666666666L108,117.77777777777779L109.00000000000001,116.88888888888889L110.00000000000001,116.00000000000001L111.00000000000001,115.55555555555554L112.00000000000001,114.66666666666666L112.99999999999999,113.77777777777777L113.99999999999999,113.33333333333333L114.99999999999999,112.44444444444443L115.99999999999999,111.55555555555554L117,111.11111111111111L118,110.22222222222223L119,109.33333333333333L120,108.44444444444443L121,108L122,107.11111111111111L123,106.22222222222221L124,105.7777777777778L125,104.8888888888889L126,104L127,103.11111111111111L128,102.66666666666666L129,101.77777777777779L130,100.8888888888889L131,100.44444444444444L132,99.55555555555556L133,98.66666666666666L134,97.77777777777779L135,97.33333333333334L136,96.44444444444444L137,95.55555555555554L138,95.1111111111111L139,94.22222222222223L140,93.33333333333333L141,92.44444444444444L142,92L143,91.11111111111111L144,90.22222222222223L145,89.77777777777777L146,88.88888888888889L147,87.99999999999999L148,87.11111111111111L149,86.66666666666667L150,85.77777777777777L151,84.88888888888889L152,84.44444444444446L153,83.55555555555556L154,82.66666666666667L155,82.22222222222221L156,81.33333333333333L157,80.44444444444446L158,79.55555555555556L159,79.11111111111111L160,78.22222222222221L161,77.33333333333334L162,76.8888888888889L163,76L164,75.1111111111111L165,74.22222222222221L166,73.77777777777779L167,72.88888888888889L168,72L169,71.55555555555554L170,70.66666666666667L171,69.77777777777779L172,68.88888888888889L173,68.44444444444444L174,67.55555555555554L175,66.66666666666667L176,66.22222222222223L177,65.33333333333333L178,64.44444444444444L179,63.555555555555564L180,63.111111111111114L181,62.22222222222222L182,61.33333333333333L183,60.88888888888888L184,60.00000000000001L185,59.111111111111114L186,58.22222222222222L187,57.77777777777777L188,56.8888888888889L189,56.00000000000001L190,55.55555555555556L191,54.666666666666664L192,53.77777777777777L193,53.33333333333334L194,52.44444444444445L195,51.55555555555556L196,50.66666666666666L197,50.222222222222214L198,49.33333333333334L199,48.44444444444444L200,48" stroke="#72b7b2" stroke-width="2"/></g></g><path class="foreground" aria-hidden="true" d="" display="none"/></g><g transform="translate(0,0)"><path class="background" aria-hidden="true" d="M0,0h200v200h-200Z"/><g><g class="mark-line role-mark marks" role="graphics-object" aria-roledescription="line mark container"><path aria-label="D: 1; A: 2; p: 0.25" role="graphics-symbol" aria-roledescription="line mark" d="M1,199.11111111111111L2,198.66666666666666L3,198.22222222222223L4,197.77777777777777L5,197.33333333333334L6,196.88888888888889L7.000000000000001,196L8,195.55555555555554L9,195.11111111111111L10,194.22222222222223L11,193.77777777777777L12,192.88888888888889L13,192.44444444444443L14.000000000000002,192L15,191.11111111111111L16,190.66666666666669L17,189.77777777777777L18,189.33333333333334L19,188.44444444444443L20,188L21,187.11111111111111L22,186.66666666666666L23,185.77777777777777L24,185.33333333333331L25,184.44444444444446L26,184L27,183.11111111111111L28.000000000000004,182.66666666666666L28.999999999999996,181.77777777777777L30,181.33333333333331L31,180.44444444444446L32,180L33,179.11111111111111L34,178.22222222222223L35,177.77777777777777L36,176.88888888888889L37,176.44444444444446L38,175.55555555555554L39,175.11111111111111L40,174.22222222222223L41,173.77777777777777L42,172.88888888888889L43,172L44,171.55555555555554L45,170.66666666666666L46,170.22222222222223L47,169.33333333333334L48,168.88888888888889L49,168L50,167.11111111111111L51,166.66666666666669L52,165.77777777777777L53,165.33333333333334L54,164.44444444444443L55.00000000000001,164L56.00000000000001,163.11111111111111L56.99999999999999,162.22222222222223L57.99999999999999,161.77777777777777L59,160.88888888888889L60,160.44444444444443L61,159.55555555555557L62,158.66666666666666L63,158.22222222222223L64,157.33333333333331L65,156.8888888888889L66,156L67,155.11111111111111L68,154.66666666666666L69,153.7777777777778L70,153.33333333333331L71,152.44444444444446L72,151.55555555555554L73,151.11111111111111L74,150.2222222222222L75,149.7777777777778L76,148.88888888888889L77,148L78,147.55555555555554L79,146.66666666666669L80,146.2222222222222L81,145.33333333333334L82,144.44444444444443L83,144L84,143.1111111111111L85,142.66666666666669L86,141.77777777777777L87,140.88888888888889L88,140.44444444444446L89,139.55555555555557L90,139.1111111111111L91,138.22222222222223L92,137.33333333333334L93,136.88888888888889L94,136L95,135.11111111111111L96,134.66666666666666L97,133.77777777777777L98,133.33333333333334L99,132.44444444444446L100,131.55555555555557L101,131.11111111111111L102,130.22222222222223L103,129.77777777777777L104,128.88888888888889L105,128L106,127.55555555555556L107,126.66666666666666L108,125.77777777777777L109.00000000000001,125.33333333333334L110.00000000000001,124.44444444444444L111.00000000000001,124L112.00000000000001,123.11111111111113L112.99999999999999,122.22222222222223L113.99999999999999,121.77777777777776L114.99999999999999,120.88888888888889L115.99999999999999,120L117,119.55555555555554L118,118.66666666666666L119,118.22222222222223L120,117.33333333333333L121,116.44444444444444L122,116.00000000000001L123,115.11111111111111L124,114.22222222222223L125,113.77777777777777L126,112.8888888888889L127,112.44444444444443L128,111.55555555555554L129,110.66666666666667L130,110.22222222222223L131,109.33333333333333L132,108.44444444444443L133,108L134,107.11111111111111L135,106.66666666666667L136,105.7777777777778L137,104.8888888888889L138,104.44444444444443L139,103.55555555555556L140,102.66666666666666L141,102.22222222222221L142,101.33333333333331L143,100.8888888888889L144,100L145,99.1111111111111L146,98.66666666666666L147,97.77777777777779L148,96.88888888888889L149,96.44444444444444L150,95.55555555555554L151,94.66666666666667L152,94.22222222222223L153,93.33333333333333L154,92.88888888888889L155,92L156,91.11111111111111L157,90.66666666666667L158,89.77777777777777L159,88.88888888888889L160,88.44444444444444L161,87.55555555555557L162,86.66666666666667L163,86.22222222222223L164,85.33333333333333L165,84.88888888888889L166,84.00000000000001L167,83.11111111111111L168,82.66666666666667L169,81.77777777777777L170,80.8888888888889L171,80.44444444444446L172,79.55555555555556L173,78.66666666666666L174,78.22222222222221L175,77.33333333333334L176,76.8888888888889L177,76L178,75.1111111111111L179,74.66666666666666L180,73.77777777777779L181,72.88888888888889L182,72.44444444444444L183,71.55555555555554L184,70.66666666666667L185,70.22222222222223L186,69.33333333333334L187,68.44444444444444L188,68L189,67.11111111111111L190,66.66666666666667L191,65.77777777777779L192,64.88888888888889L193,64.44444444444444L194,63.555555555555564L195,62.66666666666667L196,62.22222222222222L197,61.33333333333333L198,60.444444444444436L199,60.00000000000001L200,59.111111111111114" stroke="#e45756" stroke-width="2"/></g></g><path class="foreground" aria-hidden="true" d="" display="none"/></g><g transform="translate(0,0)"><path class="background" aria-hidden="true" d="M0,0h200v200h-200Z"/><g><g class="mark-line role-mark marks" role="graphics-object" aria-roledescription="line mark container"><path aria-label="D: 1; A: 2; p: 0.05" role="graphics-symbol" aria-roledescription="line mark" d="M1,199.11111111111111L2,199.11111111111111L3,198.66666666666666L4,198.66666666666666L5,198.22222222222223L6,198.22222222222223L7.000000000000001,197.77777777777777L8,197.33333333333334L9,196.88888888888889L10,196.44444444444446L11,196L12,195.55555555555554L13,195.11111111111111L14.000000000000002,194.66666666666669L15,194.22222222222223L16,193.77777777777777L17,193.33333333333334L18,192.88888888888889L19,192.44444444444443L20,192L21,191.11111111111111L22,190.66666666666669L23,190.22222222222223L24,189.77777777777777L25,188.88888888888889L26,188.44444444444443L27,188L28.000000000000004,187.55555555555557L28.999999999999996,186.66666666666666L30,186.22222222222223L31,185.77777777777777L32,185.33333333333331L33,184.44444444444446L34,184L35,183.55555555555557L36,182.66666666666666L37,182.22222222222223L38,181.77777777777777L39,180.88888888888889L40,180.44444444444446L41,180L42,179.11111111111111L43,178.66666666666666L44,178.22222222222223L45,177.33333333333334L46,176.88888888888889L47,176L48,175.55555555555554L49,175.11111111111111L50,174.22222222222223L51,173.77777777777777L52,173.33333333333334L53,172.44444444444446L54,172L55.00000000000001,171.11111111111111L56.00000000000001,170.66666666666666L56.99999999999999,170.22222222222223L57.99999999999999,169.33333333333334L59,168.88888888888889L60,168L61,167.55555555555554L62,166.66666666666669L63,166.22222222222223L64,165.77777777777777L65,164.88888888888889L66,164.44444444444443L67,163.55555555555554L68,163.11111111111111L69,162.66666666666666L70,161.77777777777777L71,161.33333333333331L72,160.44444444444443L73,160L74,159.11111111111111L75,158.66666666666666L76,157.77777777777777L77,157.33333333333331L78,156.8888888888889L79,156L80,155.55555555555557L81,154.66666666666666L82,154.22222222222223L83,153.33333333333331L84,152.88888888888889L85,152L86,151.55555555555554L87,150.66666666666666L88,150.2222222222222L89,149.33333333333331L90,148.88888888888889L91,148.44444444444446L92,147.55555555555554L93,147.11111111111111L94,146.2222222222222L95,145.77777777777777L96,144.88888888888889L97,144.44444444444443L98,143.55555555555557L99,143.1111111111111L100,142.22222222222223L101,141.77777777777777L102,140.88888888888889L103,140.44444444444446L104,139.55555555555557L105,139.1111111111111L106,138.22222222222223L107,137.77777777777777L108,136.88888888888889L109.00000000000001,136.44444444444446L110.00000000000001,135.55555555555557L111.00000000000001,135.11111111111111L112.00000000000001,134.22222222222223L112.99999999999999,133.77777777777777L113.99999999999999,132.88888888888889L114.99999999999999,132.44444444444446L115.99999999999999,131.55555555555557L117,131.11111111111111L118,130.22222222222223L119,129.77777777777777L120,128.88888888888889L121,128.44444444444446L122,127.55555555555556L123,127.11111111111111L124,126.22222222222223L125,125.77777777777777L126,124.8888888888889L127,124.44444444444444L128,123.55555555555556L129,123.11111111111113L130,122.22222222222223L131,121.77777777777776L132,120.88888888888889L133,120.44444444444444L134,119.55555555555554L135,119.11111111111113L136,118.22222222222223L137,117.77777777777779L138,116.88888888888889L139,116.44444444444444L140,115.55555555555554L141,115.11111111111111L142,114.22222222222223L143,113.77777777777777L144,112.8888888888889L145,112.44444444444443L146,111.55555555555554L147,110.66666666666667L148,110.22222222222223L149,109.33333333333333L150,108.8888888888889L151,108L152,107.55555555555556L153,106.66666666666667L154,106.22222222222221L155,105.33333333333333L156,104.8888888888889L157,104L158,103.55555555555556L159,102.66666666666666L160,102.22222222222221L161,101.33333333333331L162,100.8888888888889L163,100L164,99.55555555555556L165,98.66666666666666L166,97.77777777777779L167,97.33333333333334L168,96.44444444444444L169,96L170,95.1111111111111L171,94.66666666666667L172,93.77777777777779L173,93.33333333333333L174,92.44444444444444L175,92L176,91.11111111111111L177,90.66666666666667L178,89.77777777777777L179,88.88888888888889L180,88.44444444444444L181,87.55555555555557L182,87.11111111111111L183,86.22222222222223L184,85.77777777777777L185,84.88888888888889L186,84.44444444444446L187,83.55555555555556L188,83.11111111111111L189,82.22222222222221L190,81.33333333333333L191,80.8888888888889L192,80L193,79.55555555555556L194,78.66666666666666L195,78.22222222222221L196,77.33333333333334L197,76.8888888888889L198,76L199,75.55555555555556L200,74.66666666666666" stroke="#f58518" stroke-width="2"/></g></g><path class="foreground" aria-hidden="true" d="" display="none"/></g><g transform="translate(0,0)"><path class="background" aria-hidden="true" d="M0,0h200v200h-200Z"/><g><g class="mark-line role-mark marks" role="graphics-object" aria-roledescription="line mark container"><path aria-label="D: 1; A: 2; p: 0.01" role="graphics-symbol" aria-roledescription="line mark" d="M1,199.11111111111111L2,199.11111111111111L3,199.11111111111111L4,198.66666666666666L5,198.66666666666666L6,198.22222222222223L7.000000000000001,198.22222222222223L8,198.22222222222223L9,197.77777777777777L10,197.77777777777777L11,197.33333333333334L12,196.88888888888889L13,196.88888888888889L14.000000000000002,196.44444444444446L15,196L16,195.55555555555554L17,195.11111111111111L18,194.66666666666669L19,194.22222222222223L20,194.22222222222223L21,193.77777777777777L22,193.33333333333334L23,192.88888888888889L24,192L25,191.55555555555554L26,191.11111111111111L27,190.66666666666669L28.000000000000004,190.22222222222223L28.999999999999996,189.77777777777777L30,189.33333333333334L31,188.88888888888889L32,188.44444444444443L33,188L34,187.55555555555557L35,186.66666666666666L36,186.22222222222223L37,185.77777777777777L38,185.33333333333331L39,184.88888888888889L40,184L41,183.55555555555557L42,183.11111111111111L43,182.66666666666666L44,182.22222222222223L45,181.33333333333331L46,180.88888888888889L47,180.44444444444446L48,180L49,179.11111111111111L50,178.66666666666666L51,178.22222222222223L52,177.77777777777777L53,176.88888888888889L54,176.44444444444446L55.00000000000001,176L56.00000000000001,175.55555555555554L56.99999999999999,174.66666666666666L57.99999999999999,174.22222222222223L59,173.77777777777777L60,173.33333333333334L61,172.44444444444446L62,172L63,171.55555555555554L64,170.66666666666666L65,170.22222222222223L66,169.77777777777777L67,168.88888888888889L68,168.44444444444443L69,168L70,167.11111111111111L71,166.66666666666669L72,166.22222222222223L73,165.33333333333334L74,164.88888888888889L75,164.44444444444443L76,163.55555555555554L77,163.11111111111111L78,162.66666666666666L79,161.77777777777777L80,161.33333333333331L81,160.88888888888889L82,160L83,159.55555555555557L84,159.11111111111111L85,158.22222222222223L86,157.77777777777777L87,157.33333333333331L88,156.44444444444446L89,156L90,155.11111111111111L91,154.66666666666666L92,154.22222222222223L93,153.33333333333331L94,152.88888888888889L95,152.44444444444446L96,151.55555555555554L97,151.11111111111111L98,150.2222222222222L99,149.7777777777778L100,149.33333333333331L101,148.44444444444446L102,148L103,147.11111111111111L104,146.66666666666669L105,146.2222222222222L106,145.33333333333334L107,144.88888888888889L108,144L109.00000000000001,143.55555555555557L110.00000000000001,143.1111111111111L111.00000000000001,142.22222222222223L112.00000000000001,141.77777777777777L112.99999999999999,140.88888888888889L113.99999999999999,140.44444444444446L114.99999999999999,140L115.99999999999999,139.1111111111111L117,138.66666666666669L118,137.77777777777777L119,137.33333333333334L120,136.88888888888889L121,136L122,135.55555555555557L123,134.66666666666666L124,134.22222222222223L125,133.33333333333334L126,132.88888888888889L127,132.44444444444446L128,131.55555555555557L129,131.11111111111111L130,130.22222222222223L131,129.77777777777777L132,129.33333333333334L133,128.44444444444446L134,128L135,127.11111111111111L136,126.66666666666666L137,125.77777777777777L138,125.33333333333334L139,124.44444444444444L140,124L141,123.55555555555556L142,122.66666666666666L143,122.22222222222223L144,121.33333333333334L145,120.88888888888889L146,120L147,119.55555555555554L148,118.66666666666666L149,118.22222222222223L150,117.77777777777779L151,116.88888888888889L152,116.44444444444444L153,115.55555555555554L154,115.11111111111111L155,114.22222222222223L156,113.77777777777777L157,112.8888888888889L158,112.44444444444443L159,112.00000000000001L160,111.11111111111111L161,110.66666666666667L162,109.77777777777777L163,109.33333333333333L164,108.44444444444443L165,108L166,107.11111111111111L167,106.66666666666667L168,105.7777777777778L169,105.33333333333333L170,104.44444444444443L171,104L172,103.55555555555556L173,102.66666666666666L174,102.22222222222221L175,101.33333333333331L176,100.8888888888889L177,100L178,99.55555555555556L179,98.66666666666666L180,98.22222222222223L181,97.33333333333334L182,96.88888888888889L183,96L184,95.55555555555554L185,94.66666666666667L186,94.22222222222223L187,93.33333333333333L188,92.88888888888889L189,92.44444444444444L190,91.55555555555554L191,91.11111111111111L192,90.22222222222223L193,89.77777777777777L194,88.88888888888889L195,88.44444444444444L196,87.55555555555557L197,87.11111111111111L198,86.22222222222223L199,85.77777777777777L200,84.88888888888889" stroke="#4c78a8" stroke-width="2"/></g></g><path class="foreground" aria-hidden="true" d="" display="none"/></g></g><g class="mark-group role-legend" role="graphics-symbol" aria-roledescription="legend" aria-label="Symbol legend titled 'p' for stroke color with 7 values: 0.01, 0.05, 0.25, 0.5, 0.75, 0.95, 0.99"><g transform="translate(220,0)"><path class="background" aria-hidden="true" d="M0,0h39v105h-39Z" pointer-events="none"/><g><g class="mark-group role-legend-entry"><g transform="translate(0,16)"><path class="background" aria-hidden="true" d="M0,0h0v0h0Z" pointer-events="none"/><g><g class="mark-group role-scope" role="graphics-object" aria-roledescription="group mark container"><g transform="translate(0,0)"><path class="background" aria-hidden="true" d="M0,0h38.28333282470703v11h-38.28333282470703Z" pointer-events="none" opacity="1"/><g><g class="mark-symbol role-legend-symbol" pointer-events="none"><path transform="translate(6,6)" d="M-5,0L5,0" stroke="#4c78a8" stroke-width="1.5" opacity="1"/></g><g class="mark-text role-legend-label" pointer-events="none"><text text-anchor="start" transform="translate(16,9)" font-family="sans-serif" font-size="10px" fill="#000" opacity="1">0.01</text></g></g><path class="foreground" aria-hidden="true" d="" pointer-events="none" display="none"/></g><g transform="translate(0,13)"><path class="background" aria-hidden="true" d="M0,0h38.28333282470703v11h-38.28333282470703Z" pointer-events="none" opacity="1"/><g><g class="mark-symbol role-legend-symbol" pointer-events="none"><path transform="translate(6,6)" d="M-5,0L5,0" stroke="#f58518" stroke-width="1.5" opacity="1"/></g><g class="mark-text role-legend-label" pointer-events="none"><text text-anchor="start" transform="translate(16,9)" font-family="sans-serif" font-size="10px" fill="#000" opacity="1">0.05</text></g></g><path class="foreground" aria-hidden="true" d="" pointer-events="none" display="none"/></g><g transform="translate(0,26)"><path class="background" aria-hidden="true" d="M0,0h38.28333282470703v11h-38.28333282470703Z" pointer-events="none" opacity="1"/><g><g class="mark-symbol role-legend-symbol" pointer-events="none"><path transform="translate(6,6)" d="M-5,0L5,0" stroke="#e45756" stroke-width="1.5" opacity="1"/></g><g class="mark-text role-legend-label" pointer-events="none"><text text-anchor="start" transform="translate(16,9)" font-family="sans-serif" font-size="10px" fill="#000" opacity="1">0.25</text></g></g><path class="foreground" aria-hidden="true" d="" pointer-events="none" display="none"/></g><g transform="translate(0,39)"><path class="background" aria-hidden="true" d="M0,0h38.28333282470703v11h-38.28333282470703Z" pointer-events="none" opacity="1"/><g><g class="mark-symbol role-legend-symbol" pointer-events="none"><path transform="translate(6,6)" d="M-5,0L5,0" stroke="#72b7b2" stroke-width="1.5" opacity="1"/></g><g class="mark-text role-legend-label" pointer-events="none"><text text-anchor="start" transform="translate(16,9)" font-family="sans-serif" font-size="10px" fill="#000" opacity="1">0.5</text></g></g><path class="foreground" aria-hidden="true" d="" pointer-events="none" display="none"/></g><g transform="translate(0,52)"><path class="background" aria-hidden="true" d="M0,0h38.28333282470703v11h-38.28333282470703Z" pointer-events="none" opacity="1"/><g><g class="mark-symbol role-legend-symbol" pointer-events="none"><path transform="translate(6,6)" d="M-5,0L5,0" stroke="#54a24b" stroke-width="1.5" opacity="1"/></g><g class="mark-text role-legend-label" pointer-events="none"><text text-anchor="start" transform="translate(16,9)" font-family="sans-serif" font-size="10px" fill="#000" opacity="1">0.75</text></g></g><path class="foreground" aria-hidden="true" d="" pointer-events="none" display="none"/></g><g transform="translate(0,65)"><path class="background" aria-hidden="true" d="M0,0h38.28333282470703v11h-38.28333282470703Z" pointer-events="none" opacity="1"/><g><g class="mark-symbol role-legend-symbol" pointer-events="none"><path transform="translate(6,6)" d="M-5,0L5,0" stroke="#eeca3b" stroke-width="1.5" opacity="1"/></g><g class="mark-text role-legend-label" pointer-events="none"><text text-anchor="start" transform="translate(16,9)" font-family="sans-serif" font-size="10px" fill="#000" opacity="1">0.95</text></g></g><path class="foreground" aria-hidden="true" d="" pointer-events="none" display="none"/></g><g transform="translate(0,78)"><path class="background" aria-hidden="true" d="M0,0h38.28333282470703v11h-38.28333282470703Z" pointer-events="none" opacity="1"/><g><g class="mark-symbol role-legend-symbol" pointer-events="none"><path transform="translate(6,6)" d="M-5,0L5,0" stroke="#b279a2" stroke-width="1.5" opacity="1"/></g><g class="mark-text role-legend-label" pointer-events="none"><text text-anchor="start" transform="translate(16,9)" font-family="sans-serif" font-size="10px" fill="#000" opacity="1">0.99</text></g></g><path class="foreground" aria-hidden="true" d="" pointer-events="none" display="none"/></g></g></g><path class="foreground" aria-hidden="true" d="" pointer-events="none" display="none"/></g></g><g class="mark-text role-legend-title" pointer-events="none"><text text-anchor="start" transform="translate(0,9)" font-family="sans-serif" font-size="11px" font-weight="bold" fill="#000" opacity="1">p</text></g></g><path class="foreground" aria-hidden="true" d="" pointer-events="none" display="none"/></g></g></g><path class="foreground" aria-hidden="true" d="" display="none"/></g></g></g></svg>