<svg xmlns="http://www.w3.org/2000/svg" xmlns:xlink="http://www.w3.org/1999/xlink" version="1.1" class="marks" width="298" height="247" viewBox="0 0 298 247"><rect width="298" height="247" fill="white"/><g fill="none" stroke-miterlimit="10" transform="translate(34,10)"><g class="mark-group role-frame root" role="graphics-object" aria-roledescription="group mark container"><g transform="translate(0,0)"><path class="background" aria-hidden="true" d="M0.5,0.5h200v200h-200Z" stroke="#ddd"/><g><g class="mark-group role-axis" aria-hidden="true"><g transform="translate(0.5,200.5)"><path class="background" aria-hidden="true" d="M0,0h0v0h0Z" pointer-events="none"/><g><g class="mark-rule role-axis-grid" pointer-events="none"><line transform="translate(0,-200)" x2="0" y2="200" stroke="#ddd" stroke-width="1" opacity="1"/><line transform="translate(40,-200)" x2="0" y2="200" stroke="#ddd" stroke-width="1" opacity="1"/><line transform="translate(80,-200)" x2="0" y2="200" stroke="#ddd" stroke-width="1" opacity="1"/><line transform="translate(120,-200)" x2="0" y2="200" stroke="#ddd" stroke-width="1" opacity="1"/><line transform="translate(160,-200)" x2="0" y2="200" stroke="#ddd" stroke-width="1" opacity="1"/><line transform="translate(200,-200)" x2="0" y2="200" stroke="#ddd" stroke-width="1" opacity="1"/></g></g><path class="foreground" aria-hidden="true" d="" pointer-events="none" display="none"/></g></g><g class="mark-group role-axis" aria-hidden="true"><g transform="translate(0.5,0.5)"><path class="background" aria-hidden="true" d="M0,0h0v0h0Z" pointer-events="none"/><g><g class="mark-rule role-axis-grid" pointer-events="none"><line transform="translate(0,200)" x2="200" y2="0" stroke="#ddd" stroke-width="1" opacity="1"/><line transform="translate(0,171)" x2="200" y2="0" stroke="#ddd" stroke-width="1" opacity="1"/><line transform="translate(0,143)" x2="200" y2="0" stroke="#ddd" stroke-width="1" opacity="1"/><line transform="translate(0,114)" x2="200" y2="0" stroke="#ddd" stroke-width="1" opacity="1"/><line transform="translate(0,86)" x2="200" y2="0" stroke="#ddd" stroke-width="1" opacity="1"/><line transform="translate(0,57)" x2="200" y2="0" stroke="#ddd" stroke-width="1" opacity="1"/><line transform="translate(0,29)" x2="200" y2="0" stroke="#ddd" stroke-width="1" opacity="1"/><line transform="translate(0,0)" x2="200" y2="0" stroke="#ddd" stroke-width="1" opacity="1"/></g></g><path class="foreground" aria-hidden="true" d="" pointer-events="none" display="none"/></g></g><g class="mark-group role-axis" role="graphics-symbol" aria-roledescription="axis" aria-label="X-axis titled 'D' for a linear scale with values from 0 to 50"><g transform="translate(0.5,200.5)"><path class="background" aria-hidden="true" d="M0,0h0v0h0Z" pointer-events="none"/><g><g class="mark-rule role-axis-tick" pointer-events="none"><line transform="translate(0,0)" x2="0" y2="5" stroke="#888" stroke-width="1" opacity="1"/><line transform="translate(40,0)" x2="0" y2="5" stroke="#888" stroke-width="1" opacity="1"/><line transform="translate(80,0)" x2="0" y2="5" stroke="#888" stroke-width="1" opacity="1"/><line transform="translate(120,0)" x2="0" y2="5" stroke="#888" stroke-width="1" opacity="1"/><line transform="translate(160,0)" x2="0" y2="5" stroke="#888" stroke-width="1" opacity="1"/><line transform="translate(200,0)" x2="0" y2="5" stroke="#888" stroke-width="1" opacity="1"/></g><g class="mark-text role-axis-label" pointer-events="none"><text text-anchor="start" transform="translate(0,15)" font-family="sans-serif" font-size="10px" fill="#000" opacity="1">1</text><text text-anchor="middle" transform="translate(40,15)" font-family="sans-serif" font-size="10px" fill="#000" opacity="1">10</text><text text-anchor="middle" transform="translate(80,15)" font-family="sans-serif" font-size="10px" fill="#000" opacity="1">20</text><text text-anchor="middle" transform="translate(120,15)" font-family="sans-serif" font-size="10px" fill="#000" opacity="1">30</text><text text-anchor="middle" transform="translate(160,15)" font-family="sans-serif" font-size="10px" fill="#000" opacity="1">40</text><text text-anchor="end" transform="translate(200,15)" font-family="sans-serif" font-size="10px" fill="#000" opacity="1">50</text></g><g class="mark-rule role-axis-domain" pointer-events="none"><line transform="translate(0,0)" x2="200" y2="0" stroke="#888" stroke-width="1" opacity="1"/></g><g class="mark-text role-axis-title" pointer-events="none"><text text-anchor="middle" transform="translate(100,30)" font-family="sans-serif" font-size="11px" font-weight="bold" fill="#000" opacity="1">D</text></g></g><path class="foreground" aria-hidden="true" d="" pointer-events="none" display="none"/></g></g><g class="mark-group role-axis" role="graphics-symbol" aria-roledescription="axis" aria-label="Y-axis titled 'A / D' for a linear scale with values from 0 to 7"><g transform="translate(0.5,0.5)"><path class="background" aria-hidden="true" d="M0,0h0v0h0Z" pointer-events="none"/><g><g class="mark-rule role-axis-tick" pointer-events="none"><line transform="translate(0,200)" x2="-5" y2="0" stroke="#888" stroke-width="1" opacity="1"/><line transform="translate(0,171)" x2="-5" y2="0" stroke="#888" stroke-width="1" opacity="1"/><line transform="translate(0,143)" x2="-5" y2="0" stroke="#888" stroke-width="1" opacity="1"/><line transform="translate(0,114)" x2="-5" y2="0" stroke="#888" stroke-width="1" opacity="1"/><line transform="translate(0,86)" x2="-5" y2="0" stroke="#888" stroke-width="1" opacity="1"/><line transform="translate(0,57)" x2="-5" y2="0" stroke="#888" stroke-width="1" opacity="1"/><line transform="translate(0,29)" x2="-5" y2="0" stroke="#888" stroke-width="1" opacity="1"/><line transform="translate(0,0)" x2="-5" y2="0" stroke="#888" stroke-width="1" opacity="1"/></g><g class="mark-text role-axis-label" pointer-events="none"><text text-anchor="end" transform="translate(-7,203)" font-family="sans-serif" font-size="10px" fill="#000" opacity="1">0</text><text text-anchor="end" transform="translate(-7,174.42857142857144)" font-family="sans-serif" font-size="10px" fill="#000" opacity="1">1</text><text text-anchor="end" transform="translate(-7,145.85714285714286)" font-family="sans-serif" font-size="10px" fill="#000" opacity="1">2</text><text text-anchor="end" transform="translate(-7,117.28571428571428)" font-family="sans-serif" font-size="10px" fill="#000" opacity="1">3</text><text text-anchor="end" transform="translate(-7,88.71428571428572)" font-family="sans-serif" font-size="10px" fill="#000" opacity="1">4</text><text text-anchor="end" transform="translate(-7,60.14285714285714)" font-family="sans-serif" font-size="10px" fill="#000" opacity="1">5</text><text text-anchor="end" transform="translate(-7,31.57142857142858)" font-family="sans-serif" font-size="10px" fill="#000" opacity="1">6</text><text text-anchor="end" transform="translate(-7,3)" font-family="sans-serif" font-size="10px" fill="#000" opacity="1">7</text></g><g class="mark-rule role-axis-domain" pointer-events="none"><line transform="translate(0,200)" x2="0" y2="-200" stroke="#888" stroke-width="1" opacity="1"/></g><g class="mark-text role-axis-title" pointer-events="none"><text text-anchor="middle" transform="translate(-17.366666793823242,100) rotate(-90) translate(0,-2)" font-family="sans-serif" font-size="11px" font-weight="bold" fill="#000" opacity="1">A / D</text></g></g><path class="foreground" aria-hidden="true" d="" pointer-events="none" display="none"/></g></g><g class="mark-group role-scope pathgroup" role="graphics-object" aria-roledescription="group mark container"><g transform="translate(0,0)"><path class="background" aria-hidden="true" d="M0,0h200v200h-200Z"/><g><g class="mark-line role-mark marks" role="graphics-object" aria-roledescription="line mark container"><path aria-label="D: 1; A / D: 6; p: 0.99" role="graphics-symbol" aria-roledescription="line mark" d="M4,28.57142857142858L8,57.14285714285714L12,76.2L16,92.85714285714286L20,108.57142857142857L24,114.28571428571428L28.000000000000004,118.37142857142857L32,125L36,126.97142857142856L40,131.42857142857142L44,135.05714285714285L48,135.71428571428572L52,138.45714285714286L56.00000000000001,138.7714285714286L60,140.94285714285712L64,142.85714285714286L68,144.54285714285712L72,144.45714285714286L76,145.85714285714286L80,147.14285714285717L84,148.28571428571428L88,148.05714285714285L92,149.05714285714288L96,150L100,150.85714285714283L104,151.65714285714284L108,151.31428571428572L112.00000000000001,152.0285714285714L115.99999999999999,152.71428571428572L120,153.34285714285713L124,153.9142857142857L128,153.57142857142856L132,154.11428571428573L136,154.62857142857143L140,155.11428571428573L144,155.54285714285714L148,155.97142857142856L152,156.4L156,156.77142857142857L160,156.42857142857142L164,156.8L168,157.14285714285714L172,157.48571428571427L176,157.79999999999998L180,158.0857142857143L184,158.37142857142857L188,158.65714285714284L192,158.34285714285713L196,158.6L200,158.85714285714286" stroke="#b279a2" stroke-width="2"/></g></g><path class="foreground" aria-hidden="true" d="" display="none"/></g><g transform="translate(0,0)"><path class="background" aria-hidden="true" d="M0,0h200v200h-200Z"/><g><g class="mark-line role-mark marks" role="graphics-object" aria-roledescription="line mark container"><path aria-label="D: 1; A / D: 5; p: 0.95" role="graphics-symbol" aria-roledescription="line mark" d="M4,57.14285714285714L8,85.71428571428572L12,104.77142857142856L16,121.42857142857144L20,125.71428571428571L24,133.34285714285713L28.000000000000004,134.6857142857143L32,139.28571428571428L36,142.85714285714286L40,145.71428571428572L44,145.45714285714286L48,147.62857142857143L52,149.45714285714286L56.00000000000001,151.0285714285714L60,152.37142857142857L64,151.77142857142857L68,152.94285714285712L72,153.97142857142856L76,154.8857142857143L80,155.71428571428572L84,156.45714285714286L88,155.85714285714286L92,156.5142857142857L96,157.14285714285714L100,157.71428571428572L104,158.22857142857143L108,158.74285714285713L112.00000000000001,159.17142857142858L115.99999999999999,159.60000000000002L120,160L124,160.37142857142857L128,160.71428571428572L132,161.02857142857144L136,161.34285714285716L140,160.82857142857142L144,161.11428571428573L148,161.39999999999998L152,161.65714285714284L156,161.9142857142857L160,162.14285714285714L164,162.37142857142857L168,162.57142857142856L172,162.8L176,163L180,163.17142857142858L184,163.34285714285716L188,163.51428571428573L192,163.6857142857143L196,163.85714285714286L200,164" stroke="#eeca3b" stroke-width="2"/></g></g><path class="foreground" aria-hidden="true" d="" display="none"/></g><g transform="translate(0,0)"><path class="background" aria-hidden="true" d="M0,0h200v200h-200Z"/><g><g class="mark-line role-mark marks" role="graphics-object" aria-roledescription="line mark container"><path aria-label="D: 1; A / D: 3; p: 0.75" role="graphics-symbol" aria-roledescription="line mark" d="M4,114.28571428571428L8,128.57142857142856L12,142.85714285714286L16,142.85714285714286L20,148.57142857142858L24,152.37142857142857L28.000000000000004,155.11428571428573L32,157.14285714285714L36,158.74285714285713L40,160L44,161.02857142857144L48,161.9142857142857L52,162.62857142857143L56.00000000000001,163.25714285714287L60,163.79999999999998L64,164.28571428571428L68,164.71428571428572L72,165.0857142857143L76,165.39999999999998L80,165.7142857142857L84,166L88,166.22857142857143L92,166.45714285714286L96,166.65714285714287L100,166.85714285714286L104,167.02857142857144L108,168.25714285714287L112.00000000000001,168.37142857142857L115.99999999999999,168.4857142857143L120,168.57142857142858L124,168.65714285714287L128,168.74285714285713L132,168.82857142857142L136,168.9142857142857L140,168.97142857142856L144,169.05714285714285L148,169.11428571428573L152,169.17142857142858L156,169.22857142857143L160,169.28571428571428L164,169.34285714285716L168,169.4L172,170.0857142857143L176,170.14285714285714L180,170.17142857142858L184,170.2L188,170.2L192,170.22857142857143L196,170.25714285714287L200,170.28571428571428" stroke="#54a24b" stroke-width="2"/></g></g><path class="foreground" aria-hidden="true" d="" display="none"/></g><g transform="translate(0,0)"><path class="background" aria-hidden="true" d="M0,0h200v200h-200Z"/><g><g class="mark-line role-mark marks" role="graphics-object" aria-roledescription="line mark container"><path aria-label="D: 1; A / D: 3; p: 0.5" role="graphics-symbol" aria-roledescription="line mark" d="M4,114.28571428571428L8,142.85714285714286L12,152.37142857142857L16,157.14285714285714L20,165.7142857142857L24,166.65714285714287L28.000000000000004,167.34285714285716L32,167.85714285714286L36,168.25714285714287L40,168.57142857142858L44,168.82857142857142L48,171.42857142857144L52,171.42857142857144L56.00000000000001,171.42857142857144L60,171.42857142857144L64,171.42857142857144L68,171.42857142857144L72,171.42857142857144L76,172.94285714285715L80,172.85714285714286L84,172.8L88,172.71428571428572L92,172.65714285714287L96,172.62857142857143L100,172.57142857142858L104,173.62857142857143L108,173.54285714285714L112.00000000000001,173.45714285714286L115.99999999999999,173.4L120,173.34285714285716L124,173.28571428571428L128,173.2L132,174.0285714285714L136,173.94285714285712L140,173.8857142857143L144,173.8L148,173.74285714285716L152,173.68571428571428L156,174.37142857142857L160,174.28571428571428L164,174.22857142857143L168,174.14285714285717L172,174.0857142857143L176,174.0285714285714L180,173.9714285714286L184,174.54285714285714L188,174.45714285714286L192,174.4L196,174.34285714285713L200,174.28571428571428" stroke="#72b7b2" stroke-width="2"/></g></g><path class="foreground" aria-hidden="true" d="" display="none"/></g><g transform="translate(0,0)"><path class="background" aria-hidden="true" d="M0,0h200v200h-200Z"/><g><g class="mark-line role-mark marks" role="graphics-object" aria-roledescription="line mark container"><path aria-label="D: 1; A / D: 2; p: 0.25" role="graphics-symbol" aria-roledescription="line mark" d="M4,142.85714285714286L8,157.14285714285714L12,161.9142857142857L16,171.42857142857144L20,171.42857142857144L24,176.2L28.000000000000004,175.5142857142857L32,175L36,177.77142857142857L40,177.14285714285714L44,176.62857142857143L48,176.2L52,178.0285714285714L56.00000000000001,177.54285714285714L60,177.14285714285714L64,178.57142857142858L68,178.14285714285714L72,177.77142857142857L76,177.45714285714286L80,178.57142857142858L84,178.22857142857143L88,177.9142857142857L92,177.62857142857143L96,178.57142857142858L100,178.28571428571428L104,178.0285714285714L108,177.77142857142857L112.00000000000001,178.57142857142858L115.99999999999999,178.31428571428572L120,178.0857142857143L124,177.8857142857143L128,178.57142857142858L132,178.34285714285713L136,178.14285714285714L140,177.9714285714286L144,178.57142857142858L148,178.37142857142857L152,178.2L156,178.0285714285714L160,177.85714285714283L164,178.4L168,178.22857142857143L172,178.0857142857143L176,177.9142857142857L180,178.4L184,178.25714285714284L188,178.1142857142857L192,177.9714285714286L196,177.82857142857142L200,178.28571428571428" stroke="#e45756" stroke-width="2"/></g></g><path class="foreground" aria-hidden="true" d="" display="none"/></g><g transform="translate(0,0)"><path class="background" aria-hidden="true" d="M0,0h200v200h-200Z"/><g><g class="mark-line role-mark marks" role="graphics-object" aria-roledescription="line mark container"><path aria-label="D: 1; A / D: 2; p: 0.05" role="graphics-symbol" aria-roledescription="line mark" d="M4,142.85714285714286L8,171.42857142857144L12,171.42857142857144L16,178.57142857142858L20,177.14285714285714L24,180.94285714285715L28.000000000000004,183.68571428571428L32,185.71428571428572L36,184.11428571428573L40,185.71428571428572L44,184.42857142857144L48,185.71428571428572L52,184.62857142857143L56.00000000000001,185.71428571428572L60,184.77142857142857L64,185.71428571428572L68,184.88571428571427L72,185.71428571428572L76,184.97142857142856L80,184.28571428571428L84,185.02857142857144L88,184.42857142857144L92,185.0857142857143L96,184.51428571428573L100,184L104,184.62857142857143L108,184.11428571428573L112.00000000000001,184.68571428571428L115.99999999999999,184.22857142857143L120,183.8L124,184.34285714285716L128,183.9142857142857L132,183.54285714285714L136,184.02857142857144L140,183.68571428571428L144,183.34285714285713L148,183.77142857142857L152,183.45714285714286L156,183.14285714285714L160,183.57142857142856L164,183.2857142857143L168,183.68571428571428L172,183.4L176,183.11428571428573L180,182.85714285714286L184,183.22857142857143L188,182.97142857142856L192,182.74285714285713L196,183.0857142857143L200,182.85714285714286" stroke="#f58518" stroke-width="2"/></g></g><path class="foreground" aria-hidden="true" d="" display="none"/></g><g transform="translate(0,0)"><path class="background" aria-hidden="true" d="M0,0h200v200h-200Z"/><g><g class="mark-line role-mark marks" role="graphics-object" aria-roledescription="line mark container"><path aria-label="D: 1; A / D: 2; p: 0.01" role="graphics-symbol" aria-roledescription="line mark" d="M4,142.85714285714286L8,171.42857142857144L12,180.94285714285715L16,178.57142857142858L20,182.85714285714286L24,185.71428571428572L28.000000000000004,187.74285714285713L32,185.71428571428572L36,187.31428571428572L40,188.57142857142856L44,189.6L48,188.0857142857143L52,189L56.00000000000001,189.79999999999998L60,188.57142857142856L64,189.28571428571428L68,188.22857142857143L72,188.88571428571427L76,189.48571428571427L80,188.57142857142856L84,189.11428571428573L88,188.31428571428572L92,188.82857142857142L96,188.0857142857143L100,188.57142857142856L104,187.9142857142857L108,188.37142857142857L112.00000000000001,187.74285714285713L115.99999999999999,188.17142857142858L120,187.62857142857143L124,187.0857142857143L128,187.48571428571427L132,187L136,187.4L140,186.94285714285715L144,187.31428571428572L148,186.88571428571427L152,187.22857142857143L156,186.79999999999998L160,186.42857142857144L164,186.77142857142857L168,186.4L172,186.71428571428572L176,186.37142857142857L180,186.02857142857144L184,186.34285714285716L188,186.02857142857144L192,186.31428571428572L196,186L200,185.71428571428572" stroke="#4c78a8" stroke-width="2"/></g></g><path class="foreground" aria-hidden="true" d="" display="none"/></g></g><g class="mark-group role-legend" role="graphics-symbol" aria-roledescription="legend" aria-label="Symbol legend titled 'p' for stroke color with 7 values: 0.01, 0.05, 0.25, 0.5, 0.75, 0.95, 0.99"><g transform="translate(220,0)"><path class="background" aria-hidden="true" d="M0,0h39v105h-39Z" pointer-events="none"/><g><g class="mark-group role-legend-entry"><g transform="translate(0,16)"><path class="background" aria-hidden="true" d="M0,0h0v0h0Z" pointer-events="none"/><g><g class="mark-group role-scope" role="graphics-object" aria-roledescription="group mark container"><g transform="translate(0,0)"><path class="background" aria-hidden="true" d="M0,0h38.28333282470703v11h-38.28333282470703Z" pointer-events="none" opacity="1"/><g><g class="mark-symbol role-legend-symbol" pointer-events="none"><path transform="translate(6,6)" d="M-5,0L5,0" stroke="#4c78a8" stroke-width="1.5" opacity="1"/></g><g class="mark-text role-legend-label" pointer-events="none"><text text-anchor="start" transform="translate(16,9)" font-family="sans-serif" font-size="10px" fill="#000" opacity="1">0.01</text></g></g><path class="foreground" aria-hidden="true" d="" pointer-events="none" display="none"/></g><g transform="translate(0,13)"><path class="background" aria-hidden="true" d="M0,0h38.28333282470703v11h-38.28333282470703Z" pointer-events="none" opacity="1"/><g><g class="mark-symbol role-legend-symbol" pointer-events="none"><path transform="translate(6,6)" d="M-5,0L5,0" stroke="#f58518" stroke-width="1.5" opacity="1"/></g><g class="mark-text role-legend-label" pointer-events="none"><text text-anchor="start" transform="translate(16,9)" font-family="sans-serif" font-size="10px" fill="#000" opacity="1">0.05</text></g></g><path class="foreground" aria-hidden="true" d="" pointer-events="none" display="none"/></g><g transform="translate(0,26)"><path class="background" aria-hidden="true" d="M0,0h38.28333282470703v11h-38.28333282470703Z" pointer-events="none" opacity="1"/><g><g class="mark-symbol role-legend-symbol" pointer-events="none"><path transform="translate(6,6)" d="M-5,0L5,0" stroke="#e45756" stroke-width="1.5" opacity="1"/></g><g class="mark-text role-legend-label" pointer-events="none"><text text-anchor="start" transform="translate(16,9)" font-family="sans-serif" font-size="10px" fill="#000" opacity="1">0.25</text></g></g><path class="foreground" aria-hidden="true" d="" pointer-events="none" display="none"/></g><g transform="translate(0,39)"><path class="background" aria-hidden="true" d="M0,0h38.28333282470703v11h-38.28333282470703Z" pointer-events="none" opacity="1"/><g><g class="mark-symbol role-legend-symbol" pointer-events="none"><path transform="translate(6,6)" d="M-5,0L5,0" stroke="#72b7b2" stroke-width="1.5" opacity="1"/></g><g class="mark-text role-legend-label" pointer-events="none"><text text-anchor="start" transform="translate(16,9)" font-family="sans-serif" font-size="10px" fill="#000" opacity="1">0.5</text></g></g><path class="foreground" aria-hidden="true" d="" pointer-events="none" display="none"/></g><g transform="translate(0,52)"><path class="background" aria-hidden="true" d="M0,0h38.28333282470703v11h-38.28333282470703Z" pointer-events="none" opacity="1"/><g><g class="mark-symbol role-legend-symbol" pointer-events="none"><path transform="translate(6,6)" d="M-5,0L5,0" stroke="#54a24b" stroke-width="1.5" opacity="1"/></g><g class="mark-text role-legend-label" pointer-events="none"><text text-anchor="start" transform="translate(16,9)" font-family="sans-serif" font-size="10px" fill="#000" opacity="1">0.75</text></g></g><path class="foreground" aria-hidden="true" d="" pointer-events="none" display="none"/></g><g transform="translate(0,65)"><path class="background" aria-hidden="true" d="M0,0h38.28333282470703v11h-38.28333282470703Z" pointer-events="none" opacity="1"/><g><g class="mark-symbol role-legend-symbol" pointer-events="none"><path transform="translate(6,6)" d="M-5,0L5,0" stroke="#eeca3b" stroke-width="1.5" opacity="1"/></g><g class="mark-text role-legend-label" pointer-events="none"><text text-anchor="start" transform="translate(16,9)" font-family="sans-serif" font-size="10px" fill="#000" opacity="1">0.95</text></g></g><path class="foreground" aria-hidden="true" d="" pointer-events="none" display="none"/></g><g transform="translate(0,78)"><path class="background" aria-hidden="true" d="M0,0h38.28333282470703v11h-38.28333282470703Z" pointer-events="none" opacity="1"/><g><g class="mark-symbol role-legend-symbol" pointer-events="none"><path transform="translate(6,6)" d="M-5,0L5,0" stroke="#b279a2" stroke-width="1.5" opacity="1"/></g><g class="mark-text role-legend-label" pointer-events="none"><text text-anchor="start" transform="translate(16,9)" font-family="sans-serif" font-size="10px" fill="#000" opacity="1">0.99</text></g></g><path class="foreground" aria-hidden="true" d="" pointer-events="none" display="none"/></g></g></g><path class="foreground" aria-hidden="true" d="" pointer-events="none" display="none"/></g></g><g class="mark-text role-legend-title" pointer-events="none"><text text-anchor="start" transform="translate(0,9)" font-family="sans-serif" font-size="11px" font-weight="bold" fill="#000" opacity="1">p</text></g></g><path class="foreground" aria-hidden="true" d="" pointer-events="none" display="none"/></g></g></g><path class="foreground" aria-hidden="true" d="" display="none"/></g></g></g></svg>