<svg xmlns="http://www.w3.org/2000/svg" xmlns:xlink="http://www.w3.org/1999/xlink" version="1.1" class="marks" width="298" height="247" viewBox="0 0 298 247"><rect width="298" height="247" fill="white"/><g fill="none" stroke-miterlimit="10" transform="translate(34,10)"><g class="mark-group role-frame root" role="graphics-object" aria-roledescription="group mark container"><g transform="translate(0,0)"><path class="background" aria-hidden="true" d="M0.5,0.5h200v200h-200Z" stroke="#ddd"/><g><g class="mark-group role-axis" aria-hidden="true"><g transform="translate(0.5,200.5)"><path class="background" aria-hidden="true" d="M0,0h0v0h0Z" pointer-events="none"/><g><g class="mark-rule role-axis-grid" pointer-events="none"><line transform="translate(0,-200)" x2="0" y2="200" stroke="#ddd" stroke-width="1" opacity="1"/><line transform="translate(50,-200)" x2="0" y2="200" stroke="#ddd" stroke-width="1" opacity="1"/><line transform="translate(100,-200)" x2="0" y2="200" stroke="#ddd" stroke-width="1" opacity="1"/><line transform="translate(150,-200)" x2="0" y2="200" stroke="#ddd" stroke-width="1" opacity="1"/><line transform="translate(200,-200)" x2="0" y2="200" stroke="#ddd" stroke-width="1" opacity="1"/></g></g><path class="foreground" aria-hidden="true" d="" pointer-events="none" display="none"/></g></g><g class="mark-group role-axis" aria-hidden="true"><g transform="translate(0.5,0.5)"><path class="background" aria-hidden="true" d="M0,0h0v0h0Z" pointer-events="none"/><g><g class="mark-rule role-axis-grid" pointer-events="none"><line transform="translate(0,200)" x2="200" y2="0" stroke="#ddd" stroke-width="1" opacity="1"/><line transform="translate(0,171)" x2="200" y2="0" stroke="#ddd" stroke-width="1" opacity="1"/><line transform="translate(0,143)" x2="200" y2="0" stroke="#ddd" stroke-width="1" opacity="1"/><line transform="translate(0,114)" x2="200" y2="0" stroke="#ddd" stroke-width="1" opacity="1"/><line transform="translate(0,86)" x2="200" y2="0" stroke="#ddd" stroke-width="1" opacity="1"/><line transform="translate(0,57)" x2="200" y2="0" stroke="#ddd" stroke-width="1" opacity="1"/><line transform="translate(0,29)" x2="200" y2="0" stroke="#ddd" stroke-width="1" opacity="1"/><line transform="translate(0,0)" x2="200" y2="0" stroke="#ddd" stroke-width="1" opacity="1"/></g></g><path class="foreground" aria-hidden="true" d="" pointer-events="none" display="none"/></g></g><g class="mark-group role-axis" role="graphics-symbol" aria-roledescription="axis" aria-label="X-axis titled 'D' for a linear scale with values from 0 to 200"><g transform="translate(0.5,200.5)"><path class="background" aria-hidden="true" d="M0,0h0v0h0Z" pointer-events="none"/><g><g class="mark-rule role-axis-tick" pointer-events="none"><line transform="translate(0,0)" x2="0" y2="5" stroke="#888" stroke-width="1" opacity="1"/><line transform="translate(50,0)" x2="0" y2="5" stroke="#888" stroke-width="1" opacity="1"/><line transform="translate(100,0)" x2="0" y2="5" stroke="#888" stroke-width="1" opacity="1"/><line transform="translate(150,0)" x2="0" y2="5" stroke="#888" stroke-width="1" opacity="1"/><line transform="translate(200,0)" x2="0" y2="5" stroke="#888" stroke-width="1" opacity="1"/></g><g class="mark-text role-axis-label" pointer-events="none"><text text-anchor="start" transform="translate(0,15)" font-family="sans-serif" font-size="10px" fill="#000" opacity="1">1</text><text text-anchor="middle" transform="translate(50,15)" font-family="sans-serif" font-size="10px" fill="#000" opacity="1">50</text><text text-anchor="middle" transform="translate(100,15)" font-family="sans-serif" font-size="10px" fill="#000" opacity="1">100</text><text text-anchor="middle" transform="translate(150,15)" font-family="sans-serif" font-size="10px" fill="#000" opacity="1">150</text><text text-anchor="end" transform="translate(200,15)" font-family="sans-serif" font-size="10px" fill="#000" opacity="1">200</text></g><g class="mark-rule role-axis-domain" pointer-events="none"><line transform="translate(0,0)" x2="200" y2="0" stroke="#888" stroke-width="1" opacity="1"/></g><g class="mark-text role-axis-title" pointer-events="none"><text text-anchor="middle" transform="translate(100,30)" font-family="sans-serif" font-size="11px" font-weight="bold" fill="#000" opacity="1">D</text></g></g><path class="foreground" aria-hidden="true" d="" pointer-events="none" display="none"/></g></g><g class="mark-group role-axis" role="graphics-symbol" aria-roledescription="axis" aria-label="Y-axis titled 'A / D' for a linear scale with values from 0 to 7"><g transform="translate(0.5,0.5)"><path class="background" aria-hidden="true" d="M0,0h0v0h0Z" pointer-events="none"/><g><g class="mark-rule role-axis-tick" pointer-events="none"><line transform="translate(0,200)" x2="-5" y2="0" stroke="#888" stroke-width="1" opacity="1"/><line transform="translate(0,171)" x2="-5" y2="0" stroke="#888" stroke-width="1" opacity="1"/><line transform="translate(0,143)" x2="-5" y2="0" stroke="#888" stroke-width="1" opacity="1"/><line transform="translate(0,114)" x2="-5" y2="0" stroke="#888" stroke-width="1" opacity="1"/><line transform="translate(0,86)" x2="-5" y2="0" stroke="#888" stroke-width="1" opacity="1"/><line transform="translate(0,57)" x2="-5" y2="0" stroke="#888" stroke-width="1" opacity="1"/><line transform="translate(0,29)" x2="-5" y2="0" stroke="#888" stroke-width="1" opacity="1"/><line transform="translate(0,0)" x2="-5" y2="0" stroke="#888" stroke-width="1" opacity="1"/></g><g class="mark-text role-axis-label" pointer-events="none"><text text-anchor="end" transform="translate(-7,203)" font-family="sans-serif" font-size="10px" fill="#000" opacity="1">0</text><text text-anchor="end" transform="translate(-7,174.42857142857144)" font-family="sans-serif" font-size="10px" fill="#000" opacity="1">1</text><text text-anchor="end" transform="translate(-7,145.85714285714286)" font-family="sans-serif" font-size="10px" fill="#000" opacity="1">2</text><text text-anchor="end" transform="translate(-7,117.28571428571428)" font-family="sans-serif" font-size="10px" fill="#000" opacity="1">3</text><text text-anchor="end" transform="translate(-7,88.71428571428572)" font-family="sans-serif" font-size="10px" fill="#000" opacity="1">4</text><text text-anchor="end" transform="translate(-7,60.14285714285714)" font-family="sans-serif" font-size="10px" fill="#000" opacity="1">5</text><text text-anchor="end" transform="translate(-7,31.57142857142858)" font-family="sans-serif" font-size="10px" fill="#000" opacity="1">6</text><text text-anchor="end" transform="translate(-7,3)" font-family="sans-serif" font-size="10px" fill="#000" opacity="1">7</text></g><g class="mark-rule role-axis-domain" pointer-events="none"><line transform="translate(0,200)" x2="0" y2="-200" stroke="#888" stroke-width="1" opacity="1"/></g><g class="mark-text role-axis-title" pointer-events="none"><text text-anchor="middle" transform="translate(-17.366666793823242,100) rotate(-90) translate(0,-2)" font-family="sans-serif" font-size="11px" font-weight="bold" fill="#000" opacity="1">A / D</text></g></g><path class="foreground" aria-hidden="true" d="" pointer-events="none" display="none"/></g></g><g class="mark-group role-scope pathgroup" role="graphics-object" aria-roledescription="group mark container"><g transform="translate(0,0)"><path class="background" aria-hidden="true" d="M0,0h200v200h-200Z"/><g><g class="mark-line role-mark marks" role="graphics-object" aria-roledescription="line mark container"><path aria-label="D: 1; A / D: 6; p: 0.99" role="graphics-symbol" aria-roledescription="line mark" d="M1,28.57142857142858L2,57.14285714285714L3,19.05714285714286L4,35.71428571428572L5,45.71428571428571L6,57.14285714285714L7.000000000000001,65.3142857142857L8,71.42857142857142L9,76.2L10,80L11,83.11428571428571L12,85.71428571428572L13,90.1142857142857L14.000000000000002,91.82857142857144L15,93.34285714285716L16,96.42857142857142L17,97.48571428571428L18,100L19,100.74285714285713L20,102.85714285714285L21,103.4L22,105.2L23,105.60000000000001L24,107.14285714285714L25,108.57142857142857L26,108.80000000000001L27,110.05714285714285L28.000000000000004,111.22857142857141L28.999999999999996,111.34285714285714L30,112.37142857142857L31,113.37142857142857L32,113.39999999999999L33,114.28571428571428L34,115.11428571428573L35,115.91428571428573L36,115.88571428571429L37,116.6L38,117.28571428571428L39,117.94285714285715L40,117.85714285714286L41,118.45714285714286L42,119.05714285714284L43,119.6L44,119.48571428571428L45,120.00000000000001L46,120.48571428571428L47,120.97142857142858L48,121.42857142857144L49,121.85714285714286L50,121.71428571428571L51,122.14285714285715L52,122.5142857142857L53,122.91428571428571L54,123.28571428571429L55.00000000000001,123.62857142857142L56.00000000000001,123.45714285714287L56.99999999999999,123.8L57.99999999999999,124.14285714285715L59,124.45714285714287L60,124.77142857142857L61,125.05714285714285L62,125.34285714285716L63,125.62857142857142L64,125.45714285714284L65,125.71428571428571L66,125.97142857142858L67,126.22857142857144L68,126.45714285714287L69,126.71428571428571L70,126.94285714285715L71,127.17142857142858L72,127.37142857142858L73,127.2L74,127.4L75,127.62857142857142L76,127.82857142857145L77,128.0285714285714L78,128.2L79,128.4L80,128.57142857142856L81,128.74285714285713L82,128.9142857142857L83,129.0857142857143L84,129.25714285714287L85,129.4L86,129.57142857142858L87,129.71428571428572L88,129.54285714285714L89,129.68571428571428L90,129.82857142857142L91,129.9714285714286L92,130.11428571428573L93,130.25714285714284L94,130.4L95,130.5142857142857L96,130.65714285714284L97,130.77142857142857L98,130.9142857142857L99,131.02857142857144L100,131.14285714285714L101,131.25714285714284L102,131.37142857142857L103,131.4857142857143L104,131.6L105,131.71428571428572L106,131.8L107,131.9142857142857L108,132L109.00000000000001,132.11428571428573L110.00000000000001,132.20000000000002L111.00000000000001,132.3142857142857L112.00000000000001,132.39999999999998L112.99999999999999,132.48571428571427L113.99999999999999,132.57142857142856L114.99999999999999,132.65714285714284L115.99999999999999,132.77142857142857L117,132.85714285714286L118,132.94285714285715L119,133L120,133.0857142857143L121,133.17142857142858L122,133.25714285714287L123,133.34285714285713L124,133.4L125,133.4857142857143L126,133.57142857142856L127,133.62857142857143L128,133.71428571428572L129,133.77142857142857L130,133.85714285714286L131,133.9142857142857L132,133.9714285714286L133,134.05714285714288L134,134.11428571428573L135,134.17142857142858L136,134.25714285714287L137,134.31428571428572L138,134.37142857142857L139,134.42857142857144L140,134.48571428571427L141,134.54285714285714L142,134.60000000000002L143,134.65714285714284L144,134.7142857142857L145,134.7714285714286L146,134.82857142857142L147,134.88571428571427L148,134.94285714285715L149,135L150,135.05714285714285L151,135.0857142857143L152,135.14285714285714L153,135.20000000000002L154,135.25714285714287L155,135.28571428571428L156,135.34285714285716L157,135.4L158,135.45714285714286L159,135.4857142857143L160,135.54285714285714L161,135.57142857142858L162,135.62857142857143L163,135.65714285714287L164,135.71428571428572L165,135.77142857142857L166,135.8L167,136L168,136.05714285714285L169,136.0857142857143L170,136.14285714285714L171,136.17142857142858L172,136.20000000000002L173,136.25714285714287L174,136.2857142857143L175,136.3142857142857L176,136.3714285714286L177,136.39999999999998L178,136.42857142857144L179,136.48571428571427L180,136.51428571428573L181,136.54285714285714L182,136.57142857142856L183,136.60000000000002L184,136.65714285714284L185,136.68571428571428L186,136.71428571428572L187,136.74285714285713L188,136.94285714285715L189,136.97142857142856L190,137L191,137.0285714285714L192,137.05714285714285L193,137.0857142857143L194,137.1142857142857L195,137.14285714285714L196,137.17142857142858L197,137.2L198,137.22857142857143L199,137.25714285714287L200,137.28571428571428" stroke="#b279a2" stroke-width="2"/></g></g><path class="foreground" aria-hidden="true" d="" display="none"/></g><g transform="translate(0,0)"><path class="background" aria-hidden="true" d="M0,0h200v200h-200Z"/><g><g class="mark-line role-mark marks" role="graphics-object" aria-roledescription="line mark container"><path aria-label="D: 1; A / D: 5; p: 0.95" role="graphics-symbol" aria-roledescription="line mark" d="M1,57.14285714285714L2,85.71428571428572L3,66.65714285714286L4,78.57142857142858L5,85.71428571428572L6,90.48571428571428L7.000000000000001,93.88571428571429L8,100L9,101.6L10,102.85714285714285L11,106.4857142857143L12,109.51428571428572L13,109.88571428571427L14.000000000000002,112.25714285714285L15,112.37142857142857L16,114.28571428571428L17,115.97142857142858L18,117.45714285714286L19,117.28571428571428L20,118.57142857142857L21,119.71428571428571L22,120.77142857142857L23,120.48571428571428L24,121.42857142857144L25,122.28571428571429L26,123.08571428571429L27,123.8L28.000000000000004,123.45714285714287L28.999999999999996,124.14285714285715L30,124.77142857142857L31,125.34285714285716L32,125.88571428571429L33,126.4L34,126.88571428571427L35,127.34285714285714L36,126.97142857142856L37,127.4L38,127.82857142857145L39,128.2L40,128.57142857142856L41,128.9142857142857L42,129.25714285714287L43,129.57142857142858L44,129.85714285714286L45,130.17142857142855L46,130.42857142857142L47,130.68571428571428L48,130.94285714285715L49,131.20000000000002L50,131.42857142857142L51,131.65714285714287L52,131.85714285714286L53,131.54285714285714L54,131.74285714285716L55.00000000000001,131.94285714285715L56.00000000000001,132.14285714285714L56.99999999999999,132.34285714285713L57.99999999999999,132.5142857142857L59,132.68571428571428L60,132.85714285714286L61,133.02857142857144L62,133.17142857142858L63,133.34285714285713L64,133.4857142857143L65,133.62857142857143L66,133.77142857142857L67,133.9142857142857L68,134.02857142857144L69,134.17142857142858L70,134.2857142857143L71,134.4L72,134.51428571428573L73,134.62857142857143L74,135.14285714285714L75,135.22857142857143L76,135.34285714285716L77,135.42857142857144L78,135.54285714285714L79,135.62857142857143L80,135.71428571428572L81,135.8L82,135.88571428571427L83,135.97142857142856L84,136.05714285714285L85,136.14285714285714L86,136.20000000000002L87,136.2857142857143L88,136.3714285714286L89,136.42857142857144L90,136.51428571428573L91,136.57142857142856L92,136.65714285714284L93,136.71428571428572L94,136.77142857142857L95,136.82857142857142L96,136.9142857142857L97,136.97142857142856L98,137.31428571428572L99,137.37142857142857L100,137.42857142857144L101,137.48571428571427L102,137.54285714285714L103,137.6L104,137.62857142857143L105,137.68571428571428L106,137.74285714285713L107,137.77142857142857L108,137.82857142857142L109.00000000000001,137.8857142857143L110.00000000000001,137.9142857142857L111.00000000000001,137.9714285714286L112.00000000000001,138L112.99999999999999,138.31428571428572L113.99999999999999,138.34285714285716L114.99999999999999,138.37142857142857L115.99999999999999,138.42857142857144L117,138.45714285714286L118,138.48571428571427L119,138.54285714285714L120,138.57142857142856L121,138.60000000000002L122,138.6285714285714L123,138.6857142857143L124,138.7142857142857L125,138.97142857142856L126,139L127,139.02857142857144L128,139.05714285714285L129,139.0857142857143L130,139.11428571428573L131,139.14285714285714L132,139.17142857142858L133,139.2L134,139.22857142857143L135,139.25714285714287L136,139.4857142857143L137,139.5142857142857L138,139.54285714285714L139,139.57142857142856L140,139.6L141,139.62857142857143L142,139.62857142857143L143,139.65714285714284L144,139.68571428571428L145,139.71428571428572L146,139.9142857142857L147,139.94285714285715L148,139.97142857142856L149,139.97142857142856L150,140L151,140.02857142857144L152,140.02857142857144L153,140.05714285714285L154,140.0857142857143L155,140.0857142857143L156,140.2857142857143L157,140.3142857142857L158,140.3142857142857L159,140.34285714285716L160,140.34285714285716L161,140.37142857142857L162,140.39999999999998L163,140.39999999999998L164,140.42857142857144L165,140.6L166,140.62857142857143L167,140.62857142857143L168,140.65714285714284L169,140.65714285714284L170,140.68571428571428L171,140.68571428571428L172,140.68571428571428L173,140.7142857142857L174,140.88571428571427L175,140.88571428571427L176,140.9142857142857L177,140.9142857142857L178,140.94285714285712L179,140.94285714285712L180,140.94285714285712L181,140.97142857142856L182,141.14285714285714L183,141.14285714285714L184,141.14285714285714L185,141.17142857142858L186,141.17142857142858L187,141.17142857142858L188,141.17142857142858L189,141.2L190,141.34285714285716L191,141.37142857142857L192,141.37142857142857L193,141.37142857142857L194,141.37142857142857L195,141.4L196,141.4L197,141.4L198,141.57142857142858L199,141.57142857142858L200,141.57142857142858" stroke="#eeca3b" stroke-width="2"/></g></g><path class="foreground" aria-hidden="true" d="" display="none"/></g><g transform="translate(0,0)"><path class="background" aria-hidden="true" d="M0,0h200v200h-200Z"/><g><g class="mark-line role-mark marks" role="graphics-object" aria-roledescription="line mark container"><path aria-label="D: 1; A / D: 3; p: 0.75" role="graphics-symbol" aria-roledescription="line mark" d="M1,114.28571428571428L2,128.57142857142856L3,123.8L4,121.42857142857144L5,125.71428571428571L6,128.57142857142856L7.000000000000001,130.6L8,132.14285714285714L9,133.34285714285713L10,134.2857142857143L11,135.05714285714285L12,135.71428571428572L13,136.25714285714287L14.000000000000002,136.74285714285713L15,137.14285714285714L16,137.48571428571427L17,137.82857142857142L18,138.0857142857143L19,138.34285714285716L20,138.57142857142856L21,138.7714285714286L22,138.97142857142856L23,139.14285714285714L24,139.28571428571428L25,139.42857142857142L26,140.65714285714284L27,140.74285714285713L28.000000000000004,140.82857142857142L28.999999999999996,140.88571428571427L30,140.94285714285712L31,141L32,141.05714285714285L33,141.1142857142857L34,141.17142857142858L35,142.02857142857144L36,142.05714285714285L37,142.0857142857143L38,142.11428571428573L39,142.11428571428573L40,142.14285714285714L41,142.17142857142858L42,142.85714285714286L43,142.85714285714286L44,142.85714285714286L45,142.85714285714286L46,142.85714285714286L47,142.85714285714286L48,142.85714285714286L49,143.42857142857142L50,143.42857142857142L51,143.42857142857142L52,143.4L53,143.4L54,143.4L55.00000000000001,143.88571428571427L56.00000000000001,143.88571428571427L56.99999999999999,143.85714285714286L57.99999999999999,143.82857142857142L59,143.82857142857142L60,143.79999999999998L61,144.25714285714287L62,144.22857142857143L63,144.22857142857143L64,144.2L65,144.17142857142858L66,144.14285714285714L67,144.57142857142858L68,144.54285714285712L69,144.51428571428573L70,144.4857142857143L71,144.45714285714286L72,144.45714285714286L73,144.79999999999998L74,144.79999999999998L75,144.77142857142857L76,144.74285714285716L77,144.7142857142857L78,145.05714285714285L79,145.0285714285714L80,145L81,144.97142857142856L82,144.94285714285712L83,144.91428571428574L84,145.22857142857143L85,145.2L86,145.17142857142858L87,145.14285714285714L88,145.14285714285714L89,145.42857142857142L90,145.4L91,145.37142857142857L92,145.34285714285713L93,145.31428571428572L94,145.6L95,145.57142857142858L96,145.54285714285714L97,145.5142857142857L98,145.4857142857143L99,145.74285714285713L100,145.71428571428572L101,145.68571428571428L102,145.65714285714287L103,145.62857142857143L104,145.88571428571427L105,145.85714285714286L106,145.82857142857142L107,145.79999999999998L108,145.77142857142857L109.00000000000001,145.74285714285713L110.00000000000001,145.97142857142856L111.00000000000001,145.94285714285715L112.00000000000001,145.9142857142857L112.99999999999999,145.88571428571427L113.99999999999999,145.85714285714286L114.99999999999999,146.0857142857143L115.99999999999999,146.05714285714285L117,146.02857142857144L118,146L119,146.22857142857143L120,146.2L121,146.17142857142858L122,146.14285714285714L123,146.11428571428573L124,146.31428571428572L125,146.28571428571428L126,146.25714285714287L127,146.22857142857143L128,146.2L129,146.4L130,146.37142857142857L131,146.34285714285716L132,146.31428571428572L133,146.28571428571428L134,146.4857142857143L135,146.45714285714286L136,146.42857142857144L137,146.4L138,146.37142857142857L139,146.54285714285714L140,146.54285714285714L141,146.5142857142857L142,146.4857142857143L143,146.45714285714286L144,146.62857142857143L145,146.6L146,146.57142857142858L147,146.54285714285714L148,146.71428571428572L149,146.68571428571428L150,146.65714285714287L151,146.62857142857143L152,146.62857142857143L153,146.77142857142857L154,146.74285714285716L155,146.71428571428572L156,146.71428571428572L157,146.68571428571428L158,146.82857142857145L159,146.8L160,146.77142857142857L161,146.77142857142857L162,146.9142857142857L163,146.8857142857143L164,146.85714285714283L165,146.82857142857145L166,146.82857142857145L167,146.9714285714286L168,146.94285714285712L169,146.9142857142857L170,146.8857142857143L171,147.0285714285714L172,147L173,147L174,146.9714285714286L175,146.94285714285712L176,147.0857142857143L177,147.05714285714288L178,147.0285714285714L179,147L180,147.14285714285717L181,147.1142857142857L182,147.0857142857143L183,147.0857142857143L184,147.05714285714288L185,147.17142857142858L186,147.17142857142858L187,147.14285714285717L188,147.1142857142857L189,147.0857142857143L190,147.22857142857146L191,147.2L192,147.17142857142858L193,147.14285714285717L194,147.28571428571428L195,147.25714285714284L196,147.22857142857146L197,147.2L198,147.2L199,147.31428571428572L200,147.28571428571428" stroke="#54a24b" stroke-width="2"/></g></g><path class="foreground" aria-hidden="true" d="" display="none"/></g><g transform="translate(0,0)"><path class="background" aria-hidden="true" d="M0,0h200v200h-200Z"/><g><g class="mark-line role-mark marks" role="graphics-object" aria-roledescription="line mark container"><path aria-label="D: 1; A / D: 3; p: 0.5" role="graphics-symbol" aria-roledescription="line mark" d="M1,114.28571428571428L2,142.85714285714286L3,142.85714285714286L4,150L5,148.57142857142858L6,147.62857142857143L7.000000000000001,151.0285714285714L8,150L9,149.2L10,148.57142857142858L11,150.65714285714287L12,150L13,149.45714285714286L14.000000000000002,151.0285714285714L15,150.4857142857143L16,150L17,151.25714285714284L18,150.8L19,150.37142857142857L20,150L21,151.0285714285714L22,150.65714285714287L23,150.31428571428572L24,151.2L25,150.85714285714283L26,150.54285714285714L27,150.25714285714287L28.000000000000004,151.0285714285714L28.999999999999996,150.74285714285716L30,150.4857142857143L31,151.14285714285717L32,150.8857142857143L33,150.65714285714287L34,150.42857142857142L35,151.0285714285714L36,150.8L37,150.57142857142858L38,151.1142857142857L39,150.9142857142857L40,150.71428571428572L41,150.5142857142857L42,151.0285714285714L43,150.82857142857142L44,150.65714285714287L45,151.1142857142857L46,150.94285714285712L47,150.77142857142854L48,151.2L49,151.0285714285714L50,150.85714285714283L51,150.71428571428572L52,151.0857142857143L53,150.94285714285712L54,150.8L55.00000000000001,151.17142857142855L56.00000000000001,151.0285714285714L56.99999999999999,150.8857142857143L57.99999999999999,150.74285714285716L59,151.0857142857143L60,150.94285714285712L61,150.82857142857142L62,151.14285714285717L63,151.0285714285714L64,150.8857142857143L65,150.77142857142854L66,151.0857142857143L67,150.9714285714286L68,150.82857142857142L69,151.14285714285717L70,151.0285714285714L71,150.9142857142857L72,150.8L73,151.0857142857143L74,150.9714285714286L75,150.85714285714283L76,151.1142857142857L77,151.0285714285714L78,150.9142857142857L79,151.17142857142855L80,151.05714285714288L81,150.9714285714286L82,150.85714285714283L83,151.1142857142857L84,151.0285714285714L85,150.9142857142857L86,151.17142857142855L87,151.05714285714288L88,150.9714285714286L89,150.8857142857143L90,151.1142857142857L91,151.0285714285714L92,150.94285714285712L93,151.14285714285717L94,151.05714285714288L95,150.9714285714286L96,150.8857142857143L97,151.1142857142857L98,151.0285714285714L99,150.94285714285712L100,151.14285714285717L101,151.05714285714288L102,150.9714285714286L103,150.9142857142857L104,151.0857142857143L105,151.0285714285714L106,150.94285714285712L107,151.14285714285717L108,151.05714285714288L109.00000000000001,150.9714285714286L110.00000000000001,150.9142857142857L111.00000000000001,151.0857142857143L112.00000000000001,151.0285714285714L112.99999999999999,150.94285714285712L113.99999999999999,151.1142857142857L114.99999999999999,151.05714285714288L115.99999999999999,150.9714285714286L117,151.17142857142855L118,151.0857142857143L119,151.0285714285714L120,150.94285714285712L121,151.1142857142857L122,151.05714285714288L123,151L124,151.14285714285717L125,151.0857142857143L126,151.0285714285714L127,150.94285714285712L128,151.1142857142857L129,151.05714285714288L130,151L131,151.14285714285717L132,151.0857142857143L133,151.0285714285714L134,150.9714285714286L135,151.1142857142857L136,151.05714285714288L137,151L138,151.14285714285717L139,151.0857142857143L140,151.0285714285714L141,150.9714285714286L142,151.1142857142857L143,151.05714285714288L144,151L145,151.14285714285717L146,151.0857142857143L147,151.0285714285714L148,150.9714285714286L149,151.1142857142857L150,151.05714285714288L151,151L152,151.1142857142857L153,151.0857142857143L154,151.0285714285714L155,151.14285714285717L156,151.0857142857143L157,151.05714285714288L158,151L159,151.1142857142857L160,151.05714285714288L161,151.0285714285714L162,151.14285714285717L163,151.0857142857143L164,151.05714285714288L165,151L166,151.1142857142857L167,151.05714285714288L168,151.0285714285714L169,151.14285714285717L170,151.0857142857143L171,151.05714285714288L172,151L173,151.1142857142857L174,151.05714285714288L175,151.0285714285714L176,151.14285714285717L177,151.0857142857143L178,151.05714285714288L179,151L180,151.1142857142857L181,151.05714285714288L182,151.0285714285714L183,151.14285714285717L184,151.0857142857143L185,151.0285714285714L186,151L187,151.1142857142857L188,151.05714285714288L189,151.0285714285714L190,151.1142857142857L191,151.0857142857143L192,151.0285714285714L193,151.14285714285717L194,151.1142857142857L195,151.05714285714288L196,151.0285714285714L197,151.1142857142857L198,151.0857142857143L199,151.0285714285714L200,151.14285714285717" stroke="#72b7b2" stroke-width="2"/></g></g><path class="foreground" aria-hidden="true" d="" display="none"/></g><g transform="translate(0,0)"><path class="background" aria-hidden="true" d="M0,0h200v200h-200Z"/><g><g class="mark-line role-mark marks" role="graphics-object" aria-roledescription="line mark container"><path aria-label="D: 1; A / D: 2; p: 0.25" role="graphics-symbol" aria-roledescription="line mark" d="M1,142.85714285714286L2,157.14285714285714L3,161.9142857142857L4,164.28571428571428L5,165.7142857142857L6,166.65714285714287L7.000000000000001,163.25714285714287L8,164.28571428571428L9,165.0857142857143L10,162.85714285714286L11,163.62857142857143L12,161.9142857142857L13,162.62857142857143L14.000000000000002,163.25714285714287L15,161.9142857142857L16,162.4857142857143L17,161.34285714285716L18,161.9142857142857L19,160.9142857142857L20,161.42857142857144L21,160.54285714285714L22,161.02857142857144L23,160.25714285714287L24,160.71428571428572L25,160L26,160.42857142857144L27,159.79999999999998L28.000000000000004,160.2L28.999999999999996,159.60000000000002L30,160L31,159.45714285714286L32,159.82857142857142L33,159.31428571428572L34,158.82857142857142L35,159.17142857142858L36,158.74285714285713L37,159.0857142857143L38,158.65714285714284L39,158.9714285714286L40,158.57142857142858L41,158.8857142857143L42,158.5142857142857L43,158.14285714285714L44,158.42857142857142L45,158.0857142857143L46,158.37142857142857L47,158.05714285714285L48,158.34285714285713L49,158.02857142857144L50,157.71428571428572L51,157.97142857142856L52,157.68571428571428L53,157.94285714285715L54,157.68571428571428L55.00000000000001,157.9142857142857L56.00000000000001,157.65714285714284L56.99999999999999,157.39999999999998L57.99999999999999,157.62857142857143L59,157.3714285714286L60,157.62857142857143L61,157.3714285714286L62,157.14285714285714L63,157.3714285714286L64,157.14285714285714L65,157.3714285714286L66,157.14285714285714L67,156.94285714285715L68,157.14285714285714L69,156.94285714285715L70,157.14285714285714L71,156.94285714285715L72,156.74285714285713L73,156.94285714285715L74,156.74285714285713L75,156.94285714285715L76,156.77142857142857L77,156.6L78,156.77142857142857L79,156.6L80,156.77142857142857L81,156.6L82,156.45714285714286L83,156.62857142857143L84,156.45714285714286L85,156.62857142857143L86,156.4857142857143L87,156.31428571428572L88,156.4857142857143L89,156.34285714285713L90,156.5142857142857L91,156.37142857142857L92,156.20000000000002L93,156.37142857142857L94,156.22857142857143L95,156.0857142857143L96,156.25714285714287L97,156.11428571428573L98,156.25714285714287L99,156.14285714285714L100,156L101,156.14285714285714L102,156.02857142857144L103,156.17142857142858L104,156.05714285714285L105,155.9142857142857L106,156.05714285714285L107,155.94285714285715L108,155.82857142857142L109.00000000000001,155.97142857142856L110.00000000000001,155.85714285714286L111.00000000000001,155.97142857142856L112.00000000000001,155.85714285714286L112.99999999999999,155.74285714285713L113.99999999999999,155.88571428571427L114.99999999999999,155.77142857142857L115.99999999999999,155.65714285714284L117,155.8L118,155.68571428571428L119,155.82857142857142L120,155.71428571428572L121,155.6L122,155.74285714285713L123,155.62857142857143L124,155.54285714285714L125,155.65714285714284L126,155.54285714285714L127,155.68571428571428L128,155.57142857142856L129,155.48571428571427L130,155.6L131,155.5142857142857L132,155.4L133,155.54285714285714L134,155.42857142857142L135,155.54285714285714L136,155.45714285714288L137,155.3714285714286L138,155.48571428571427L139,155.4L140,155.31428571428572L141,155.42857142857142L142,155.34285714285713L143,155.45714285714288L144,155.34285714285713L145,155.25714285714284L146,155.3714285714286L147,155.2857142857143L148,155.20000000000002L149,155.31428571428572L150,155.22857142857143L151,155.14285714285714L152,155.25714285714284L153,155.17142857142855L154,155.2857142857143L155,155.20000000000002L156,155.11428571428573L157,155.22857142857143L158,155.14285714285714L159,155.08571428571426L160,155.17142857142855L161,155.11428571428573L162,155.02857142857144L163,155.11428571428573L164,155.05714285714288L165,155.14285714285714L166,155.08571428571426L167,155L168,155.11428571428573L169,155.02857142857144L170,154.9714285714286L171,155.05714285714288L172,154.9714285714286L173,154.9142857142857L174,155L175,154.94285714285715L176,155.02857142857144L177,154.9714285714286L178,154.8857142857143L179,155L180,154.9142857142857L181,154.85714285714286L182,154.94285714285715L183,154.8857142857143L184,154.8L185,154.9142857142857L186,154.82857142857142L187,154.77142857142857L188,154.85714285714286L189,154.8L190,154.8857142857143L191,154.82857142857142L192,154.77142857142857L193,154.85714285714286L194,154.8L195,154.71428571428572L196,154.8L197,154.74285714285713L198,154.68571428571428L199,154.77142857142857L200,154.71428571428572" stroke="#e45756" stroke-width="2"/></g></g><path class="foreground" aria-hidden="true" d="" display="none"/></g><g transform="translate(0,0)"><path class="background" aria-hidden="true" d="M0,0h200v200h-200Z"/><g><g class="mark-line role-mark marks" role="graphics-object" aria-roledescription="line mark container"><path aria-label="D: 1; A / D: 2; p: 0.05" role="graphics-symbol" aria-roledescription="line mark" d="M1,142.85714285714286L2,171.42857142857144L3,171.42857142857144L4,178.57142857142858L5,177.14285714285714L6,180.94285714285715L7.000000000000001,179.6L8,178.57142857142858L9,177.77142857142857L10,177.14285714285714L11,176.62857142857143L12,176.2L13,175.82857142857142L14.000000000000002,175.5142857142857L15,175.22857142857143L16,175L17,174.8L18,174.6L19,174.42857142857142L20,174.28571428571428L21,172.8L22,172.71428571428572L23,172.65714285714287L24,172.62857142857143L25,171.42857142857144L26,171.42857142857144L27,171.42857142857144L28.000000000000004,171.42857142857144L28.999999999999996,170.45714285714286L30,170.4857142857143L31,170.5142857142857L32,170.54285714285714L33,169.68571428571428L34,169.74285714285716L35,169.79999999999998L36,169.05714285714285L37,169.11428571428573L38,169.17142857142858L39,168.4857142857143L40,168.57142857142858L41,168.62857142857143L42,168.0285714285714L43,168.1142857142857L44,168.17142857142858L45,167.6285714285714L46,167.7142857142857L47,167.17142857142858L48,167.25714285714287L49,167.34285714285716L50,166.85714285714286L51,166.94285714285715L52,167.02857142857144L53,166.57142857142858L54,166.65714285714287L55.00000000000001,166.22857142857143L56.00000000000001,166.31428571428572L56.99999999999999,166.42857142857142L57.99999999999999,166L59,166.1142857142857L60,165.7142857142857L61,165.79999999999998L62,165.42857142857144L63,165.54285714285714L64,165.6285714285714L65,165.28571428571428L66,165.37142857142857L67,165.02857142857144L68,165.11428571428573L69,165.2285714285714L70,164.88571428571427L71,165L72,164.68571428571428L73,164.77142857142857L74,164.48571428571427L75,164.57142857142856L76,164.28571428571428L77,164.37142857142857L78,164.45714285714286L79,164.2L80,164.28571428571428L81,164.02857142857144L82,164.1142857142857L83,163.85714285714286L84,163.94285714285715L85,163.6857142857143L86,163.79999999999998L87,163.54285714285714L88,163.62857142857143L89,163.39999999999998L90,163.48571428571427L91,163.57142857142856L92,163.34285714285716L93,163.42857142857144L94,163.22857142857143L95,163.3142857142857L96,163.0857142857143L97,163.17142857142858L98,162.97142857142856L99,163.05714285714285L100,162.85714285714286L101,162.94285714285715L102,162.74285714285713L103,162.82857142857142L104,162.62857142857143L105,162.71428571428572L106,162.54285714285714L107,162.62857142857143L108,162.42857142857144L109.00000000000001,162.5142857142857L110.00000000000001,162.34285714285716L111.00000000000001,162.42857142857144L112.00000000000001,162.25714285714287L112.99999999999999,162.31428571428572L113.99999999999999,162.14285714285714L114.99999999999999,162.22857142857143L115.99999999999999,162.05714285714285L117,162.14285714285714L118,161.97142857142856L119,162.05714285714285L120,161.9142857142857L121,161.97142857142856L122,161.82857142857142L123,161.9142857142857L124,161.74285714285713L125,161.82857142857142L126,161.6857142857143L127,161.74285714285713L128,161.60000000000002L129,161.6857142857143L130,161.54285714285714L131,161.60000000000002L132,161.48571428571427L133,161.54285714285714L134,161.39999999999998L135,161.48571428571427L136,161.34285714285716L137,161.42857142857144L138,161.2857142857143L139,161.34285714285716L140,161.22857142857143L141,161.2857142857143L142,161.17142857142858L143,161.22857142857143L144,161.11428571428573L145,161.17142857142858L146,161.05714285714285L147,160.94285714285715L148,161L149,160.8857142857143L150,160.94285714285715L151,160.82857142857142L152,160.9142857142857L153,160.77142857142857L154,160.85714285714286L155,160.74285714285713L156,160.8L157,160.68571428571428L158,160.77142857142857L159,160.65714285714284L160,160.71428571428572L161,160.6L162,160.65714285714284L163,160.57142857142858L164,160.62857142857143L165,160.51428571428573L166,160.4L167,160.4857142857143L168,160.37142857142857L169,160.42857142857144L170,160.34285714285716L171,160.4L172,160.28571428571428L173,160.37142857142857L174,160.25714285714287L175,160.31428571428572L176,160.22857142857143L177,160.28571428571428L178,160.2L179,160.0857142857143L180,160.17142857142858L181,160.05714285714285L182,160.11428571428573L183,160.02857142857144L184,160.0857142857143L185,160L186,160.05714285714285L187,159.97142857142856L188,160.02857142857144L189,159.94285714285715L190,159.85714285714286L191,159.9142857142857L192,159.82857142857142L193,159.88571428571427L194,159.79999999999998L195,159.85714285714286L196,159.7714285714286L197,159.82857142857142L198,159.74285714285713L199,159.79999999999998L200,159.71428571428572" stroke="#f58518" stroke-width="2"/></g></g><path class="foreground" aria-hidden="true" d="" display="none"/></g><g transform="translate(0,0)"><path class="background" aria-hidden="true" d="M0,0h200v200h-200Z"/><g><g class="mark-line role-mark marks" role="graphics-object" aria-roledescription="line mark container"><path aria-label="D: 1; A / D: 2; p: 0.01" role="graphics-symbol" aria-roledescription="line mark" d="M1,142.85714285714286L2,171.42857142857144L3,180.94285714285715L4,178.57142857142858L5,182.85714285714286L6,180.94285714285715L7.000000000000001,183.68571428571428L8,185.71428571428572L9,184.11428571428573L10,185.71428571428572L11,184.42857142857144L12,183.34285714285713L13,184.62857142857143L14.000000000000002,183.68571428571428L15,182.85714285714286L16,182.14285714285714L17,181.5142857142857L18,180.94285714285715L19,180.45714285714286L20,181.42857142857142L21,180.94285714285715L22,180.5142857142857L23,180.11428571428573L24,178.57142857142858L25,178.28571428571428L26,178.0285714285714L27,177.77142857142857L28.000000000000004,177.54285714285714L28.999999999999996,177.34285714285713L30,177.14285714285714L31,176.9714285714286L32,176.77142857142857L33,176.62857142857143L34,176.45714285714286L35,175.5142857142857L36,175.4L37,175.28571428571428L38,175.2L39,175.0857142857143L40,174.28571428571428L41,174.22857142857143L42,174.14285714285717L43,174.0857142857143L44,174.0285714285714L45,173.34285714285716L46,173.28571428571428L47,173.25714285714287L48,173.2L49,172.6L50,172.57142857142858L51,172.54285714285714L52,172.5142857142857L53,171.9714285714286L54,171.9714285714286L55.00000000000001,171.94285714285712L56.00000000000001,171.94285714285712L56.99999999999999,171.42857142857144L57.99999999999999,171.42857142857144L59,171.42857142857144L60,171.42857142857144L61,170.97142857142856L62,170.97142857142856L63,170.97142857142856L64,170.54285714285714L65,170.54285714285714L66,170.57142857142858L67,170.14285714285714L68,170.17142857142858L69,170.2L70,169.79999999999998L71,169.82857142857145L72,169.82857142857145L73,169.4857142857143L74,169.4857142857143L75,169.51428571428573L76,169.17142857142858L77,169.2L78,169.22857142857143L79,168.88571428571427L80,168.9142857142857L81,168.97142857142856L82,168.62857142857143L83,168.68571428571428L84,168.71428571428572L85,168.4L86,168.42857142857142L87,168.4857142857143L88,168.17142857142858L89,168.22857142857143L90,167.94285714285712L91,167.97142857142856L92,168L93,167.74285714285716L94,167.77142857142857L95,167.82857142857145L96,167.57142857142858L97,167.60000000000002L98,167.34285714285716L99,167.4L100,167.42857142857144L101,167.17142857142858L102,167.22857142857143L103,167L104,167.02857142857144L105,167.0857142857143L106,166.85714285714286L107,166.88571428571427L108,166.65714285714287L109.00000000000001,166.71428571428572L110.00000000000001,166.74285714285716L111.00000000000001,166.54285714285714L112.00000000000001,166.57142857142858L112.99999999999999,166.37142857142857L113.99999999999999,166.42857142857142L114.99999999999999,166.45714285714286L115.99999999999999,166.25714285714287L117,166.31428571428572L118,166.1142857142857L119,166.14285714285714L120,166.2L121,166L122,166.0285714285714L123,165.85714285714286L124,165.88571428571427L125,165.7142857142857L126,165.77142857142857L127,165.79999999999998L128,165.6285714285714L129,165.65714285714284L130,165.48571428571427L131,165.54285714285714L132,165.57142857142856L133,165.39999999999998L134,165.45714285714286L135,165.28571428571428L136,165.34285714285716L137,165.17142857142858L138,165.2285714285714L139,165.05714285714285L140,165.11428571428573L141,165.14285714285714L142,165L143,165.02857142857144L144,164.88571428571427L145,164.9142857142857L146,164.77142857142857L147,164.82857142857142L148,164.68571428571428L149,164.71428571428572L150,164.77142857142857L151,164.62857142857143L152,164.65714285714284L153,164.5142857142857L154,164.57142857142856L155,164.42857142857142L156,164.45714285714286L157,164.34285714285716L158,164.37142857142857L159,164.42857142857142L160,164.28571428571428L161,164.34285714285716L162,164.2L163,164.22857142857143L164,164.1142857142857L165,164.14285714285714L166,164.02857142857144L167,164.0857142857143L168,163.94285714285715L169,164L170,163.85714285714286L171,163.9142857142857L172,163.94285714285715L173,163.82857142857142L174,163.88571428571427L175,163.74285714285713L176,163.79999999999998L177,163.6857142857143L178,163.7142857142857L179,163.60000000000002L180,163.65714285714284L181,163.54285714285714L182,163.57142857142856L183,163.45714285714286L184,163.51428571428573L185,163.39999999999998L186,163.42857142857144L187,163.34285714285716L188,163.37142857142857L189,163.42857142857144L190,163.3142857142857L191,163.34285714285716L192,163.25714285714287L193,163.2857142857143L194,163.17142857142858L195,163.22857142857143L196,163.11428571428573L197,163.17142857142858L198,163.05714285714285L199,163.11428571428573L200,163" stroke="#4c78a8" stroke-width="2"/></g></g><path class="foreground" aria-hidden="true" d="" display="none"/></g></g><g class="mark-group role-legend" role="graphics-symbol" aria-roledescription="legend" aria-label="Symbol legend titled 'p' for stroke color with 7 values: 0.01, 0.05, 0.25, 0.5, 0.75, 0.95, 0.99"><g transform="translate(220,0)"><path class="background" aria-hidden="true" d="M0,0h39v105h-39Z" pointer-events="none"/><g><g class="mark-group role-legend-entry"><g transform="translate(0,16)"><path class="background" aria-hidden="true" d="M0,0h0v0h0Z" pointer-events="none"/><g><g class="mark-group role-scope" role="graphics-object" aria-roledescription="group mark container"><g transform="translate(0,0)"><path class="background" aria-hidden="true" d="M0,0h38.28333282470703v11h-38.28333282470703Z" pointer-events="none" opacity="1"/><g><g class="mark-symbol role-legend-symbol" pointer-events="none"><path transform="translate(6,6)" d="M-5,0L5,0" stroke="#4c78a8" stroke-width="1.5" opacity="1"/></g><g class="mark-text role-legend-label" pointer-events="none"><text text-anchor="start" transform="translate(16,9)" font-family="sans-serif" font-size="10px" fill="#000" opacity="1">0.01</text></g></g><path class="foreground" aria-hidden="true" d="" pointer-events="none" display="none"/></g><g transform="translate(0,13)"><path class="background" aria-hidden="true" d="M0,0h38.28333282470703v11h-38.28333282470703Z" pointer-events="none" opacity="1"/><g><g class="mark-symbol role-legend-symbol" pointer-events="none"><path transform="translate(6,6)" d="M-5,0L5,0" stroke="#f58518" stroke-width="1.5" opacity="1"/></g><g class="mark-text role-legend-label" pointer-events="none"><text text-anchor="start" transform="translate(16,9)" font-family="sans-serif" font-size="10px" fill="#000" opacity="1">0.05</text></g></g><path class="foreground" aria-hidden="true" d="" pointer-events="none" display="none"/></g><g transform="translate(0,26)"><path class="background" aria-hidden="true" d="M0,0h38.28333282470703v11h-38.28333282470703Z" pointer-events="none" opacity="1"/><g><g class="mark-symbol role-legend-symbol" pointer-events="none"><path transform="translate(6,6)" d="M-5,0L5,0" stroke="#e45756" stroke-width="1.5" opacity="1"/></g><g class="mark-text role-legend-label" pointer-events="none"><text text-anchor="start" transform="translate(16,9)" font-family="sans-serif" font-size="10px" fill="#000" opacity="1">0.25</text></g></g><path class="foreground" aria-hidden="true" d="" pointer-events="none" display="none"/></g><g transform="translate(0,39)"><path class="background" aria-hidden="true" d="M0,0h38.28333282470703v11h-38.28333282470703Z" pointer-events="none" opacity="1"/><g><g class="mark-symbol role-legend-symbol" pointer-events="none"><path transform="translate(6,6)" d="M-5,0L5,0" stroke="#72b7b2" stroke-width="1.5" opacity="1"/></g><g class="mark-text role-legend-label" pointer-events="none"><text text-anchor="start" transform="translate(16,9)" font-family="sans-serif" font-size="10px" fill="#000" opacity="1">0.5</text></g></g><path class="foreground" aria-hidden="true" d="" pointer-events="none" display="none"/></g><g transform="translate(0,52)"><path class="background" aria-hidden="true" d="M0,0h38.28333282470703v11h-38.28333282470703Z" pointer-events="none" opacity="1"/><g><g class="mark-symbol role-legend-symbol" pointer-events="none"><path transform="translate(6,6)" d="M-5,0L5,0" stroke="#54a24b" stroke-width="1.5" opacity="1"/></g><g class="mark-text role-legend-label" pointer-events="none"><text text-anchor="start" transform="translate(16,9)" font-family="sans-serif" font-size="10px" fill="#000" opacity="1">0.75</text></g></g><path class="foreground" aria-hidden="true" d="" pointer-events="none" display="none"/></g><g transform="translate(0,65)"><path class="background" aria-hidden="true" d="M0,0h38.28333282470703v11h-38.28333282470703Z" pointer-events="none" opacity="1"/><g><g class="mark-symbol role-legend-symbol" pointer-events="none"><path transform="translate(6,6)" d="M-5,0L5,0" stroke="#eeca3b" stroke-width="1.5" opacity="1"/></g><g class="mark-text role-legend-label" pointer-events="none"><text text-anchor="start" transform="translate(16,9)" font-family="sans-serif" font-size="10px" fill="#000" opacity="1">0.95</text></g></g><path class="foreground" aria-hidden="true" d="" pointer-events="none" display="none"/></g><g transform="translate(0,78)"><path class="background" aria-hidden="true" d="M0,0h38.28333282470703v11h-38.28333282470703Z" pointer-events="none" opacity="1"/><g><g class="mark-symbol role-legend-symbol" pointer-events="none"><path transform="translate(6,6)" d="M-5,0L5,0" stroke="#b279a2" stroke-width="1.5" opacity="1"/></g><g class="mark-text role-legend-label" pointer-events="none"><text text-anchor="start" transform="translate(16,9)" font-family="sans-serif" font-size="10px" fill="#000" opacity="1">0.99</text></g></g><path class="foreground" aria-hidden="true" d="" pointer-events="none" display="none"/></g></g></g><path class="foreground" aria-hidden="true" d="" pointer-events="none" display="none"/></g></g><g class="mark-text role-legend-title" pointer-events="none"><text text-anchor="start" transform="translate(0,9)" font-family="sans-serif" font-size="11px" font-weight="bold" fill="#000" opacity="1">p</text></g></g><path class="foreground" aria-hidden="true" d="" pointer-events="none" display="none"/></g></g></g><path class="foreground" aria-hidden="true" d="" display="none"/></g></g></g></svg>